<svg width="36" height="25" viewBox="0 0 36 25" fill="none" xmlns="http://www.w3.org/2000/svg">
<path d="M32.4608 0.416992H3.53925C2.7722 0.416992 2.03657 0.721701 1.49419 1.26409C0.951803 1.80647 0.647095 2.5421 0.647095 3.30915L0.647095 22.1082C0.647095 22.8752 0.951803 23.6108 1.49419 24.1532C2.03657 24.6956 2.7722 25.0003 3.53925 25.0003H32.4608C33.2279 25.0003 33.9635 24.6956 34.5059 24.1532C35.0483 23.6108 35.353 22.8752 35.353 22.1082V3.30915C35.353 2.5421 35.0483 1.80647 34.5059 1.26409C33.9635 0.721701 33.2279 0.416992 32.4608 0.416992ZM33.9069 22.1082C33.9069 22.4917 33.7545 22.8595 33.4833 23.1307C33.2122 23.4019 32.8443 23.5542 32.4608 23.5542H3.53925C3.15573 23.5542 2.78791 23.4019 2.51672 23.1307C2.24553 22.8595 2.09317 22.4917 2.09317 22.1082V3.30915C2.09317 2.92562 2.24553 2.55781 2.51672 2.28662C2.78791 2.01542 3.15573 1.86307 3.53925 1.86307H32.4608C32.8443 1.86307 33.2122 2.01542 33.4833 2.28662C33.7545 2.55781 33.9069 2.92562 33.9069 3.30915V22.1082Z" fill="white"/>
<path d="M31.3112 4.09571C31.184 4.03863 31.043 4.01952 30.9053 4.04069C30.7675 4.06186 30.6388 4.1224 30.5346 4.21502L18 15.3563L5.46613 4.21429C5.36194 4.12152 5.23313 4.06087 5.09524 4.03966C4.95735 4.01844 4.81627 4.03758 4.68901 4.09475C4.56175 4.15192 4.45375 4.24469 4.37803 4.36186C4.30231 4.47904 4.26211 4.61562 4.26227 4.75513V22.1081C4.26227 22.2998 4.33845 22.4837 4.47404 22.6193C4.60964 22.7549 4.79355 22.8311 4.98531 22.8311C5.17707 22.8311 5.36098 22.7549 5.49657 22.6193C5.63217 22.4837 5.70835 22.2998 5.70835 22.1081V6.36533L17.5192 16.8639C17.6516 16.9816 17.8225 17.0466 17.9997 17.0466C18.1768 17.0466 18.3477 16.9816 18.4801 16.8639L30.2917 6.36533V21.385C30.2917 21.5768 30.3679 21.7607 30.5035 21.8963C30.639 22.0319 30.823 22.1081 31.0147 22.1081C31.2065 22.1081 31.3904 22.0319 31.526 21.8963C31.6616 21.7607 31.7378 21.5768 31.7378 21.385V4.75513C31.7377 4.6158 31.6975 4.47944 31.6218 4.36245C31.5461 4.24547 31.4382 4.15284 31.3112 4.09571Z" fill="white"/>
<path d="M17.533 12.5366C17.6635 12.6471 17.829 12.7077 18.0001 12.7077C18.1711 12.7077 18.3366 12.6471 18.4671 12.5366L27.8667 4.58317C28.008 4.45786 28.0947 4.28219 28.1082 4.09375C28.1217 3.90531 28.0609 3.71908 27.9389 3.57489C27.8168 3.43071 27.6431 3.34003 27.4551 3.32226C27.267 3.30449 27.0794 3.36104 26.9325 3.47981L18.0001 11.0377L9.06764 3.47981C8.99555 3.41592 8.91142 3.36707 8.82019 3.33614C8.72895 3.30521 8.63246 3.29282 8.53638 3.2997C8.44029 3.30658 8.34655 3.33259 8.26066 3.37621C8.17477 3.41983 8.09845 3.48017 8.03621 3.55369C7.97396 3.62721 7.92703 3.71242 7.89818 3.80433C7.86933 3.89624 7.85913 3.99299 7.8682 4.0889C7.87726 4.1848 7.90539 4.27793 7.95094 4.36281C7.9965 4.44769 8.05856 4.52261 8.13347 4.58317L17.533 12.5366Z" fill="white"/>
</svg>
