<svg width="237" height="241" viewBox="0 0 237 241" fill="none" xmlns="http://www.w3.org/2000/svg">
<path d="M118.826 241C183.998 241 236.83 210.497 236.83 172.87C236.83 135.244 183.998 104.741 118.826 104.741C53.6545 104.741 0.822266 135.244 0.822266 172.87C0.822266 210.497 53.6545 241 118.826 241Z" fill="#F5F5F5"/>
<path d="M36.9287 186.389C44.143 186.389 49.9914 183.013 49.9914 178.848C49.9914 174.682 44.143 171.306 36.9287 171.306C29.7144 171.306 23.8661 174.682 23.8661 178.848C23.8661 183.013 29.7144 186.389 36.9287 186.389Z" fill="#E6E6E6"/>
<path d="M137.526 138.419L51.6725 187.991C51.3409 188.175 51.0646 188.443 50.8721 188.77C50.6796 189.096 50.5781 189.468 50.5781 189.847C50.5781 190.226 50.6796 190.598 50.8721 190.925C51.0646 191.251 51.3409 191.52 51.6725 191.704L102.131 220.836C103.399 221.568 104.837 221.954 106.302 221.954C107.766 221.954 109.205 221.568 110.473 220.836L196.327 171.269C196.659 171.086 196.935 170.817 197.127 170.49C197.32 170.164 197.421 169.792 197.421 169.413C197.421 169.034 197.32 168.662 197.127 168.335C196.935 168.009 196.659 167.74 196.327 167.557L145.874 138.419C144.605 137.686 143.166 137.3 141.7 137.3C140.235 137.3 138.795 137.686 137.526 138.419V138.419Z" fill="#E6E6E6"/>
<path d="M111.746 138.901L77.379 158.747C76.6883 159.144 76.1146 159.717 75.7157 160.407C75.3167 161.097 75.1067 161.88 75.1067 162.677C75.1067 163.474 75.3167 164.257 75.7157 164.947C76.1146 165.637 76.6883 166.209 77.379 166.607L94.6845 176.599C95.8299 177.258 97.1284 177.605 98.45 177.605C99.7717 177.605 101.07 177.258 102.216 176.599L136.588 156.753C137.277 156.354 137.85 155.781 138.247 155.091C138.645 154.401 138.855 153.619 138.855 152.823C138.855 152.026 138.645 151.244 138.247 150.554C137.85 149.865 137.277 149.292 136.588 148.893L119.277 138.901C118.133 138.239 116.834 137.89 115.512 137.89C114.189 137.89 112.891 138.239 111.746 138.901V138.901Z" fill="#E6E6E6"/>
<path d="M37.6182 159.352C37.6182 159.352 29.5462 151.465 34.139 138.26C36.7113 130.861 45.2447 125.425 50.1027 124.916C48.4943 126.827 47.2114 128.989 46.3054 131.317L40.1851 135.385L45.8122 133.624L44.6136 138.44C44.6136 138.44 39.3843 141.622 38.6099 142.29L44.2476 140.789C44.2476 140.789 43.8127 154.43 37.6182 159.352Z" fill="#3DBBC3"/>
<path opacity="0.4" d="M37.6182 159.352C37.6182 159.352 29.5462 151.465 34.139 138.26C36.7113 130.861 45.2447 125.425 50.1027 124.916C48.4943 126.827 47.2114 128.989 46.3054 131.317L40.1851 135.385L45.8122 133.624L44.6136 138.44C44.6136 138.44 39.3843 141.622 38.6099 142.29L44.2476 140.789C44.2476 140.789 43.8127 154.43 37.6182 159.352Z" fill="black"/>
<path d="M37.6183 159.352C37.6183 159.352 33.4391 142.853 39.623 133.232C39.623 133.211 32.3784 141.702 37.6183 159.352Z" fill="white"/>
<path d="M46.8571 161.564L36.9766 161.436H36.8758L27.0006 161.564C27.0006 161.564 26.8892 173.73 30.6388 178.678C31.6995 179.999 34.1021 180.922 36.9288 180.922C39.7556 180.922 42.19 179.993 43.2242 178.673C46.9632 173.719 46.8571 161.564 46.8571 161.564Z" fill="#37474F"/>
<path d="M36.9287 166.893C42.412 166.893 46.857 164.507 46.857 161.563C46.857 158.62 42.412 156.233 36.9287 156.233C31.4455 156.233 27.0005 158.62 27.0005 161.563C27.0005 164.507 31.4455 166.893 36.9287 166.893Z" fill="#455A64"/>
<path d="M36.9289 160.147C40.3444 160.147 43.2348 161.245 44.2531 162.762C44.5043 162.412 44.643 161.994 44.6508 161.564C44.6508 159.442 41.1929 157.75 36.9289 157.75C32.6648 157.75 29.1963 159.458 29.1963 161.564C29.2052 161.993 29.3418 162.41 29.5888 162.762C30.6176 161.245 33.5134 160.147 36.9289 160.147Z" fill="#263238"/>
<path d="M36.9288 165.377C40.9739 165.377 44.253 164.206 44.253 162.762C44.253 161.318 40.9739 160.148 36.9288 160.148C32.8838 160.148 29.6046 161.318 29.6046 162.762C29.6046 164.206 32.8838 165.377 36.9288 165.377Z" fill="#E0E0E0"/>
<path d="M37.0508 163.42C37.0508 163.42 33.2216 163.271 29.944 158.19C28.5863 156.096 27.934 155.008 27.934 155.008L33.2375 154.611L27.2657 153.12L24.4443 148.803L29.4031 148.432C29.4031 148.432 25.6906 147.138 23.0759 147.122C23.0759 147.122 18.499 139.045 17.1625 137.894C20.6211 138.106 24.0021 139.01 27.1056 140.551C30.2092 142.092 32.9723 144.24 35.2317 146.867C42.7733 155.74 38.1645 163.648 37.0508 163.42Z" fill="#3DBBC3"/>
<path d="M37.0509 163.42C37.0509 163.42 39.4428 149.005 24.1738 140.339C24.1738 140.339 40.0208 147.95 37.0509 163.42Z" fill="white"/>
<path d="M37.0508 163.42C37.0508 163.42 40.514 163.643 43.9454 159.368C45.3614 157.607 46.0668 156.674 46.0668 156.674L41.2936 155.815L46.8199 155.03L49.774 151.397L45.3349 150.596C45.3349 150.596 48.7875 149.779 51.1688 150.013C51.1688 150.013 56.0587 143.15 57.374 142.238C54.2332 142.105 51.0978 142.603 48.1528 143.702C45.2078 144.802 42.513 146.48 40.2276 148.639C32.6064 155.952 36.0219 163.521 37.0508 163.42Z" fill="#3DBBC3"/>
<path opacity="0.2" d="M37.0508 163.42C37.0508 163.42 40.514 163.643 43.9454 159.368C45.3614 157.607 46.0668 156.674 46.0668 156.674L41.2936 155.815L46.8199 155.03L49.774 151.397L45.3349 150.596C45.3349 150.596 48.7875 149.779 51.1688 150.013C51.1688 150.013 56.0587 143.15 57.374 142.238C54.2332 142.105 51.0978 142.603 48.1528 143.702C45.2078 144.802 42.513 146.48 40.2276 148.639C32.6064 155.952 36.0219 163.521 37.0508 163.42Z" fill="black"/>
<path d="M37.0507 163.42C37.0507 163.42 36.2446 150.193 50.8399 143.797C50.8399 143.807 35.8256 149.185 37.0507 163.42Z" fill="white"/>
<path d="M54.6056 46.0676V72.4157L31.7844 85.5897V59.2417L54.6056 46.0676Z" fill="#FAFAFA"/>
<path d="M52.1341 47.4949V70.9897L31.7844 82.737V59.2423L52.1341 47.4949ZM53.3699 45.3735L30.5646 58.5475V84.8956L31.8003 85.6116L54.6056 72.4375V46.0683L53.3699 45.3523V45.3735Z" fill="#E0E0E0"/>
<path d="M53.3698 48.2054V71.7002L33.0201 83.4476V59.9528L53.3698 48.2054V48.2054ZM54.6056 46.084L31.8003 59.2581V85.6061L54.6056 72.4321V46.0681V46.084Z" fill="#EBEBEB"/>
<path d="M51.2538 66.3856L33.9907 76.351L39.0927 63.0868L42.6249 67.2766L46.2366 62.1375L51.2538 66.3856Z" fill="#E0E0E0"/>
<path d="M45.266 58.107C45.2349 58.6555 45.0745 59.1888 44.798 59.6635C44.5215 60.1381 44.1367 60.5407 43.6749 60.8383C42.8051 61.3369 42.0839 60.9338 42.0839 59.9261C42.1158 59.3786 42.2766 58.8463 42.553 58.3726C42.8295 57.8989 43.2139 57.4972 43.6749 57.2001C44.5765 56.6962 45.266 57.1046 45.266 58.107Z" fill="#E0E0E0"/>
<path d="M62.2162 13.2654V34.2515L44.0409 44.7473V23.7558L62.2162 13.2654Z" fill="#FAFAFA"/>
<path d="M60.2486 14.4004V33.1272L44.0462 42.4774V23.7558L60.2539 14.4004H60.2486ZM61.2403 12.6926L43.0544 23.1884V44.1798L44.0409 44.7473L62.2162 34.2516V13.2601L61.235 12.6926H61.2403Z" fill="#E0E0E0"/>
<path d="M61.2351 14.9678V33.684L45.0221 43.0448V24.3232L61.2351 14.9678V14.9678ZM62.2162 13.26L44.0463 23.7557V44.7472L62.2215 34.2515V13.26H62.2162Z" fill="#EBEBEB"/>
<path d="M59.5484 29.4522L45.7963 37.3916L49.8588 26.8216L52.675 30.1629L55.5495 26.0632L59.5484 29.4522Z" fill="#E0E0E0"/>
<path d="M54.7806 22.854C54.7573 23.2898 54.6313 23.714 54.4129 24.0919C54.1944 24.4698 53.8897 24.7907 53.5236 25.0284C52.8288 25.4315 52.272 25.1027 52.272 24.3071C52.2942 23.8716 52.4192 23.4476 52.6368 23.0697C52.8543 22.6917 53.1582 22.3707 53.5236 22.1327C54.2184 21.7296 54.7806 22.0584 54.7806 22.854Z" fill="#E0E0E0"/>
<path d="M100.874 134.6L108.251 179.622C108.305 179.951 108.475 180.251 108.729 180.466C108.984 180.682 109.307 180.8 109.641 180.8V180.8C109.838 180.799 110.033 180.757 110.213 180.677C110.393 180.596 110.554 180.478 110.686 180.331C110.818 180.184 110.917 180.011 110.977 179.823C111.037 179.635 111.057 179.436 111.036 179.24L105.859 132.792L100.874 134.6Z" fill="#263238"/>
<path d="M126.342 119.459L133.724 164.481C133.777 164.809 133.946 165.109 134.199 165.324C134.453 165.54 134.775 165.658 135.108 165.658C135.306 165.658 135.502 165.616 135.682 165.535C135.863 165.454 136.024 165.335 136.156 165.188C136.287 165.04 136.386 164.866 136.446 164.678C136.506 164.489 136.526 164.29 136.503 164.093L131.327 117.65L126.342 119.459Z" fill="#263238"/>
<path d="M89.5507 124.073L82.269 162.868C82.2202 163.14 82.0769 163.386 81.8644 163.563C81.6519 163.74 81.3838 163.836 81.1075 163.834C80.9375 163.833 80.7695 163.796 80.615 163.725C80.4605 163.654 80.3231 163.551 80.212 163.422C80.1008 163.293 80.0186 163.142 79.9709 162.979C79.9232 162.816 79.9111 162.644 79.9354 162.476L85.3132 126.518L89.5507 124.073Z" fill="#263238"/>
<path d="M115.305 109.599L108.065 148.156C108.017 148.428 107.873 148.674 107.661 148.851C107.448 149.027 107.18 149.123 106.904 149.121C106.734 149.121 106.567 149.084 106.413 149.013C106.259 148.942 106.122 148.84 106.011 148.712C105.9 148.583 105.817 148.433 105.769 148.27C105.721 148.108 105.708 147.937 105.732 147.769L111.067 112.039L115.305 109.599Z" fill="#263238"/>
<path d="M113.205 106.661C111.535 105.922 110.092 104.754 109.021 103.276C107.951 101.797 107.292 100.061 107.111 98.2443C105.939 86.428 101.776 62.0847 87.6787 70.1885C70.2724 80.191 76.5041 109.239 79.0339 118.552C79.5962 120.65 80.6926 122.567 82.216 124.115C85.361 127.297 91.8685 132.739 102.942 137.374C104.301 137.941 105.812 138.031 107.228 137.628C112.727 136.064 127.095 131.264 134.276 122.089C134.682 121.569 134.867 120.909 134.789 120.254C134.712 119.598 134.379 119 133.862 118.589C130.961 116.287 124.4 111.657 113.205 106.661Z" fill="#3DBBC3"/>
<path opacity="0.5" d="M113.205 106.661C111.535 105.922 110.092 104.754 109.021 103.276C107.951 101.797 107.292 100.061 107.111 98.2443C105.939 86.428 101.776 62.0847 87.6787 70.1885C70.2724 80.191 76.5041 109.239 79.0339 118.552C79.5962 120.65 80.6926 122.567 82.216 124.115C85.361 127.297 91.8685 132.739 102.942 137.374C104.301 137.941 105.812 138.031 107.228 137.628C112.727 136.064 127.095 131.264 134.276 122.089C134.682 121.569 134.867 120.909 134.789 120.254C134.712 119.598 134.379 119 133.862 118.589C130.961 116.287 124.4 111.657 113.205 106.661Z" fill="black"/>
<path d="M134.795 120.429C134.826 121.03 134.638 121.622 134.265 122.094C133.883 122.588 133.475 123.06 133.056 123.526C132.822 123.781 132.589 124.03 132.345 124.274C132.106 124.518 131.862 124.757 131.613 124.995L130.86 125.695C130.6 125.924 130.33 126.152 130.07 126.374C126.002 129.784 121.054 132.383 116.668 134.255L115.851 134.6L115.766 134.632L115.013 134.94L114.881 134.987L114.18 135.263L114.021 135.327L113.369 135.571L113.178 135.64L112.573 135.862L112.356 135.942L111.799 136.138L111.571 136.218L111.041 136.393L110.791 136.478L110.325 136.631L110.06 136.722L109.641 136.854L109.354 136.944L108.994 137.061L108.686 137.151L108.384 137.247L108.007 137.358L107.816 137.411C107.636 137.469 107.456 137.517 107.286 137.565C105.87 137.968 104.359 137.878 103.001 137.31C91.9267 132.67 85.4193 127.233 82.2743 124.051C80.7508 122.503 79.6545 120.586 79.0921 118.488C76.5623 109.175 70.3307 80.1273 87.7369 70.1248C88.0445 69.9516 88.3468 69.7925 88.6438 69.6475L88.8401 69.552C89.1371 69.4141 89.4235 69.2869 89.7099 69.1755L89.7947 69.1437C90.0652 69.0429 90.3251 68.9527 90.6008 68.8785L90.7228 68.8414C91.0092 68.7618 91.2903 68.6982 91.5661 68.6451H91.6403C92.1897 68.5469 92.748 68.5078 93.3057 68.5284H93.3375C93.8754 68.5485 94.4093 68.6304 94.9285 68.7724V68.7724C92.1495 67.5473 88.7552 67.6003 85.3822 69.5361C67.9759 79.5386 74.2076 108.586 76.7374 117.899L77.1669 119.49C78.0301 122.723 79.9399 125.578 82.5978 127.61L87.1164 131.063C91.9698 134.763 97.28 137.822 102.916 140.164C104.278 140.737 105.795 140.831 107.217 140.429C112.711 138.864 127.089 134.064 134.265 124.889C134.575 124.499 134.76 124.024 134.795 123.526V123.526V120.424V120.429Z" fill="#3DBBC3"/>
<path opacity="0.6" d="M134.795 120.429C134.826 121.03 134.638 121.622 134.265 122.094C133.883 122.588 133.475 123.06 133.056 123.526C132.822 123.781 132.589 124.03 132.345 124.274C132.106 124.518 131.862 124.757 131.613 124.995L130.86 125.695C130.6 125.924 130.33 126.152 130.07 126.374C126.002 129.784 121.054 132.383 116.668 134.255L115.851 134.6L115.766 134.632L115.013 134.94L114.881 134.987L114.18 135.263L114.021 135.327L113.369 135.571L113.178 135.64L112.573 135.862L112.356 135.942L111.799 136.138L111.571 136.218L111.041 136.393L110.791 136.478L110.325 136.631L110.06 136.722L109.641 136.854L109.354 136.944L108.994 137.061L108.686 137.151L108.384 137.247L108.007 137.358L107.816 137.411C107.636 137.469 107.456 137.517 107.286 137.565C105.87 137.968 104.359 137.878 103.001 137.31C91.9267 132.67 85.4193 127.233 82.2743 124.051C80.7508 122.503 79.6545 120.586 79.0921 118.488C76.5623 109.175 70.3307 80.1273 87.7369 70.1248C88.0445 69.9516 88.3468 69.7925 88.6438 69.6475L88.8401 69.552C89.1371 69.4141 89.4235 69.2869 89.7099 69.1755L89.7947 69.1437C90.0652 69.0429 90.3251 68.9527 90.6008 68.8785L90.7228 68.8414C91.0092 68.7618 91.2903 68.6982 91.5661 68.6451H91.6403C92.1897 68.5469 92.748 68.5078 93.3057 68.5284H93.3375C93.8754 68.5485 94.4093 68.6304 94.9285 68.7724V68.7724C92.1495 67.5473 88.7552 67.6003 85.3822 69.5361C67.9759 79.5386 74.2076 108.586 76.7374 117.899L77.1669 119.49C78.0301 122.723 79.9399 125.578 82.5978 127.61L87.1164 131.063C91.9698 134.763 97.28 137.822 102.916 140.164C104.278 140.737 105.795 140.831 107.217 140.429C112.711 138.864 127.089 134.064 134.265 124.889C134.575 124.499 134.76 124.024 134.795 123.526V123.526V120.424V120.429Z" fill="black"/>
<path d="M144.395 153.666C143.207 146.088 141.685 133.974 140.815 126.814C140.758 126.344 140.679 125.877 140.576 125.414C140.118 123.438 139.26 121.577 138.056 119.945C136.851 118.313 135.324 116.945 133.57 115.926L115.718 105.319L103.6 98.9548C103.6 98.9548 100.375 108.3 104.13 114.017C107.249 118.79 121.017 124.666 125.111 126.655C129.205 128.644 129.29 129.18 129.205 131.837C129.121 134.494 129.115 137.878 134.143 148.474C135.591 151.518 136.599 153.778 137.299 155.544C139.808 155.738 142.309 155.076 144.395 153.666Z" fill="#3DBBC3"/>
<path opacity="0.7" d="M144.395 153.667C143.207 146.088 141.685 133.974 140.815 126.815C140.73 126.111 140.595 125.415 140.412 124.73C139.368 121.027 136.924 117.875 133.597 115.942L115.718 105.298L103.6 98.9338C103.6 98.9338 100.375 108.279 104.13 113.996C107.249 118.769 121.017 124.645 125.111 126.634C129.205 128.623 129.29 129.159 129.205 131.816C129.121 134.473 129.115 137.857 134.143 148.453C135.591 151.497 136.599 153.757 137.299 155.523C139.806 155.723 142.307 155.069 144.395 153.667V153.667Z" fill="black"/>
<path d="M138.874 161.69C138.866 162.005 138.941 162.316 139.091 162.592C139.803 163.794 140.71 164.87 141.775 165.774C144.183 167.943 152.154 176.434 154.954 171.163C154.954 171.163 146.718 163.276 145.631 160.025C145.092 157.93 144.679 155.805 144.395 153.661C142.303 155.062 139.798 155.712 137.288 155.507C138.831 159.352 138.9 160.598 138.874 161.69Z" fill="#FFA8A7"/>
<path d="M147.465 161.171L147.237 160.487C147.146 160.236 146.963 160.028 146.725 159.907C146.487 159.785 146.211 159.757 145.954 159.829L142.618 160.858C142.409 160.923 142.225 161.053 142.096 161.23C141.966 161.407 141.896 161.62 141.897 161.839V162.174C141.895 162.332 141.832 162.483 141.719 162.594C141.607 162.705 141.455 162.768 141.297 162.768V162.768C140.591 162.768 139.907 162.522 139.362 162.073L138.895 161.691V160.524C138.594 160.72 138.35 160.992 138.187 161.312C138.024 161.633 137.948 161.99 137.967 162.349C138.009 163.139 138.046 164.104 138.015 164.47C137.961 165.17 137.309 168.087 138.089 168.951C138.868 169.816 140.619 169.917 142.782 169.683C144.946 169.45 147.312 171.577 149.316 172.367C151.321 173.157 159.627 174.854 159.605 169.545C159.605 168.193 158.264 167.641 156.954 167.164C155.644 166.687 150.902 165.016 149.688 164.014C149.2 163.608 148.747 163.161 148.335 162.677C147.949 162.238 147.653 161.726 147.465 161.171V161.171Z" fill="#455A64"/>
<path d="M149.295 172.383C147.29 171.592 144.925 169.466 142.761 169.699C140.597 169.932 138.847 169.832 138.068 168.967C137.818 168.608 137.688 168.179 137.696 167.742C137.659 168.559 137.723 169.333 138.068 169.725C138.847 170.59 140.597 170.691 142.761 170.457C144.925 170.224 147.29 172.356 149.295 173.141C151.3 173.926 159.605 175.628 159.584 170.319C159.579 170.243 159.568 170.167 159.552 170.091C159.033 174.732 151.231 173.141 149.295 172.383Z" fill="#263238"/>
<path d="M128.182 162.863C126.989 155.289 125.472 143.176 124.597 136.011C124.139 132.246 122.28 128.792 119.389 126.337L97.9675 108.125L86.5171 107.907C86.5171 107.907 84.157 117.454 87.9013 123.166C91.0251 127.939 104.788 133.821 108.882 135.804C112.977 137.788 113.061 138.334 112.977 140.986C112.892 143.638 112.886 147.026 117.919 157.623C119.362 160.673 120.37 162.927 121.07 164.693C123.579 164.902 126.085 164.257 128.182 162.863V162.863Z" fill="#3DBBC3"/>
<path opacity="0.7" d="M128.182 162.863C126.989 155.289 125.472 143.176 124.597 136.011C124.139 132.246 122.28 128.792 119.389 126.337L97.9675 108.125L86.5171 107.907C86.5171 107.907 84.157 117.454 87.9013 123.166C91.0251 127.939 104.788 133.821 108.882 135.804C112.977 137.788 113.061 138.334 112.977 140.986C112.892 143.638 112.886 147.026 117.919 157.623C119.362 160.673 120.37 162.927 121.07 164.693C123.579 164.902 126.085 164.257 128.182 162.863V162.863Z" fill="black"/>
<path d="M122.65 170.203C122.65 170.521 122.433 171.46 122.873 171.794C123.435 172.213 123.971 173.555 125.562 174.976C127.964 177.146 130.505 172.473 129.412 169.233C128.876 167.138 128.465 165.012 128.182 162.868C126.087 164.268 123.581 164.919 121.07 164.714C122.618 168.543 122.682 169.116 122.65 170.203Z" fill="#FFA8A7"/>
<path d="M108.495 68.4064C110.134 68.1461 111.812 68.4755 113.23 69.3358C114.649 70.1962 115.717 71.5319 116.243 73.1053C117 75.3774 117.486 77.7308 117.691 80.1166C118.312 87.4621 118.482 91.1321 118.482 91.1321L125.859 94.4786C125.859 94.4786 121.876 94.6696 122.146 100.313L112.955 97.9949L108.495 68.4064Z" fill="#FFA8A7"/>
<path d="M118.752 86.6934C117.665 78.738 117.235 74.5747 116.302 72.6018C115.661 71.127 114.543 69.911 113.126 69.1499C111.71 68.3888 110.078 68.127 108.495 68.4067L111.274 90.2573L111.629 90.2255C114.09 89.9828 116.409 88.9566 118.243 87.298L118.752 86.6934Z" fill="#3DBBC3"/>
<path opacity="0.2" d="M118.752 86.6934C117.665 78.738 117.235 74.5747 116.302 72.6018C115.661 71.127 114.543 69.911 113.126 69.1499C111.71 68.3888 110.078 68.127 108.495 68.4067L111.274 90.2573L111.629 90.2255C114.09 89.9828 116.409 88.9566 118.243 87.298L118.752 86.6934Z" fill="black"/>
<path d="M118.482 91.1322C117.653 91.3869 116.903 91.8487 116.302 92.474C116.302 92.474 117.193 90.7821 118.423 90.2571L118.482 91.1322Z" fill="#F28F8F"/>
<path d="M90.7705 74.8506L99.0228 70.8518L105.822 68.5023C105.822 68.5023 111.274 66.768 112.664 74.0286C113.814 79.9951 113.963 102.668 113.963 102.668L113.841 105.145C113.841 105.145 110.696 113.959 99.4577 114.691C88.2195 115.423 86.0291 110.681 86.0291 110.681C86.0291 110.681 84.8836 80.6793 90.7705 74.8506Z" fill="#3DBBC3"/>
<path d="M116.774 50.6287C116.774 50.6287 119.325 57.1679 115.803 60.0478C112.282 62.9276 113.523 51.334 113.523 51.334L116.774 50.6287Z" fill="#263238"/>
<path d="M138.879 88.0134L60.4873 133.274V143.08V190.733C60.491 190.922 60.549 191.106 60.6543 191.263C60.7596 191.42 60.9078 191.543 61.0813 191.618C61.5296 191.847 62.0258 191.967 62.5292 191.967C63.0326 191.967 63.5288 191.847 63.977 191.618C64.1495 191.542 64.2966 191.419 64.401 191.262C64.5053 191.105 64.5625 190.921 64.5657 190.733V190.733V145.44L107.068 169.959V218.078C107.073 218.266 107.132 218.449 107.237 218.605C107.342 218.761 107.49 218.883 107.662 218.958C108.111 219.187 108.607 219.307 109.11 219.307C109.614 219.307 110.11 219.187 110.558 218.958C110.731 218.883 110.878 218.761 110.984 218.605C111.089 218.449 111.147 218.266 111.152 218.078V218.078V169.959L183.402 128.246V173.857C183.408 174.045 183.469 174.228 183.576 174.383C183.683 174.539 183.833 174.66 184.007 174.732C184.455 174.961 184.952 175.08 185.455 175.08C185.958 175.08 186.455 174.961 186.903 174.732C187.076 174.658 187.224 174.535 187.329 174.379C187.435 174.223 187.493 174.04 187.497 173.851V173.851V116.09L138.879 88.0134Z" fill="#455A64"/>
<path d="M110.558 218.97C110.11 219.199 109.614 219.318 109.11 219.318C108.607 219.318 108.111 219.199 107.662 218.97C106.862 218.508 106.862 217.76 107.662 217.299C108.111 217.07 108.607 216.95 109.11 216.95C109.614 216.95 110.11 217.07 110.558 217.299C111.359 217.76 111.359 218.508 110.558 218.97Z" fill="#455A64"/>
<path d="M111.163 168.787H107.068V218.089H111.163V168.787Z" fill="#37474F"/>
<path d="M62.5397 191.969C63.6703 191.969 64.5869 191.439 64.5869 190.786C64.5869 190.133 63.6703 189.603 62.5397 189.603C61.4091 189.603 60.4926 190.133 60.4926 190.786C60.4926 191.439 61.4091 191.969 62.5397 191.969Z" fill="#455A64"/>
<path d="M64.5869 141.442H60.4926V190.743H64.5869V141.442Z" fill="#263238"/>
<path d="M186.903 174.732C186.455 174.961 185.958 175.081 185.455 175.081C184.952 175.081 184.455 174.961 184.007 174.732C183.206 174.271 183.206 173.523 184.007 173.062C184.455 172.833 184.952 172.713 185.455 172.713C185.958 172.713 186.455 172.833 186.903 173.062C187.704 173.528 187.704 174.276 186.903 174.732Z" fill="#455A64"/>
<path d="M187.507 124.555H183.413V173.857H187.507V124.555Z" fill="#37474F"/>
<path d="M136.858 137.427C136.456 137.631 136.01 137.737 135.559 137.737C135.108 137.737 134.662 137.631 134.26 137.427C133.544 137.013 133.544 136.366 134.26 135.931C134.662 135.725 135.107 135.617 135.559 135.617C136.011 135.617 136.456 135.725 136.858 135.931C137.553 136.345 137.553 137.013 136.858 137.427Z" fill="#455A64"/>
<path d="M137.378 95.4973H133.703V136.642H137.378V95.4973Z" fill="#455A64"/>
<path d="M60.4873 133.274V143.08L109.116 171.157V161.346L60.4873 133.274Z" fill="#263238"/>
<path d="M187.507 116.091L109.115 161.346V171.157L187.507 125.897V116.091Z" fill="#37474F"/>
<path d="M138.879 88.0139L60.4873 133.274L109.116 161.346L187.507 116.091L138.879 88.0139Z" fill="#455A64"/>
<path d="M99.5532 118.557L117.384 128.851L147.025 111.705L129.2 101.204L99.5532 118.557Z" fill="#EBEBEB"/>
<path d="M115.464 115.624L122.152 111.763L117.962 109.344L111.274 113.205L115.464 115.624Z" fill="#E0E0E0"/>
<path d="M118.142 126.279L109.131 120.975L126.739 110.315L118.142 126.279Z" fill="#E0E0E0"/>
<path d="M123.186 93.2058L130.319 96.5524C132.451 97.09 134.552 97.7397 136.615 98.4988C136.615 98.4988 141.579 100.525 141.807 101.856C142.035 103.187 138.094 106.396 134.61 104.837C133.699 104.349 132.724 103.991 131.714 103.776C130.786 103.675 128.002 103.245 126.013 101.331L117.692 99.167C117.692 99.167 117.278 94.0332 123.186 93.2058Z" fill="#FFA8A7"/>
<path d="M127.805 103.134C128.627 104.02 130.987 106.253 131.518 106.9C132.048 107.547 133.247 105.887 131.12 103.41C129.279 102.736 127.547 101.794 125.981 100.615C126.524 101.5 127.134 102.342 127.805 103.134V103.134Z" fill="#FFA8A7"/>
<path d="M107.487 60.6052H99.0228V70.8517H107.487V60.6052Z" fill="#FFA8A7"/>
<path d="M107.493 70.8517C105.766 70.2073 104.188 69.2194 102.855 67.9477C101.521 66.676 100.459 65.147 99.7335 63.4532V60.6052H107.514L107.493 70.8517Z" fill="#F28F8F"/>
<path d="M110.341 47.0759C110.341 47.0759 118.041 48.0041 116.275 61.1622C115.459 67.2453 113.83 70.3214 109.142 69.8017C103.838 69.2077 96.4824 65.0815 97.6227 54.6547C98.763 44.2279 110.341 47.0759 110.341 47.0759Z" fill="#FFA8A7"/>
<path d="M110.77 58.8074L110.495 63.3525L113.205 62.7002L110.77 58.8074Z" fill="#F28F8F"/>
<path d="M106.74 58.399C106.728 58.5823 106.772 58.7648 106.864 58.9234C106.957 59.0821 107.094 59.2097 107.259 59.2901C107.425 59.3705 107.61 59.4002 107.792 59.3753C107.974 59.3504 108.144 59.2721 108.282 59.1502C108.419 59.0284 108.517 58.8686 108.564 58.6909C108.61 58.5132 108.603 58.3258 108.543 58.1522C108.483 57.9787 108.373 57.8268 108.226 57.7159C108.08 57.605 107.904 57.54 107.721 57.5292C107.475 57.5147 107.234 57.5981 107.05 57.7612C106.866 57.9243 106.755 58.1536 106.74 58.399V58.399Z" fill="#263238"/>
<path d="M112.865 58.1283C112.854 58.3114 112.897 58.4937 112.99 58.6521C113.082 58.8106 113.219 58.9381 113.384 59.0186C113.549 59.0991 113.734 59.129 113.916 59.1045C114.097 59.08 114.268 59.0022 114.405 58.8809C114.543 58.7596 114.641 58.6002 114.689 58.423C114.736 58.2457 114.729 58.0585 114.67 57.8849C114.611 57.7113 114.501 57.5592 114.356 57.4477C114.21 57.3362 114.035 57.2704 113.852 57.2585C113.73 57.2506 113.607 57.2669 113.492 57.3064C113.376 57.3458 113.269 57.4077 113.178 57.4886C113.086 57.5694 113.011 57.6675 112.958 57.7773C112.904 57.8871 112.873 58.0064 112.865 58.1283V58.1283Z" fill="#263238"/>
<path d="M115.04 56.325L113.295 55.137C113.295 55.137 114.032 54.4582 114.7 54.9355C114.89 55.106 115.024 55.3299 115.085 55.5778C115.145 55.8257 115.129 56.0861 115.04 56.325V56.325Z" fill="#263238"/>
<path d="M107.381 56.1185L105.498 57.0625C105.498 57.0625 105.265 56.0867 106.002 55.7419C106.243 55.658 106.504 55.649 106.75 55.7162C106.996 55.7834 107.216 55.9237 107.381 56.1185V56.1185Z" fill="#263238"/>
<path d="M110.627 65.1977C109.567 65.2081 108.535 64.8626 107.694 64.2166C107.694 64.2166 107.397 65.7758 108.691 66.1524C109.985 66.5289 110.627 65.1977 110.627 65.1977Z" fill="#F28F8F"/>
<path d="M98.9328 58.7007C98.9328 58.7007 100.115 61.1669 100.847 61.082C101.579 60.9972 100.847 51.6364 102.364 51.5781C103.881 51.5197 111.041 55.0731 117.368 50.4855C119.802 48.7248 120.285 44.2273 118.826 44.6516C117.368 45.0759 115.4 46.3541 112.743 46.1737C110.086 45.9934 100.784 41.6763 98.4767 47.7648C98.4767 47.7648 93.3322 47.3458 95.2627 57.5605C95.7454 60.1009 97.2622 66.3909 99.023 67.0114L98.9328 58.7007Z" fill="#263238"/>
<path d="M99.3517 60.9497C99.3809 60.1783 99.2378 59.4101 98.9327 58.701C98.78 58.2644 98.5037 57.8816 98.1374 57.5991C97.7712 57.3167 97.3307 57.1467 96.8696 57.1099C94.4936 57.0463 94.1701 59.3374 94.2179 60.1489C94.3027 62.2703 96.037 64.6039 99.2615 64.694L99.3517 60.9497Z" fill="#FFA8A7"/>
<path d="M100.084 106.799L106.151 111.62C107.188 111.718 108.217 111.895 109.227 112.151C110.388 112.495 113.433 113.614 114.239 113.789C115.045 113.964 114.005 115.38 111.895 114.85C111.895 114.85 116.318 117.878 116.259 119.225C116.201 120.573 111.661 122.874 108.596 120.615C107.806 119.955 106.93 119.405 105.992 118.982C105.101 118.69 102.486 117.677 100.932 115.386L95.6285 112.623C95.6285 112.623 94.1329 106.359 100.084 106.799Z" fill="#FFA8A7"/>
<path d="M93.4648 73.5457C93.4648 73.5457 97.0023 76.2876 94.8278 84.8104C92.6534 93.3332 91.4919 100.679 91.4919 100.679L100.084 106.799C98.9074 107.314 97.8814 108.12 97.1021 109.14C96.3228 110.161 95.8158 111.363 95.6287 112.633C95.6287 112.633 82.0834 107.329 81.8076 103.887C81.5318 100.445 84.6344 85.6696 85.1064 82.9489C85.5784 80.2281 87.9862 74.8344 93.4648 73.5457Z" fill="#FFA8A7"/>
<path d="M91.4918 100.679C90.4207 100.469 89.3181 100.479 88.2513 100.71C89.2681 100.158 90.4092 99.8754 91.5661 99.8884L91.4918 100.679Z" fill="#F28F8F"/>
<path d="M151.178 92.0658L148.075 112.352C148.08 112.364 148.08 112.377 148.075 112.389L117.235 130.246C117.228 130.25 117.219 130.252 117.21 130.251C117.202 130.25 117.194 130.248 117.187 130.243C117.18 130.238 117.174 130.231 117.17 130.223C117.167 130.215 117.165 130.207 117.166 130.198L120.173 110.522C120.237 110.103 120.392 109.702 120.626 109.349C120.861 108.995 121.17 108.697 121.531 108.475L149.778 91.1535C149.926 91.0563 150.099 91.0044 150.277 91.0042C150.454 91.0039 150.628 91.0553 150.776 91.1521C150.925 91.2488 151.042 91.3868 151.113 91.549C151.184 91.7113 151.207 91.8909 151.178 92.0658Z" fill="#FAFAFA"/>
<path d="M117.235 130.246L100.794 120.699C100.415 120.479 100.101 120.164 99.8821 119.784C99.6634 119.404 99.5481 118.974 99.548 118.535V118.535L117.379 128.83L117.235 130.246Z" fill="#E0E0E0"/>
<path d="M133.342 111.62C133.342 113.073 134.36 113.656 135.612 112.935C136.274 112.504 136.825 111.923 137.22 111.24C137.616 110.556 137.844 109.789 137.887 109C137.887 107.547 136.869 106.963 135.612 107.685C134.952 108.117 134.402 108.698 134.008 109.382C133.614 110.065 133.386 110.832 133.342 111.62V111.62Z" fill="#E0E0E0"/>
<path d="M99.2934 50.7403C99.2934 50.7403 97.8933 48.6719 98.763 48.0036C99.6328 47.3354 100.264 49.4621 99.2934 50.7403Z" fill="#263238"/>
<path d="M99.5267 51.1593C99.5267 51.1593 97.0552 50.8517 97.1136 49.7698C97.1719 48.6879 99.2032 49.6001 99.5267 51.1593Z" fill="#263238"/>
<path d="M99.0228 70.8513C99.0228 70.8513 100.842 75.6245 105.032 75.0305C109.222 74.4365 107.493 70.8513 107.493 70.8513H99.0228Z" fill="#FFA8A7"/>
<path d="M93.4649 73.5457C93.4649 73.5457 96.2227 74.8662 95.7984 80.4138C95.3741 85.9613 93.1838 97.1412 93.1838 97.1412C93.1838 97.1412 83.3139 101.14 82.3698 95.5024C82.1312 94.0439 84.6185 80.5569 86.7453 77.7036C87.526 76.5923 88.5241 75.6508 89.679 74.9361C90.834 74.2215 92.1219 73.7484 93.4649 73.5457V73.5457Z" fill="#3DBBC3"/>
<path opacity="0.2" d="M93.4649 73.5457C93.4649 73.5457 96.2227 74.8662 95.7984 80.4138C95.3741 85.9613 93.1838 97.1412 93.1838 97.1412C93.1838 97.1412 83.3139 101.14 82.3698 95.5024C82.1312 94.0439 84.6185 80.5569 86.7453 77.7036C87.526 76.5923 88.5241 75.6508 89.679 74.9361C90.834 74.2215 92.1219 73.7484 93.4649 73.5457V73.5457Z" fill="black"/>
<path d="M122.873 170.489C123.243 171.051 123.811 171.452 124.464 171.614C125.063 171.709 123.854 170.155 125.297 169.53C126.739 168.904 130.043 168.05 130.34 169.291L130.706 170.84C131.051 172.304 131.751 173.66 132.743 174.791C133.706 175.956 134.802 177.005 136.01 177.914C137.898 179.129 141.001 182.072 137.018 184.581C133.035 187.09 128.145 184.968 127.185 182.12C126.225 179.272 125.212 178.445 124.703 177.973C123.63 177.22 122.865 176.105 122.549 174.833C122.291 173.573 122.114 172.297 122.019 171.015C121.999 170.756 122.05 170.496 122.166 170.263C122.281 170.031 122.458 169.834 122.677 169.694V169.694L122.873 170.489Z" fill="#455A64"/>
<path d="M137.039 184.571C133.056 187.074 128.166 184.958 127.206 182.11C126.246 179.262 125.233 178.434 124.724 177.962C123.825 177.312 123.134 176.415 122.735 175.38C122.735 175.454 122.735 175.539 122.735 175.613C122.889 178.079 124.4 178.657 124.91 179.135C125.419 179.612 126.257 180.386 127.217 183.24C128.177 186.093 133.226 187.864 137.203 185.361C139.139 184.146 139.399 182.826 138.943 181.648C139.038 182.608 138.55 183.621 137.039 184.571Z" fill="#263238"/>
<path d="M117.904 146.708L105.217 154.048L89.2007 144.799L101.929 137.459C102.096 137.365 102.284 137.316 102.475 137.316C102.667 137.316 102.855 137.365 103.022 137.459L117.919 146.061C117.975 146.096 118.02 146.144 118.051 146.202C118.082 146.259 118.097 146.324 118.095 146.389C118.094 146.454 118.075 146.518 118.042 146.574C118.008 146.63 117.96 146.676 117.904 146.708V146.708Z" fill="#3DBBC3"/>
<path opacity="0.7" d="M117.904 146.708L105.217 154.048L89.2007 144.799L101.929 137.459C102.096 137.365 102.284 137.316 102.475 137.316C102.667 137.316 102.855 137.365 103.022 137.459L117.919 146.061C117.975 146.096 118.02 146.144 118.051 146.202C118.082 146.259 118.097 146.324 118.095 146.389C118.094 146.454 118.075 146.518 118.042 146.574C118.008 146.63 117.96 146.676 117.904 146.708V146.708Z" fill="black"/>
<path d="M117.023 146.443L105.217 153.258L90.3092 144.655L102.141 137.824C102.295 137.733 102.47 137.685 102.648 137.685C102.826 137.685 103.001 137.733 103.154 137.824L117.023 145.827C117.077 145.859 117.122 145.903 117.153 145.957C117.184 146.011 117.201 146.073 117.201 146.135C117.201 146.197 117.184 146.259 117.153 146.313C117.122 146.367 117.077 146.411 117.023 146.443V146.443Z" fill="white"/>
<path d="M105.217 153.259V151.927L117.203 145.011V146.141L105.217 153.259Z" fill="white"/>
<path d="M105.217 153.258V151.927L90.3092 143.324V144.656L105.217 153.258Z" fill="#E0E0E0"/>
<path d="M117.904 144.603L105.217 151.927L89.2007 142.683L101.929 135.343C102.096 135.249 102.284 135.199 102.475 135.199C102.667 135.199 102.855 135.249 103.022 135.343L117.904 143.972C117.956 144.006 117.999 144.052 118.029 144.108C118.059 144.163 118.075 144.224 118.075 144.287C118.075 144.35 118.059 144.411 118.029 144.467C117.999 144.522 117.956 144.568 117.904 144.603V144.603Z" fill="#3DBBC3"/>
<path opacity="0.5" d="M117.904 144.603L105.217 151.927L89.2007 142.683L101.929 135.343C102.096 135.249 102.284 135.199 102.475 135.199C102.667 135.199 102.855 135.249 103.022 135.343L117.904 143.972C117.956 144.006 117.999 144.052 118.029 144.108C118.059 144.163 118.075 144.224 118.075 144.287C118.075 144.35 118.059 144.411 118.029 144.467C117.999 144.522 117.956 144.568 117.904 144.603V144.603Z" fill="black"/>
<path d="M103.557 153.078C103.521 153.096 103.481 153.105 103.441 153.105C103.4 153.105 103.36 153.096 103.324 153.078C103.278 153.053 103.239 153.016 103.212 152.971C103.185 152.927 103.171 152.875 103.17 152.823V151.609C103.173 151.337 103.245 151.071 103.38 150.835C103.514 150.599 103.707 150.402 103.939 150.261L103.987 150.23C104.009 150.218 104.034 150.212 104.059 150.212C104.084 150.212 104.108 150.22 104.13 150.232C104.151 150.245 104.169 150.264 104.181 150.285C104.193 150.307 104.199 150.332 104.199 150.357C104.199 150.423 104.225 150.486 104.272 150.533C104.319 150.58 104.382 150.606 104.448 150.606C104.515 150.606 104.578 150.58 104.625 150.533C104.671 150.486 104.698 150.423 104.698 150.357C104.699 150.244 104.669 150.132 104.612 150.034C104.555 149.936 104.473 149.855 104.374 149.8C104.277 149.742 104.166 149.711 104.053 149.711C103.94 149.711 103.829 149.742 103.732 149.8L103.685 149.827C103.376 150.01 103.121 150.27 102.943 150.581C102.766 150.892 102.672 151.245 102.672 151.603V152.807C102.672 152.95 102.71 153.089 102.783 153.212C102.856 153.334 102.96 153.434 103.085 153.502C103.2 153.563 103.327 153.594 103.457 153.592C103.613 153.593 103.767 153.547 103.897 153.46C103.945 153.427 103.979 153.378 103.992 153.322L103.557 153.078Z" fill="white"/>
<path d="M101.187 151.709C101.151 151.727 101.111 151.737 101.07 151.737C101.03 151.737 100.99 151.727 100.953 151.709C100.907 151.685 100.869 151.648 100.842 151.603C100.815 151.558 100.8 151.507 100.8 151.455V150.251C100.801 149.978 100.873 149.711 101.007 149.474C101.142 149.237 101.335 149.039 101.569 148.898H101.616C101.638 148.886 101.663 148.88 101.688 148.88C101.713 148.88 101.738 148.886 101.76 148.898C101.78 148.911 101.798 148.929 101.81 148.95C101.822 148.972 101.828 148.996 101.828 149.02C101.828 149.086 101.855 149.15 101.901 149.197C101.948 149.243 102.012 149.27 102.078 149.27C102.144 149.27 102.207 149.243 102.254 149.197C102.301 149.15 102.327 149.086 102.327 149.02C102.323 148.912 102.292 148.806 102.235 148.713C102.178 148.62 102.099 148.543 102.003 148.49C101.907 148.432 101.796 148.401 101.683 148.401C101.569 148.401 101.459 148.432 101.362 148.49L101.314 148.517C101.006 148.7 100.75 148.959 100.573 149.271C100.395 149.582 100.301 149.935 100.301 150.293V151.497C100.301 151.639 100.339 151.779 100.412 151.901C100.485 152.024 100.59 152.124 100.715 152.192C100.829 152.253 100.957 152.284 101.086 152.282C101.243 152.283 101.396 152.237 101.526 152.149C101.574 152.117 101.608 152.068 101.622 152.012L101.187 151.709Z" fill="white"/>
<path d="M98.816 150.336C98.7795 150.353 98.7396 150.362 98.6993 150.362C98.659 150.362 98.6192 150.353 98.5826 150.336C98.5365 150.311 98.4979 150.274 98.4708 150.23C98.4438 150.185 98.4293 150.134 98.4288 150.081V148.877C98.4305 148.605 98.5021 148.338 98.6368 148.101C98.7714 147.864 98.9646 147.666 99.1978 147.525L99.2456 147.499C99.2675 147.486 99.2921 147.48 99.3172 147.48C99.3422 147.48 99.3668 147.486 99.3888 147.499C99.4098 147.511 99.4271 147.529 99.4392 147.55C99.4513 147.572 99.4576 147.596 99.4577 147.62C99.4577 147.687 99.484 147.75 99.5307 147.797C99.5775 147.843 99.6409 147.87 99.707 147.87C99.7731 147.87 99.8365 147.843 99.8832 147.797C99.93 147.75 99.9563 147.687 99.9563 147.62C99.9526 147.512 99.921 147.406 99.8643 147.313C99.8076 147.22 99.7278 147.143 99.6327 147.09C99.5359 147.032 99.425 147.001 99.3119 147.001C99.1988 147.001 99.0878 147.032 98.991 147.09L98.9433 147.117C98.6349 147.3 98.3794 147.56 98.2018 147.871C98.0242 148.183 97.9307 148.535 97.9303 148.893V150.097C97.9303 150.24 97.9687 150.379 98.0415 150.502C98.1144 150.624 98.2188 150.724 98.344 150.792C98.4582 150.853 98.5859 150.884 98.7152 150.882C98.8719 150.883 99.0253 150.837 99.1554 150.75C99.2032 150.717 99.2372 150.668 99.2509 150.612L98.816 150.336Z" fill="white"/>
<path d="M96.4454 148.973C96.4089 148.99 96.369 148.999 96.3287 148.999C96.2884 148.999 96.2486 148.99 96.212 148.973C96.1659 148.948 96.1273 148.911 96.1002 148.866C96.0732 148.822 96.0587 148.77 96.0582 148.718V147.514C96.0599 147.242 96.1315 146.974 96.2662 146.738C96.4008 146.501 96.594 146.302 96.8272 146.162L96.875 146.135C96.8969 146.123 96.9215 146.117 96.9466 146.117C96.9716 146.117 96.9962 146.123 97.0182 146.135C97.0391 146.148 97.0565 146.166 97.0686 146.187C97.0807 146.209 97.087 146.233 97.0871 146.257C97.0871 146.323 97.1134 146.387 97.1601 146.433C97.2069 146.48 97.2703 146.506 97.3364 146.506C97.4025 146.506 97.4659 146.48 97.5126 146.433C97.5594 146.387 97.5856 146.323 97.5856 146.257C97.582 146.148 97.5504 146.042 97.4937 145.949C97.437 145.857 97.3572 145.78 97.2621 145.727C97.1653 145.668 97.0544 145.637 96.9413 145.637C96.8282 145.637 96.7172 145.668 96.6204 145.727L96.5727 145.753C96.2643 145.936 96.0088 146.196 95.8312 146.508C95.6536 146.819 95.5601 147.172 95.5597 147.53V148.734C95.5597 148.876 95.5981 149.016 95.6709 149.138C95.7437 149.261 95.8482 149.361 95.9734 149.429C96.0876 149.49 96.2153 149.521 96.3446 149.519C96.5013 149.52 96.6547 149.474 96.7848 149.386C96.8326 149.354 96.8666 149.305 96.8803 149.248L96.4454 148.973Z" fill="white"/>
<path d="M94.0747 147.604C94.0381 147.621 93.9983 147.63 93.958 147.63C93.9177 147.63 93.8778 147.621 93.8413 147.604C93.7952 147.58 93.7566 147.543 93.7295 147.498C93.7025 147.453 93.6879 147.402 93.6875 147.35V146.146C93.6892 145.873 93.7608 145.606 93.8954 145.369C94.0301 145.132 94.2233 144.934 94.4565 144.793H94.5042C94.5262 144.781 94.5508 144.775 94.5758 144.775C94.6009 144.775 94.6255 144.781 94.6474 144.793C94.6684 144.806 94.6858 144.824 94.6979 144.845C94.7099 144.867 94.7163 144.891 94.7164 144.915C94.7164 144.982 94.7426 145.045 94.7894 145.092C94.8361 145.138 94.8995 145.165 94.9657 145.165C95.0318 145.165 95.0952 145.138 95.1419 145.092C95.1887 145.045 95.2149 144.982 95.2149 144.915C95.2113 144.807 95.1796 144.701 95.1229 144.608C95.0662 144.515 94.9865 144.438 94.8914 144.385C94.7946 144.327 94.6836 144.296 94.5705 144.296C94.4574 144.296 94.3465 144.327 94.2497 144.385L94.2019 144.412C93.8936 144.595 93.6381 144.854 93.4605 145.166C93.2829 145.477 93.1893 145.83 93.189 146.188V147.392C93.189 147.534 93.2274 147.674 93.3002 147.796C93.373 147.919 93.4775 148.019 93.6026 148.087C93.7177 148.145 93.8448 148.176 93.9739 148.177C94.1306 148.178 94.284 148.132 94.4141 148.044C94.4619 148.012 94.4959 147.963 94.5095 147.907L94.0747 147.604Z" fill="white"/>
<path d="M91.7041 146.236C91.6675 146.253 91.6277 146.262 91.5874 146.262C91.5471 146.262 91.5072 146.253 91.4707 146.236C91.4246 146.212 91.386 146.175 91.3589 146.13C91.3319 146.085 91.3173 146.034 91.3169 145.982V144.767C91.3186 144.495 91.3902 144.227 91.5248 143.991C91.6595 143.754 91.8527 143.556 92.0859 143.415L92.1336 143.388C92.1556 143.376 92.1802 143.37 92.2052 143.37C92.2303 143.37 92.2549 143.376 92.2768 143.388C92.2986 143.4 92.3165 143.418 92.3287 143.439C92.3409 143.461 92.3468 143.485 92.3458 143.51C92.3458 143.576 92.372 143.64 92.4188 143.686C92.4655 143.733 92.5289 143.76 92.595 143.76C92.6612 143.76 92.7246 143.733 92.7713 143.686C92.8181 143.64 92.8443 143.576 92.8443 143.51C92.8388 143.4 92.8051 143.293 92.7465 143.199C92.6879 143.106 92.6064 143.029 92.5097 142.976C92.4129 142.923 92.3042 142.895 92.1938 142.896C92.0835 142.896 91.9751 142.925 91.8791 142.98L91.8313 143.012C91.523 143.195 91.2675 143.455 91.0899 143.766C90.9123 144.078 90.8187 144.43 90.8184 144.788V145.992C90.8184 146.135 90.8568 146.274 90.9296 146.397C91.0024 146.519 91.1069 146.619 91.232 146.687C91.3471 146.745 91.4742 146.776 91.6033 146.777C91.76 146.778 91.9134 146.732 92.0435 146.645C92.0913 146.612 92.1253 146.563 92.1389 146.507L91.7041 146.236Z" fill="white"/>
<path d="M119.537 141.293L105.822 149.211L87.9702 138.906L101.691 130.988L119.537 141.293Z" fill="#E6E6E6"/>
<path d="M120.327 141.034L105.997 147.78L89.0681 136.011L103.404 129.27L120.327 141.034Z" fill="#FAFAFA"/>
<path d="M88.331 119.973H76.6897L77.7504 132.293C77.8193 132.683 77.9816 133.051 78.2236 133.365C78.4656 133.679 78.78 133.93 79.1399 134.096C80.1881 134.63 81.3475 134.908 82.5236 134.908C83.6997 134.908 84.8591 134.63 85.9073 134.096C86.2665 133.929 86.5802 133.678 86.822 133.364C87.0638 133.05 87.2267 132.683 87.2968 132.293V132.293L88.331 119.973Z" fill="#3DBBC3"/>
<path d="M89.0734 119.299V118.323H88.8454C88.469 117.597 87.8783 117.005 87.1536 116.626C84.5919 115.146 80.434 115.146 77.8723 116.626C77.1463 117.003 76.5552 117.596 76.1805 118.323H75.9471V119.31C75.9471 120.275 76.5889 121.246 77.8723 121.988C80.434 123.468 84.5919 123.468 87.1536 121.988C88.437 121.246 89.0787 120.27 89.0734 119.299Z" fill="#E0E0E0"/>
<path d="M87.1535 121.06C84.5919 122.54 80.4339 122.54 77.8723 121.06C75.3107 119.581 75.3054 117.183 77.8723 115.704C80.4392 114.224 84.5919 114.219 87.1535 115.704C89.7151 117.189 89.7151 119.575 87.1535 121.06Z" fill="#EBEBEB"/>
<path d="M87.7741 117.984V117.204H87.5885C87.2865 116.623 86.8123 116.149 86.2308 115.847C85.0803 115.263 83.8084 114.959 82.5183 114.959C81.2282 114.959 79.9563 115.263 78.8058 115.847C78.2225 116.146 77.7478 116.621 77.4481 117.204H77.2625V117.984C77.2625 118.764 77.7928 119.543 78.8058 120.132C79.9563 120.716 81.2282 121.02 82.5183 121.02C83.8084 121.02 85.0803 120.716 86.2308 120.132C87.2596 119.533 87.7741 118.753 87.7741 117.984Z" fill="#E0E0E0"/>
<path d="M86.2308 119.384C85.0803 119.968 83.8084 120.272 82.5183 120.272C81.2282 120.272 79.9563 119.968 78.8058 119.384C76.748 118.202 76.748 116.276 78.8058 115.094C79.9563 114.51 81.2282 114.206 82.5183 114.206C83.8084 114.206 85.0803 114.51 86.2308 115.094C88.2832 116.276 88.2832 118.202 86.2308 119.384Z" fill="#F5F5F5"/>
<path d="M85.3715 118.759C84.4847 119.209 83.5045 119.443 82.5102 119.443C81.516 119.443 80.5358 119.209 79.649 118.759C78.1163 117.879 78.0579 116.468 79.4899 115.577C79.5404 115.539 79.5936 115.506 79.649 115.476C79.9962 115.278 80.3668 115.125 80.7521 115.02C82.2944 114.585 83.944 114.748 85.3715 115.476C86.9573 116.394 86.9573 117.847 85.3715 118.759Z" fill="#F0F0F0"/>
<path d="M79.6491 115.926C80.536 115.474 81.5174 115.238 82.513 115.238C83.5086 115.238 84.49 115.474 85.3769 115.926C85.664 116.06 85.9173 116.257 86.1183 116.502C86.3193 116.747 86.4629 117.034 86.5384 117.342C86.6604 116.668 86.2679 115.968 85.3769 115.454C84.4886 115.006 83.5077 114.773 82.513 114.773C81.5183 114.773 80.5374 115.006 79.6491 115.454C78.7528 115.984 78.3656 116.668 78.4823 117.342C78.5584 117.034 78.7027 116.746 78.9047 116.501C79.1066 116.256 79.361 116.06 79.6491 115.926Z" fill="#E0E0E0"/>
<path d="M81.8128 116.08L80.6407 116.828L79.4951 116.006V115.555C79.5457 115.518 79.5989 115.484 79.6542 115.454C80.0014 115.257 80.372 115.104 80.7574 114.998V115.332L81.8128 116.08Z" fill="#E0E0E0"/>
<path d="M220.05 43.7339L154.031 5.59078C153.753 5.38576 153.417 5.27515 153.071 5.27515C152.726 5.27515 152.389 5.38576 152.111 5.59078L149.826 7.18184L151.385 9.11234V62.3335C151.385 64.2852 152.573 66.5763 154.037 67.3931L219.403 105.133L219.525 107.207L221.933 105.557C222.209 105.298 222.422 104.978 222.557 104.623C222.691 104.269 222.742 103.888 222.707 103.51V48.767C222.702 46.8153 221.514 44.5507 220.05 43.7339Z" fill="#3DBBC3"/>
<path opacity="0.3" d="M220.05 43.7339L154.031 5.59078C153.753 5.38576 153.417 5.27515 153.071 5.27515C152.726 5.27515 152.389 5.38576 152.111 5.59078L149.826 7.18184L151.385 9.11234V62.3335C151.385 64.2852 152.573 66.5763 154.037 67.3931L219.403 105.133L219.525 107.207L221.933 105.557C222.209 105.298 222.422 104.978 222.557 104.623C222.691 104.269 222.742 103.888 222.707 103.51V48.767C222.702 46.8153 221.514 44.5507 220.05 43.7339Z" fill="black"/>
<path d="M217.801 107.059L151.783 68.9425C150.324 68.0992 149.131 65.8346 149.131 63.8829V9.13962C149.131 7.19322 150.319 6.29692 151.783 7.14018L217.801 45.2568C219.265 46.1001 220.453 48.3647 220.453 50.3164V105.054C220.453 107.006 219.265 107.908 217.801 107.059Z" fill="#3DBBC3"/>
<path d="M217.801 107.059L151.783 68.9425C150.324 68.0992 149.131 65.8346 149.131 63.8829V9.13962C149.131 7.19322 150.319 6.29692 151.783 7.14018L217.801 45.2568C219.265 46.1001 220.453 48.3647 220.453 50.3164V105.054C220.453 107.006 219.265 107.908 217.801 107.059Z" fill="#3DBBC3"/>
<path d="M217.801 45.2568L151.783 7.14018C150.324 6.29692 149.131 7.19322 149.131 9.13962V11.7914L220.448 52.9629V50.3111C220.453 48.3647 219.265 46.1001 217.801 45.2568Z" fill="#455A64"/>
<path d="M150.732 7.35189C151.011 7.36498 151.281 7.44896 151.517 7.59585L217.536 45.7125C218.83 46.4603 219.923 48.5658 219.923 50.316V105.054C219.923 106.115 219.504 106.847 218.862 106.847C218.581 106.833 218.309 106.747 218.072 106.597L152.048 68.4806C150.759 67.7381 149.666 65.6273 149.666 63.8825V9.13919C149.666 8.05196 150.085 7.35189 150.727 7.35189H150.732ZM150.727 6.82153C149.788 6.82153 149.136 7.68601 149.136 9.13919V63.8878C149.136 65.8395 150.324 68.1041 151.788 68.9473L217.801 107.059C218.12 107.257 218.486 107.367 218.862 107.377C219.801 107.377 220.453 106.507 220.453 105.054V50.316C220.453 48.3643 219.265 46.0731 217.801 45.2564L151.783 7.13975C151.464 6.94021 151.098 6.83028 150.722 6.82153H150.727Z" fill="#3DBBC3"/>
<path d="M179.743 35.7786C179.644 35.7805 179.547 35.7548 179.462 35.7043L154.328 21.215C154.21 21.1353 154.127 21.0138 154.095 20.8751C154.064 20.7364 154.086 20.5908 154.157 20.4677C154.228 20.3445 154.344 20.253 154.48 20.2116C154.616 20.1702 154.763 20.1819 154.89 20.2445L180.024 34.755C180.137 34.8139 180.227 34.9097 180.279 35.0265C180.331 35.1434 180.341 35.2744 180.308 35.398C180.276 35.5215 180.202 35.6302 180.099 35.7062C179.996 35.7821 179.871 35.8207 179.743 35.8157V35.7786Z" fill="white"/>
<path d="M215.102 56.2191C215.002 56.2194 214.905 56.1918 214.821 56.1395L196.205 45.3945C196.076 45.32 195.981 45.1971 195.942 45.0529C195.904 44.9086 195.924 44.7549 195.998 44.6255C196.073 44.4961 196.196 44.4016 196.34 44.3628C196.484 44.324 196.638 44.3441 196.767 44.4187L215.383 55.169C215.496 55.2279 215.586 55.3236 215.638 55.4405C215.69 55.5574 215.7 55.6884 215.667 55.812C215.634 55.9355 215.561 56.0442 215.458 56.1201C215.355 56.1961 215.229 56.2347 215.102 56.2297V56.2191Z" fill="white"/>
<path d="M192.45 43.1402C192.352 43.1389 192.255 43.1134 192.169 43.0659L184.59 38.6958C184.521 38.6619 184.46 38.6141 184.41 38.5554C184.36 38.4966 184.322 38.4283 184.3 38.3545C184.277 38.2807 184.27 38.203 184.279 38.1264C184.288 38.0498 184.312 37.9758 184.351 37.9091C184.39 37.8423 184.442 37.7842 184.504 37.7385C184.566 37.6927 184.637 37.6601 184.712 37.6429C184.787 37.6256 184.865 37.6241 184.941 37.6382C185.017 37.6524 185.089 37.682 185.153 37.7252L192.715 42.0901C192.829 42.1489 192.919 42.2447 192.971 42.3616C193.022 42.4785 193.033 42.6095 193 42.733C192.967 42.8566 192.893 42.9653 192.79 43.0412C192.688 43.1172 192.562 43.1558 192.434 43.1508L192.45 43.1402Z" fill="white"/>
<path d="M179.743 71C179.644 70.9994 179.548 70.9738 179.462 70.9258L154.328 56.4152C154.21 56.3355 154.127 56.214 154.095 56.0753C154.064 55.9366 154.086 55.791 154.157 55.6679C154.228 55.5447 154.344 55.4532 154.48 55.4118C154.616 55.3704 154.763 55.3821 154.89 55.4447L180.024 69.9499C180.153 70.0252 180.246 70.1485 180.284 70.2927C180.322 70.4369 180.301 70.5902 180.226 70.7189C180.179 70.806 180.11 70.8785 180.024 70.9281C179.939 70.9778 179.842 71.0027 179.743 71Z" fill="white"/>
<path d="M215.102 91.413C215.003 91.4149 214.906 91.3892 214.821 91.3387L196.205 80.5938C196.076 80.5192 195.981 80.3963 195.942 80.2521C195.904 80.1079 195.924 79.9541 195.998 79.8247C196.073 79.6953 196.196 79.6008 196.34 79.5621C196.484 79.5233 196.638 79.5433 196.767 79.6179L215.383 90.3682C215.511 90.4425 215.605 90.5645 215.643 90.7075C215.682 90.8505 215.663 91.003 215.59 91.1319C215.54 91.2172 215.469 91.2879 215.383 91.3372C215.297 91.3865 215.2 91.4126 215.102 91.413V91.413Z" fill="white"/>
<path d="M192.45 78.3346C192.351 78.3365 192.254 78.3108 192.169 78.2603L184.59 73.8955C184.521 73.8616 184.46 73.8138 184.41 73.7551C184.36 73.6963 184.322 73.628 184.3 73.5542C184.277 73.4804 184.27 73.4028 184.279 73.3261C184.288 73.2495 184.312 73.1755 184.351 73.1088C184.39 73.042 184.442 72.984 184.504 72.9382C184.566 72.8924 184.637 72.8598 184.712 72.8426C184.787 72.8254 184.865 72.8238 184.941 72.8379C185.017 72.8521 185.089 72.8817 185.153 72.9249L192.715 77.2898C192.844 77.3641 192.937 77.4861 192.976 77.6291C193.015 77.7721 192.995 77.9246 192.922 78.0535C192.874 78.1365 192.805 78.2058 192.723 78.2549C192.64 78.3041 192.546 78.3315 192.45 78.3346V78.3346Z" fill="white"/>
<path d="M179.743 79.2679C179.644 79.2699 179.547 79.2441 179.462 79.1937L154.328 64.6885C154.199 64.6139 154.104 64.491 154.066 64.3468C154.027 64.2026 154.047 64.0489 154.121 63.9195C154.196 63.7901 154.319 63.6956 154.463 63.6568C154.607 63.618 154.761 63.6381 154.89 63.7126L180.024 78.2072C180.137 78.2661 180.227 78.3619 180.279 78.4788C180.331 78.5957 180.341 78.7267 180.308 78.8502C180.276 78.9738 180.202 79.0825 180.099 79.1584C179.996 79.2343 179.871 79.273 179.743 79.2679V79.2679Z" fill="white"/>
<path d="M207.178 95.1152C207.079 95.1172 206.982 95.0914 206.897 95.041L196.205 88.8677C196.136 88.8338 196.074 88.786 196.024 88.7272C195.974 88.6685 195.937 88.6001 195.914 88.5263C195.892 88.4525 195.885 88.3749 195.894 88.2983C195.903 88.2217 195.927 88.1477 195.966 88.0809C196.005 88.0142 196.056 87.9561 196.119 87.9103C196.181 87.8645 196.251 87.832 196.327 87.8148C196.402 87.7975 196.48 87.7959 196.556 87.8101C196.631 87.8243 196.703 87.8539 196.767 87.8971L207.459 94.0704C207.523 94.1068 207.579 94.1554 207.625 94.2135C207.67 94.2717 207.703 94.3382 207.722 94.4092C207.741 94.4802 207.746 94.5543 207.737 94.6272C207.727 94.7002 207.703 94.7705 207.666 94.8342C207.616 94.9194 207.545 94.9902 207.46 95.0395C207.374 95.0888 207.277 95.1149 207.178 95.1152Z" fill="white"/>
<path d="M192.45 86.6139C192.352 86.6126 192.255 86.5871 192.169 86.5396L184.59 82.1748C184.461 82.1003 184.366 81.9774 184.328 81.8331C184.289 81.6889 184.309 81.5352 184.384 81.4058C184.458 81.2764 184.581 81.1819 184.725 81.1431C184.869 81.1043 185.023 81.1244 185.153 81.199L192.715 85.5638C192.829 85.6227 192.919 85.7184 192.971 85.8353C193.022 85.9522 193.033 86.0832 193 86.2068C192.967 86.3303 192.893 86.439 192.79 86.5149C192.688 86.5909 192.562 86.6295 192.434 86.6245L192.45 86.6139Z" fill="white"/>
<path d="M167.211 32.9415C167.111 32.9419 167.014 32.9143 166.93 32.862L154.328 25.5908C154.231 25.5041 154.167 25.3862 154.147 25.2575C154.127 25.1287 154.152 24.997 154.219 24.8849C154.285 24.7727 154.389 24.6872 154.511 24.6428C154.634 24.5984 154.768 24.5979 154.89 24.6415L167.492 31.9126C167.62 31.9879 167.714 32.1112 167.752 32.2554C167.79 32.3996 167.769 32.553 167.693 32.6817C167.644 32.7648 167.573 32.833 167.488 32.8788C167.403 32.9246 167.307 32.9463 167.211 32.9415V32.9415Z" fill="white"/>
<path d="M203.503 53.8958C203.404 53.8945 203.308 53.869 203.222 53.8216L184.59 43.0713C184.521 43.0374 184.46 42.9896 184.41 42.9308C184.36 42.8721 184.322 42.8037 184.3 42.7299C184.277 42.6562 184.27 42.5785 184.279 42.5019C184.288 42.4253 184.312 42.3513 184.351 42.2846C184.39 42.2178 184.442 42.1597 184.504 42.1139C184.566 42.0682 184.637 42.0356 184.712 42.0184C184.787 42.0011 184.865 41.9995 184.941 42.0137C185.017 42.0279 185.089 42.0575 185.153 42.1007L203.768 52.8457C203.881 52.9046 203.971 53.0004 204.023 53.1173C204.075 53.2341 204.085 53.3652 204.052 53.4887C204.02 53.6122 203.946 53.7209 203.843 53.7969C203.74 53.8728 203.615 53.9115 203.487 53.9064L203.503 53.8958Z" fill="white"/>
<path d="M179.918 40.276C179.819 40.2779 179.722 40.2522 179.637 40.2017L172.074 35.8369C171.945 35.7624 171.85 35.6395 171.811 35.4953C171.773 35.351 171.793 35.1973 171.867 35.0679C171.942 34.9385 172.065 34.844 172.209 34.8052C172.353 34.7664 172.507 34.7865 172.636 34.8611L180.199 39.2259C180.328 39.3011 180.421 39.4244 180.459 39.5687C180.497 39.7129 180.476 39.8662 180.401 39.9949C180.354 40.082 180.285 40.1545 180.199 40.2041C180.114 40.2538 180.017 40.2787 179.918 40.276Z" fill="white"/>
<path d="M179.743 44.5512C179.644 44.5515 179.546 44.5239 179.462 44.4716L154.328 29.9452C154.227 29.8595 154.16 29.7408 154.138 29.6102C154.116 29.4796 154.14 29.3454 154.208 29.2313C154.275 29.1171 154.38 29.0304 154.505 28.9863C154.63 28.9423 154.767 28.9438 154.891 28.9905L180.024 43.5011C180.153 43.5763 180.246 43.6996 180.284 43.8438C180.322 43.988 180.301 44.1414 180.226 44.2701C180.179 44.3572 180.11 44.4296 180.024 44.4793C179.939 44.5289 179.842 44.5538 179.743 44.5512Z" fill="white"/>
<path d="M201.445 57.0783C201.346 57.0802 201.249 57.0545 201.164 57.004L196.205 54.1401C196.136 54.1062 196.074 54.0584 196.024 53.9997C195.974 53.941 195.937 53.8726 195.914 53.7988C195.892 53.725 195.885 53.6474 195.894 53.5708C195.903 53.4941 195.927 53.4201 195.966 53.3534C196.005 53.2867 196.056 53.2286 196.119 53.1828C196.181 53.137 196.251 53.1045 196.327 53.0872C196.402 53.07 196.48 53.0684 196.556 53.0826C196.631 53.0967 196.703 53.1263 196.767 53.1696L201.726 56.0335C201.854 56.1078 201.948 56.2298 201.987 56.3728C202.025 56.5158 202.006 56.6683 201.933 56.7972C201.883 56.8825 201.812 56.9532 201.726 57.0025C201.641 57.0518 201.544 57.0779 201.445 57.0783V57.0783Z" fill="white"/>
<path d="M169.687 43.1188C169.589 43.1175 169.493 43.092 169.406 43.0446L164.437 40.1807C164.373 40.1438 164.317 40.0946 164.272 40.036C164.227 39.9773 164.193 39.9104 164.174 39.839C164.155 39.7676 164.15 39.6931 164.16 39.6198C164.169 39.5464 164.193 39.4757 164.23 39.4117C164.267 39.3476 164.316 39.2914 164.375 39.2463C164.433 39.2013 164.5 39.1682 164.572 39.149C164.643 39.1298 164.718 39.1248 164.791 39.1344C164.864 39.144 164.935 39.1679 164.999 39.2048L169.958 42.0687C170.071 42.1276 170.161 42.2234 170.213 42.3403C170.265 42.4571 170.275 42.5882 170.242 42.7117C170.21 42.8353 170.136 42.944 170.033 43.0199C169.93 43.0958 169.805 43.1345 169.677 43.1294L169.687 43.1188Z" fill="white"/>
<path d="M192.45 51.8859C192.352 51.8845 192.255 51.859 192.169 51.8116L184.59 47.4468C184.526 47.4099 184.47 47.3607 184.425 47.3021C184.38 47.2434 184.347 47.1765 184.328 47.1051C184.308 47.0337 184.304 46.9592 184.313 46.8859C184.323 46.8126 184.347 46.7418 184.384 46.6778C184.42 46.6137 184.47 46.5575 184.528 46.5124C184.587 46.4674 184.654 46.4343 184.725 46.4151C184.797 46.3959 184.871 46.3909 184.944 46.4005C185.018 46.4101 185.088 46.434 185.153 46.4709L192.715 50.8358C192.829 50.8946 192.919 50.9904 192.971 51.1073C193.022 51.2242 193.033 51.3552 193 51.4787C192.967 51.6023 192.893 51.711 192.79 51.7869C192.688 51.8629 192.562 51.9015 192.434 51.8965L192.45 51.8859Z" fill="white"/>
<path d="M162.665 39.0616C162.567 39.0635 162.469 39.0378 162.384 38.9874L154.328 34.3361C154.21 34.2564 154.127 34.1349 154.095 33.9962C154.064 33.8575 154.086 33.7119 154.157 33.5887C154.228 33.4656 154.344 33.3741 154.48 33.3327C154.616 33.2913 154.763 33.303 154.89 33.3656L162.947 38.0168C163.066 38.0716 163.162 38.1667 163.218 38.2854C163.274 38.404 163.286 38.5386 163.252 38.6654C163.219 38.7922 163.141 38.9031 163.034 38.9784C162.927 39.0538 162.796 39.0889 162.665 39.0775V39.0616Z" fill="white"/>
<path d="M179.918 49.0375C179.819 49.0394 179.722 49.0137 179.637 48.9632L172.074 44.5825C172.005 44.5486 171.943 44.5008 171.893 44.4421C171.843 44.3834 171.806 44.315 171.783 44.2412C171.761 44.1674 171.754 44.0898 171.763 44.0131C171.771 43.9365 171.796 43.8625 171.835 43.7958C171.873 43.729 171.925 43.671 171.987 43.6252C172.049 43.5794 172.12 43.5469 172.195 43.5296C172.271 43.5124 172.349 43.5108 172.424 43.5249C172.5 43.5391 172.572 43.5687 172.636 43.612L180.199 47.9768C180.312 48.0357 180.402 48.1314 180.454 48.2483C180.506 48.3652 180.516 48.4962 180.483 48.6198C180.451 48.7433 180.377 48.852 180.274 48.9279C180.171 49.0039 180.046 49.0425 179.918 49.0375V49.0375Z" fill="white"/>
<path d="M179.743 53.6148C179.644 53.6167 179.547 53.591 179.462 53.5405L154.328 39.03C154.21 38.9502 154.127 38.8288 154.095 38.69C154.064 38.5513 154.086 38.4057 154.157 38.2826C154.228 38.1595 154.344 38.068 154.48 38.0265C154.616 37.9851 154.763 37.9969 154.89 38.0594L180.024 52.5646C180.153 52.6399 180.246 52.7632 180.284 52.9074C180.322 53.0516 180.301 53.205 180.226 53.3337C180.179 53.4208 180.11 53.4932 180.024 53.5429C179.939 53.5925 179.842 53.6174 179.743 53.6148V53.6148Z" fill="white"/>
<path d="M215.102 74.0279C215.004 74.033 214.907 74.011 214.821 73.9642L196.205 63.2192C196.076 63.1447 195.981 63.0218 195.942 62.8776C195.904 62.7334 195.924 62.5796 195.998 62.4502C196.073 62.3208 196.196 62.2263 196.34 62.1875C196.484 62.1488 196.638 62.1688 196.767 62.2434L215.383 72.9937C215.511 73.068 215.605 73.19 215.643 73.333C215.682 73.476 215.663 73.6285 215.59 73.7574C215.538 73.8407 215.467 73.9094 215.381 73.9567C215.296 74.0041 215.199 74.0286 215.102 74.0279V74.0279Z" fill="white"/>
<path d="M192.45 60.9498C192.351 60.9517 192.254 60.926 192.169 60.8756L184.59 56.5107C184.521 56.4768 184.46 56.429 184.41 56.3703C184.36 56.3116 184.322 56.2432 184.3 56.1694C184.277 56.0956 184.27 56.018 184.279 55.9414C184.288 55.8647 184.312 55.7907 184.351 55.724C184.39 55.6573 184.442 55.5992 184.504 55.5534C184.566 55.5076 184.637 55.4751 184.712 55.4578C184.787 55.4406 184.865 55.439 184.941 55.4532C185.017 55.4673 185.089 55.4969 185.153 55.5402L192.715 59.905C192.844 59.9804 192.938 60.1033 192.976 60.2471C193.015 60.391 192.996 60.5443 192.922 60.674C192.872 60.7554 192.803 60.8231 192.721 60.8712C192.639 60.9194 192.546 60.9463 192.45 60.9498V60.9498Z" fill="white"/>
<path d="M167.211 50.7507C167.112 50.7526 167.014 50.7269 166.93 50.6764L154.328 43.4053C154.199 43.3307 154.104 43.2078 154.066 43.0636C154.027 42.9194 154.047 42.7657 154.121 42.6363C154.196 42.5069 154.319 42.4124 154.463 42.3736C154.607 42.3348 154.761 42.3549 154.89 42.4294L167.492 49.7059C167.605 49.7648 167.695 49.8606 167.747 49.9774C167.799 50.0943 167.809 50.2253 167.776 50.3489C167.743 50.4724 167.67 50.5811 167.567 50.6571C167.464 50.733 167.338 50.7716 167.211 50.7666V50.7507Z" fill="white"/>
<path d="M203.503 71.7108C203.404 71.7111 203.306 71.6835 203.222 71.6312L184.59 60.8862C184.461 60.8117 184.366 60.6888 184.328 60.5446C184.289 60.4003 184.309 60.2466 184.384 60.1172C184.458 59.9878 184.581 59.8933 184.725 59.8545C184.869 59.8157 185.023 59.8358 185.153 59.9104L203.768 70.6607C203.881 70.7196 203.971 70.8153 204.023 70.9322C204.075 71.0491 204.085 71.1801 204.052 71.3037C204.02 71.4272 203.946 71.5359 203.843 71.6118C203.74 71.6878 203.615 71.7264 203.487 71.7214L203.503 71.7108Z" fill="white"/>
<path d="M179.918 58.0913C179.82 58.09 179.723 58.0645 179.637 58.0171L172.074 53.647C172.005 53.6131 171.943 53.5652 171.893 53.5065C171.843 53.4478 171.806 53.3794 171.783 53.3056C171.761 53.2318 171.754 53.1542 171.763 53.0776C171.771 53.001 171.796 52.927 171.835 52.8602C171.873 52.7935 171.925 52.7354 171.987 52.6896C172.049 52.6438 172.12 52.6113 172.195 52.5941C172.271 52.5768 172.349 52.5752 172.424 52.5894C172.5 52.6036 172.572 52.6332 172.636 52.6764L180.199 57.0412C180.328 57.1165 180.421 57.2398 180.459 57.384C180.497 57.5282 180.476 57.6815 180.401 57.8102C180.354 57.8973 180.284 57.9698 180.199 58.0195C180.114 58.0691 180.017 58.094 179.918 58.0913V58.0913Z" fill="white"/>
<path d="M179.743 62.3604C179.644 62.3623 179.547 62.3366 179.462 62.2861L154.328 47.7756C154.21 47.6958 154.127 47.5744 154.095 47.4357C154.064 47.297 154.086 47.1513 154.157 47.0282C154.228 46.9051 154.344 46.8136 154.48 46.7721C154.616 46.7307 154.763 46.7425 154.89 46.805L180.024 61.3156C180.137 61.3744 180.227 61.4702 180.279 61.5871C180.331 61.704 180.341 61.835 180.308 61.9585C180.276 62.0821 180.202 62.1908 180.099 62.2667C179.996 62.3427 179.871 62.3813 179.743 62.3763V62.3604Z" fill="white"/>
<path d="M201.445 74.8927C201.347 74.8914 201.25 74.8659 201.164 74.8185L196.205 71.9546C196.136 71.9207 196.074 71.8729 196.024 71.8141C195.974 71.7554 195.937 71.687 195.914 71.6132C195.892 71.5395 195.885 71.4618 195.894 71.3852C195.903 71.3086 195.927 71.2346 195.966 71.1679C196.005 71.1011 196.056 71.043 196.119 70.9972C196.181 70.9514 196.251 70.9189 196.327 70.9017C196.402 70.8844 196.48 70.8828 196.556 70.897C196.631 70.9112 196.703 70.9408 196.767 70.984L201.726 73.8426C201.84 73.9015 201.93 73.9973 201.981 74.1142C202.033 74.2311 202.043 74.3621 202.011 74.4856C201.978 74.6092 201.904 74.7179 201.801 74.7938C201.698 74.8697 201.573 74.9084 201.445 74.9033V74.8927Z" fill="white"/>
<path d="M169.687 60.9338C169.588 60.9341 169.491 60.9065 169.406 60.8542L164.437 57.9956C164.308 57.9211 164.213 57.7982 164.174 57.6539C164.135 57.5097 164.156 57.356 164.23 57.2266C164.305 57.0972 164.428 57.0027 164.572 56.9639C164.716 56.9251 164.87 56.9452 164.999 57.0198L169.958 59.8837C170.071 59.9425 170.161 60.0383 170.213 60.1552C170.265 60.2721 170.275 60.4031 170.242 60.5266C170.21 60.6502 170.136 60.7589 170.033 60.8348C169.93 60.9108 169.805 60.9494 169.677 60.9444L169.687 60.9338Z" fill="white"/>
<path d="M192.45 69.722C192.352 69.7207 192.255 69.6952 192.169 69.6478L184.59 65.2617C184.461 65.1872 184.366 65.0643 184.328 64.9201C184.289 64.7758 184.309 64.6221 184.384 64.4927C184.458 64.3633 184.581 64.2688 184.725 64.23C184.869 64.1912 185.023 64.2113 185.153 64.2859L192.731 68.6613C192.845 68.7202 192.935 68.816 192.986 68.9328C193.038 69.0497 193.048 69.1807 193.016 69.3043C192.983 69.4278 192.909 69.5365 192.806 69.6125C192.704 69.6884 192.578 69.727 192.45 69.722V69.722Z" fill="white"/>
<path d="M162.666 56.8766C162.567 56.8785 162.469 56.8528 162.384 56.8023L154.328 52.1511C154.197 52.0765 154.1 51.9528 154.06 51.8071C154.02 51.6614 154.039 51.5056 154.114 51.3741C154.188 51.2426 154.312 51.1461 154.458 51.1058C154.603 51.0655 154.759 51.0848 154.891 51.1593L162.947 55.8052C163.06 55.8641 163.15 55.9599 163.202 56.0768C163.253 56.1937 163.264 56.3247 163.231 56.4482C163.198 56.5718 163.124 56.6805 163.022 56.7564C162.919 56.8323 162.793 56.871 162.666 56.866V56.8766Z" fill="white"/>
<path d="M179.918 66.8365C179.819 66.8385 179.722 66.8127 179.637 66.7623L172.074 62.3975C171.945 62.3229 171.85 62.2 171.811 62.0558C171.773 61.9116 171.793 61.7579 171.867 61.6285C171.942 61.499 172.065 61.4046 172.209 61.3658C172.353 61.327 172.507 61.3471 172.636 61.4216L180.199 65.7917C180.312 65.8506 180.402 65.9464 180.454 66.0633C180.506 66.1802 180.516 66.3112 180.483 66.4347C180.451 66.5583 180.377 66.667 180.274 66.7429C180.171 66.8188 180.046 66.8575 179.918 66.8524V66.8365Z" fill="white"/>
<path d="M169.687 69.3136C169.589 69.3156 169.491 69.2898 169.406 69.2394L164.447 66.3755C164.378 66.3416 164.317 66.2938 164.267 66.235C164.217 66.1763 164.179 66.1079 164.157 66.0341C164.134 65.9604 164.127 65.8827 164.136 65.8061C164.145 65.7295 164.169 65.6555 164.208 65.5888C164.247 65.522 164.299 65.4639 164.361 65.4181C164.423 65.3724 164.494 65.3398 164.569 65.3226C164.644 65.3053 164.722 65.3037 164.798 65.3179C164.874 65.3321 164.946 65.3617 165.01 65.4049L169.968 68.2688C170.088 68.3236 170.184 68.4188 170.24 68.5374C170.296 68.6561 170.308 68.7906 170.274 68.9174C170.241 69.0442 170.163 69.1551 170.056 69.2305C169.949 69.3059 169.818 69.341 169.687 69.3295V69.3136Z" fill="white"/>
<path d="M162.665 65.2616C162.567 65.2603 162.471 65.2348 162.384 65.1874L154.328 60.5361C154.199 60.4616 154.104 60.3387 154.066 60.1945C154.027 60.0502 154.047 59.8965 154.121 59.7671C154.196 59.6377 154.319 59.5432 154.463 59.5044C154.607 59.4656 154.761 59.4857 154.89 59.5603L162.947 64.2115C163.06 64.2704 163.15 64.3662 163.202 64.483C163.253 64.5999 163.264 64.7309 163.231 64.8545C163.198 64.978 163.124 65.0867 163.022 65.1627C162.919 65.2386 162.793 65.2772 162.665 65.2722V65.2616Z" fill="white"/>
<path d="M179.918 75.2213C179.82 75.22 179.723 75.1945 179.637 75.147L172.074 70.7822C171.945 70.7077 171.85 70.5848 171.811 70.4406C171.773 70.2963 171.793 70.1426 171.867 70.0132C171.942 69.8838 172.065 69.7893 172.209 69.7505C172.353 69.7117 172.507 69.7318 172.636 69.8064L180.199 74.1712C180.328 74.2465 180.421 74.3698 180.459 74.514C180.497 74.6582 180.476 74.8115 180.401 74.9402C180.354 75.0273 180.285 75.0998 180.199 75.1494C180.114 75.1991 180.017 75.224 179.918 75.2213Z" fill="white"/>
<path d="M159.584 26.6729V47.0067C159.584 47.3355 159.467 47.537 159.282 47.6272L158.502 48.0568V47.362L158.391 26.4554L159.409 25.925C159.523 26.158 159.583 26.4136 159.584 26.6729Z" fill="#263238"/>
<path d="M159.409 25.9408L158.391 26.4711L133.735 11.9977L133.146 11.6583L133.957 11.2022H133.984C134.059 11.1619 134.145 11.1439 134.231 11.1505C134.316 11.1571 134.398 11.1879 134.466 11.2393L158.863 25.2884C159.105 25.4475 159.295 25.6744 159.409 25.9408V25.9408Z" fill="#37474F"/>
<path d="M158.704 27.1127V47.314C158.715 47.422 158.699 47.5312 158.659 47.6319C158.618 47.7326 158.553 47.8219 158.47 47.8921H158.423C158.349 47.9218 158.269 47.9326 158.19 47.9233C158.112 47.914 158.036 47.885 157.972 47.839L133.735 33.8748C133.512 33.7159 133.329 33.5069 133.202 33.2646C133.075 33.0223 133.007 32.7535 133.003 32.4799V12.3105C132.992 12.205 133.006 12.0984 133.045 11.9997C133.084 11.9009 133.146 11.8129 133.225 11.743C133.247 11.7239 133.272 11.7094 133.3 11.7006C133.372 11.6748 133.449 11.6667 133.524 11.6768C133.6 11.687 133.672 11.7152 133.735 11.7589L157.972 25.702C158.207 25.8556 158.391 26.0751 158.502 26.3331C158.628 26.5742 158.697 26.8409 158.704 27.1127Z" fill="#455A64"/>
<path d="M143.018 32.2286L151.264 40.715L143.018 39.7234V41.3258L152.765 42.4307V40.725L143.018 30.6004V32.2286ZM134.611 18.4289L133.154 17.5919L140.549 46.1868L142.005 47.0239L134.611 18.4289ZM122.624 23.4023V25.108L132.371 35.2068V33.6044L124.125 25.118L132.371 26.1096V24.4814L122.624 23.4023Z" fill="#FAFAFA"/>
<path d="M133.347 11.7221C133.427 11.7244 133.504 11.7482 133.57 11.7911L157.967 25.8402C158.181 25.9823 158.35 26.1829 158.454 26.4183C158.566 26.6367 158.626 26.8782 158.629 27.1236V47.4469C158.642 47.5309 158.634 47.6167 158.606 47.6969C158.578 47.7772 158.532 47.8497 158.47 47.9083H158.428C158.393 47.9168 158.357 47.9168 158.322 47.9083C158.243 47.9021 158.167 47.8785 158.099 47.8393L133.703 33.7849C133.5 33.6367 133.335 33.4438 133.219 33.2212C133.103 32.9986 133.04 32.7523 133.035 32.5014V12.2313C133.026 12.1461 133.036 12.0601 133.064 11.9794C133.093 11.8987 133.139 11.8253 133.199 11.7645H133.247C133.278 11.7571 133.311 11.7571 133.342 11.7645L133.347 11.7221ZM133.342 11.6267C133.291 11.6264 133.24 11.6373 133.194 11.6585L133.119 11.7009C133.041 11.7727 132.98 11.8619 132.942 11.9614C132.905 12.0609 132.891 12.1679 132.902 12.2737V32.5492C132.907 32.8241 132.976 33.0941 133.103 33.338C133.23 33.5819 133.411 33.793 133.634 33.9546L158.03 48.0037C158.117 48.0564 158.215 48.0856 158.317 48.0886C158.373 48.0893 158.429 48.0785 158.481 48.0568L158.529 48.0302C158.612 47.9593 158.677 47.8691 158.718 47.7674C158.758 47.6658 158.774 47.5557 158.762 47.4469V27.1236C158.755 26.8581 158.69 26.5973 158.571 26.3599C158.457 26.1024 158.274 25.8819 158.041 25.7235L133.644 11.6744C133.557 11.6197 133.456 11.5886 133.353 11.5842L133.342 11.6267Z" fill="#37474F"/>
<path d="M155.665 12.2473C155.665 12.8254 155.256 13.0588 154.758 12.7777C154.49 12.6045 154.268 12.3696 154.11 12.0927C153.953 11.8159 153.864 11.5051 153.851 11.1866C153.851 10.6085 154.254 10.3752 154.758 10.6563C155.024 10.8313 155.244 11.0667 155.402 11.3431C155.56 11.6196 155.65 11.9294 155.665 12.2473V12.2473Z" fill="white"/>
<path d="M159.038 14.3263C159.038 14.9044 158.629 15.1431 158.126 14.8567C157.859 14.6826 157.638 14.4474 157.48 14.1707C157.322 13.8941 157.233 13.5838 157.219 13.2656C157.219 12.6875 157.627 12.4488 158.126 12.7352C158.393 12.9087 158.616 13.1436 158.774 13.4203C158.933 13.6971 159.023 14.0077 159.038 14.3263V14.3263Z" fill="white"/>
<path d="M162.406 16.4104C162.406 16.9885 162.003 17.2219 161.499 16.9408C161.233 16.7657 161.012 16.5304 160.855 16.2539C160.697 15.9774 160.607 15.6676 160.592 15.3497C160.592 14.7716 161 14.5383 161.499 14.8193C161.766 14.9925 161.988 15.2274 162.146 15.5043C162.304 15.7812 162.393 16.0919 162.406 16.4104V16.4104Z" fill="white"/>
</svg>
