<svg width="240" height="233" viewBox="0 0 240 233" fill="none" xmlns="http://www.w3.org/2000/svg">
<path d="M35.0955 214.719C81.7481 239.094 157.387 239.094 204.039 214.719C250.692 190.344 250.698 150.832 204.039 126.457C157.381 102.082 81.7481 102.087 35.0899 126.457C-11.5683 150.826 -11.5627 190.338 35.0955 214.719Z" fill="#F5F5F5"/>
<path d="M94.0439 193.551C106.617 199.543 126.997 199.543 139.542 193.551C152.088 187.558 152.116 177.848 139.542 171.856C126.969 165.863 106.595 165.863 94.0439 171.856C81.4929 177.848 81.4485 187.564 94.0439 193.551Z" fill="#EBEBEB"/>
<path d="M202.885 178.72L157.942 204.659C157.569 204.848 157.158 204.946 156.74 204.946C156.323 204.946 155.911 204.848 155.539 204.659L99.3594 172.211C99.2145 172.162 99.0886 172.068 98.9995 171.944C98.9103 171.82 98.8624 171.67 98.8624 171.517C98.8624 171.364 98.9103 171.215 98.9995 171.091C99.0886 170.966 99.2145 170.873 99.3594 170.824L144.303 144.884C144.675 144.695 145.087 144.597 145.504 144.597C145.922 144.597 146.333 144.695 146.706 144.884L202.902 177.332C203.046 177.383 203.171 177.478 203.259 177.604C203.346 177.729 203.393 177.879 203.391 178.032C203.389 178.185 203.339 178.334 203.249 178.457C203.158 178.58 203.031 178.672 202.885 178.72Z" fill="#EBEBEB"/>
<path d="M215.392 36.1258V48.0387C215.392 48.0387 210.498 50.3303 201.52 50.3303C192.543 50.3303 187.649 48.0331 187.649 48.0331V36.3811L197.015 9.8754C196.887 10.7077 197.375 11.54 198.474 12.1947C199.278 12.6907 200.191 12.9811 201.134 13.0402C202.076 13.0992 203.019 12.9251 203.878 12.5332C204.12 12.4383 204.353 12.3251 204.578 12.1947C205.743 11.5233 206.242 10.6023 206.015 9.72559L215.392 36.1258Z" fill="#F5F5F5"/>
<path opacity="0.5" d="M215.392 36.1258V48.0387C215.392 48.0387 210.498 50.3303 201.52 50.3303C192.543 50.3303 187.649 48.0331 187.649 48.0331V36.3811L197.015 9.8754C196.887 10.7077 197.375 11.54 198.474 12.1947C199.278 12.6907 200.191 12.9811 201.134 13.0402C202.076 13.0992 203.019 12.9251 203.878 12.5332C204.12 12.4383 204.353 12.3251 204.578 12.1947C205.743 11.5233 206.242 10.6023 206.015 9.72559L215.392 36.1258Z" fill="white"/>
<path d="M214.315 119.632C213.511 120.692 212.492 121.569 211.325 122.207C205.898 125.342 197.104 125.342 191.683 122.207C190.513 121.57 189.492 120.692 188.686 119.632C188.06 118.8 187.69 117.803 187.621 116.763V122.95C187.721 124.925 189.069 126.884 191.683 128.393C197.104 131.523 205.898 131.523 211.325 128.393C214.032 126.829 215.392 124.776 215.392 122.723V116.542C215.371 117.66 214.994 118.743 214.315 119.632Z" fill="#F5F5F5"/>
<path d="M214.315 113.446C213.511 114.505 212.492 115.382 211.325 116.02C211.003 116.203 210.675 116.375 210.337 116.536C205.216 118.978 197.786 118.978 192.67 116.536C192.332 116.375 191.999 116.203 191.683 116.02C190.513 115.383 189.492 114.506 188.686 113.446C188.06 112.615 187.69 111.62 187.621 110.582V116.764C187.69 117.803 188.06 118.8 188.686 119.632C189.492 120.692 190.513 121.57 191.683 122.207C197.104 125.342 205.898 125.342 211.325 122.207C212.492 121.569 213.511 120.692 214.315 119.632C214.994 118.743 215.371 117.66 215.392 116.542V110.355C215.372 111.474 214.994 112.556 214.315 113.446Z" fill="#EBEBEB"/>
<path d="M214.315 107.259C213.51 108.319 212.491 109.198 211.325 109.839C211.003 110.022 210.675 110.189 210.337 110.355C205.216 112.797 197.786 112.797 192.67 110.355C192.332 110.189 191.999 110.022 191.683 109.839C190.514 109.198 189.494 108.319 188.686 107.259C188.06 106.429 187.69 105.434 187.621 104.396V110.583C187.69 111.62 188.06 112.615 188.686 113.446C189.492 114.506 190.513 115.383 191.683 116.02C191.999 116.203 192.332 116.375 192.67 116.536C197.786 118.978 205.216 118.978 210.337 116.536C210.675 116.375 211.003 116.203 211.325 116.02C212.492 115.383 213.511 114.505 214.315 113.446C214.994 112.557 215.372 111.474 215.392 110.355V104.168C215.372 105.287 214.995 106.37 214.315 107.259Z" fill="#F5F5F5"/>
<path d="M187.621 36.3589V104.396C187.69 105.433 188.06 106.428 188.686 107.259C189.494 108.319 190.514 109.198 191.683 109.839C191.999 110.022 192.332 110.189 192.67 110.355C194.012 110.98 195.424 111.44 196.876 111.726L194.363 40.021L187.621 36.3589Z" fill="#F5F5F5"/>
<path d="M208.645 40.0211L206.126 111.726C207.578 111.441 208.99 110.98 210.331 110.355C210.67 110.189 210.997 110.022 211.319 109.839C212.486 109.198 213.505 108.319 214.31 107.259C214.989 106.37 215.367 105.287 215.386 104.169V36.126L208.645 40.0211Z" fill="#F5F5F5"/>
<path d="M187.621 36.3589V104.396C187.69 105.433 188.06 106.428 188.686 107.259C189.494 108.319 190.514 109.198 191.683 109.839C191.999 110.022 192.332 110.189 192.67 110.355C194.012 110.98 195.424 111.44 196.876 111.726L194.363 40.021L187.621 36.3589Z" fill="#E0E0E0"/>
<path d="M208.645 40.0211L206.126 111.726C207.578 111.441 208.99 110.98 210.331 110.355C210.67 110.189 210.997 110.022 211.319 109.839C212.486 109.198 213.505 108.319 214.31 107.259C214.989 106.37 215.367 105.287 215.386 104.169V36.126L208.645 40.0211Z" fill="#E0E0E0"/>
<path d="M194.363 40.021V111.043C195.184 111.327 196.024 111.557 196.876 111.731C198.399 112.039 199.95 112.193 201.504 112.192C203.058 112.19 204.607 112.036 206.131 111.731C206.983 111.557 207.823 111.327 208.645 111.043V40.021H194.363Z" fill="#EBEBEB"/>
<path d="M204.555 12.167C204.331 12.2975 204.098 12.4106 203.856 12.5055C202.997 12.8974 202.054 13.0715 201.112 13.0125C200.169 12.9534 199.256 12.6631 198.452 12.167C197.342 11.5345 196.865 10.68 196.993 9.84771L200.189 0.897811C200.294 0.636097 200.476 0.412314 200.71 0.255854C200.945 0.0993936 201.222 0.0175713 201.504 0.0211308C201.786 0.017214 202.064 0.0988182 202.299 0.255253C202.535 0.411687 202.718 0.635656 202.824 0.897811L205.987 9.6868C206.203 10.5635 205.721 11.4956 204.555 12.167Z" fill="#E0E0E0"/>
<path d="M211.325 128.393C206.664 131.084 199.517 131.456 194.157 129.503C193.858 129.399 193.564 129.283 193.275 129.153L192.876 128.987C192.459 128.798 192.06 128.593 191.683 128.377C189.069 126.867 187.721 124.909 187.621 122.934V139.79C187.521 141.921 188.869 144.068 191.683 145.688C192.016 145.883 192.365 146.066 192.726 146.243C192.859 146.31 193.003 146.36 193.136 146.421C193.369 146.521 193.597 146.626 193.835 146.715C194.074 146.804 194.207 146.848 194.39 146.909C194.573 146.97 194.784 147.053 194.99 147.114C195.195 147.175 195.445 147.242 195.672 147.303C195.9 147.364 196.022 147.403 196.199 147.442C196.377 147.481 196.726 147.558 196.993 147.608C197.142 147.608 197.292 147.675 197.442 147.697C197.742 147.752 198.047 147.791 198.352 147.836L198.713 147.886C199.051 147.924 199.39 147.952 199.728 147.974H199.994C200.366 148.002 200.738 148.013 201.104 148.019H201.282C201.681 148.019 202.081 148.019 202.48 148.019H202.569C202.991 148.019 203.412 147.969 203.834 147.93C206.305 147.72 208.712 147.03 210.92 145.899C211.042 145.833 211.169 145.777 211.291 145.705C213.999 144.14 215.358 142.087 215.358 140.034V122.723C215.392 124.776 214.032 126.829 211.325 128.393Z" fill="#E0E0E0"/>
<path d="M43.8179 138.226C42.2144 137.821 33.6529 132.949 32.7817 132.356C31.9106 131.762 30.1906 130.536 30.1906 128.422C30.1906 126.552 30.3848 108.918 31.9162 100.401C32.4193 97.7516 33.459 95.233 34.9714 93.0002C36.4838 90.7674 38.4369 88.8675 40.7107 87.4174C46.0374 84.1159 51.3918 81.7245 55.9028 83.5999C60.4138 85.4753 64.5309 88.921 66.3064 93.0825C68.082 97.2439 69.2971 105.578 69.4247 108.802C69.5523 112.025 69.4247 123.078 69.4247 124.06C69.4247 125.042 69.2472 126.319 63.9594 129.609C58.6715 132.899 51.3696 136.822 49.1113 137.838C47.4316 138.52 45.5793 138.656 43.8179 138.226Z" fill="#37474F"/>
<path d="M42.4974 89.7087C42.0091 89.9861 40.5998 89.2925 40.3889 88.943C40.1781 88.5934 40.1226 85.5694 41.1768 83.8993C42.231 82.2291 48.8061 79.1497 50.4319 79.3772C51.0408 79.4763 51.6231 79.6987 52.143 80.0307C52.663 80.3627 53.1097 80.7974 53.4559 81.3081C53.6556 81.7353 53.8776 84.5485 53.4559 85.1255C53.0342 85.7026 51.5305 84.8148 51.3973 84.5707C51.2642 84.3265 51.8912 82.268 50.8425 81.8408C49.877 81.4524 45.2939 83.3999 43.4295 84.9646C42.6194 85.6471 42.6583 87.3394 42.6971 88.1773C42.736 89.0151 42.7415 89.5644 42.4974 89.7087Z" fill="#455A64"/>
<path d="M41.1768 109.562C42.12 100.401 43.8179 95.0522 52.7789 91.0627C61.7399 87.0733 65.2189 90.469 66.4895 93.5263C68.1541 97.8098 69.3026 105.689 69.4247 108.802C69.5523 112.025 69.4247 123.078 69.4247 124.06C69.4247 125.042 69.2471 126.319 63.9593 129.609C58.6715 132.899 51.3695 136.822 49.1113 137.837C47.4333 138.526 45.581 138.668 43.8179 138.242C43.4638 138.135 43.1187 137.999 42.7859 137.837C39.9949 134.253 40.3112 117.929 41.1768 109.562Z" fill="#455A64"/>
<path d="M62.0673 87.4839C59.7258 86.1134 55.8861 85.209 50.2487 87.7225C40.1725 92.2113 37.6146 97.832 36.5992 107.697C36.4161 109.506 36.1442 111.659 36.0443 113.973L35.212 113.468C35.3286 110.971 35.5727 108.835 35.7669 106.904C36.8766 96.9665 39.8562 91.4733 49.483 87.1843C54.8153 84.8095 58.3164 85.1202 60.6357 86.291C61.1338 86.6628 61.6117 87.0611 62.0673 87.4839Z" fill="#263238"/>
<path d="M62.4168 87.7389C60.0809 86.3684 56.2357 85.464 50.6038 87.9775C40.522 92.4663 37.9641 98.0871 36.9487 107.952C36.7656 109.761 36.4937 111.914 36.3939 114.228L35.5616 113.723C35.6781 111.226 35.9222 109.09 36.1164 107.159C37.2262 97.2215 40.2058 91.7228 49.8326 87.4393C55.1648 85.0645 58.7603 85.4585 61.0796 86.6237C61.5459 86.97 61.9924 87.3423 62.4168 87.7389Z" fill="#455A64"/>
<path d="M59.1543 96.4506L56.1081 94.7083C55.9578 94.6239 55.7802 94.6022 55.614 94.6479C55.4478 94.6937 55.3063 94.8031 55.2203 94.9524L52.0964 100.385C52.0094 100.534 51.985 100.712 52.0287 100.879C52.0724 101.047 52.1805 101.19 52.3295 101.278L55.3368 103.031C55.4863 103.118 55.6642 103.143 55.8315 103.099C55.9989 103.055 56.1422 102.947 56.2302 102.798L59.3929 97.3328C59.4362 97.2595 59.4645 97.1782 59.4759 97.0938C59.4874 97.0094 59.4818 96.9236 59.4596 96.8414C59.4374 96.7591 59.3989 96.6822 59.3465 96.6151C59.294 96.548 59.2287 96.492 59.1543 96.4506Z" fill="#263238"/>
<path d="M55.8861 102.409L58.8879 97.2325C58.9096 97.1954 58.9236 97.1545 58.9292 97.1119C58.9347 97.0694 58.9317 97.0262 58.9204 96.9848C58.909 96.9435 58.8895 96.9048 58.8629 96.8711C58.8364 96.8374 58.8034 96.8094 58.7659 96.7886L55.9916 95.2128C55.9164 95.1706 55.8276 95.1598 55.7445 95.1826C55.6614 95.2055 55.5907 95.2602 55.5477 95.3349L52.5792 100.49C52.537 100.565 52.5262 100.653 52.549 100.737C52.5719 100.82 52.6266 100.89 52.7013 100.933L55.4256 102.526C55.4632 102.55 55.5052 102.565 55.5491 102.572C55.593 102.579 55.6378 102.577 55.6809 102.567C55.724 102.556 55.7644 102.536 55.7997 102.509C55.835 102.482 55.8644 102.448 55.8861 102.409Z" fill="#455A64"/>
<path d="M56.5297 99.9348C56.6097 99.8865 56.6774 99.8202 56.7275 99.7412C56.7775 99.6623 56.8086 99.5728 56.8183 99.4798V96.9996C56.8183 96.8387 56.6907 96.7888 56.5297 96.8776C56.4498 96.9259 56.3821 96.9922 56.332 97.0711C56.282 97.1501 56.2509 97.2396 56.2412 97.3325V99.8128C56.2412 99.9737 56.3688 100.024 56.5297 99.9348Z" fill="#37474F"/>
<path d="M54.9207 100.867C55.0005 100.817 55.068 100.75 55.1179 100.67C55.1679 100.59 55.1991 100.5 55.2092 100.406V97.9318C55.2092 97.7709 55.076 97.7154 54.9207 97.8097C54.8401 97.8574 54.772 97.9235 54.7218 98.0026C54.6717 98.0817 54.6409 98.1715 54.6321 98.2647V100.745C54.6488 100.9 54.7598 100.956 54.9207 100.867Z" fill="#37474F"/>
<path d="M45.3272 117.308C45.3272 117.308 46.8364 118.551 47.9239 123.234C49.0114 127.917 49.6662 133.815 48.4788 134.525C47.2914 135.235 45.5768 133.748 45.1496 133.238C44.2729 132.189 44.4893 121.058 45.3272 117.308Z" fill="#263238"/>
<path d="M45.3271 117.307C45.3271 117.307 46.8364 118.55 47.9239 123.233C49.0114 127.916 49.6662 133.814 48.4788 134.525L66.7891 123.727C67.9876 123.017 68.2817 116.819 67.1997 112.136C66.484 109.056 65.169 107.592 64.3589 106.948C64.173 106.804 63.9485 106.72 63.7141 106.705C63.4797 106.69 63.2463 106.746 63.0438 106.865L45.3271 117.307Z" fill="#37474F"/>
<path d="M63.9816 107.664C64.8582 108.097 66.3453 109.29 67.0166 112.458C67.1299 112.889 67.1197 113.343 66.9872 113.769C66.8548 114.195 66.6054 114.575 66.2676 114.866C65.6572 115.299 52.5514 122.75 50.8147 123.788C49.3166 124.681 48.5398 123.494 48.2124 122.75C47.6576 121.43 47.1804 120.403 46.7698 119.616C46.4563 118.756 45.9668 117.972 45.3327 117.313L62.7942 107.714C62.9728 107.609 63.1746 107.549 63.3816 107.541C63.5887 107.532 63.7947 107.574 63.9816 107.664Z" fill="#263238"/>
<path d="M36.6103 114.744C36.8639 115.698 37.0292 116.673 37.1041 117.657C37.1041 117.857 36.8323 117.962 36.7546 117.962C36.12 117.835 35.5327 117.535 35.0567 117.097C35.1456 116.258 35.2977 115.427 35.5117 114.611L36.6103 114.744Z" fill="#263238"/>
<path d="M37.1763 113.962C37.1763 113.752 37.1141 113.547 36.9977 113.373C36.8812 113.199 36.7157 113.063 36.522 112.983C36.3284 112.902 36.1153 112.881 35.9097 112.922C35.7042 112.963 35.5153 113.064 35.3671 113.212C35.2189 113.36 35.118 113.549 35.0771 113.755C35.0362 113.96 35.0572 114.174 35.1374 114.367C35.2176 114.561 35.3534 114.726 35.5277 114.843C35.702 114.959 35.9069 115.021 36.1165 115.021C36.3976 115.021 36.6671 114.91 36.8659 114.711C37.0646 114.512 37.1763 114.243 37.1763 113.962Z" fill="#263238"/>
<path d="M50.4319 81.7909C51.5915 81.6799 52.6846 81.7909 52.9621 82.9506C53.2395 84.1102 53.1396 85.17 52.9621 85.3143C52.3745 85.2398 51.8262 84.9792 51.3973 84.5707C51.2642 84.3211 51.8912 82.2681 50.8425 81.8408C50.7139 81.7981 50.5781 81.7811 50.443 81.7909H50.4319Z" fill="#263238"/>
<path d="M63.1548 106.804C63.3342 106.698 63.5369 106.638 63.745 106.63C63.9531 106.621 64.1602 106.664 64.3478 106.754C65.2244 107.187 66.7115 108.38 67.3828 111.548C67.4954 111.979 67.4849 112.434 67.3525 112.859C67.2201 113.285 66.9711 113.665 66.6338 113.956C66.0234 114.389 52.9232 121.841 51.1865 122.878C49.6884 123.772 48.906 122.584 48.5786 121.841C46.7642 118.046 45.3271 117.308 45.3271 117.308L63.1548 106.804Z" fill="#37474F"/>
<path d="M60.0142 171.356L45.3215 162.878C44.9379 162.627 44.6185 162.289 44.3892 161.892C44.1598 161.495 44.0268 161.05 44.001 160.592V160.759C44.026 160.301 44.1586 159.855 44.388 159.458C44.6174 159.06 44.9373 158.723 45.3215 158.472L74.8679 141.416C75.276 141.208 75.7276 141.1 76.1857 141.1C76.6437 141.1 77.0953 141.208 77.5034 141.416L92.1961 149.9C92.5809 150.148 92.9012 150.485 93.1308 150.881C93.3604 151.278 93.4926 151.723 93.5167 152.18V152.014C93.4923 152.471 93.3606 152.917 93.1321 153.314C92.9037 153.711 92.5849 154.049 92.2017 154.3L62.6554 171.356C62.2463 171.564 61.7938 171.673 61.3348 171.673C60.8758 171.673 60.4234 171.564 60.0142 171.356Z" fill="#3DBBC3"/>
<path opacity="0.7" d="M60.0142 171.356L45.3215 162.878C44.9379 162.627 44.6185 162.289 44.3892 161.892C44.1598 161.495 44.0268 161.05 44.001 160.592V160.759C44.026 160.301 44.1586 159.855 44.388 159.458C44.6174 159.06 44.9373 158.723 45.3215 158.472L74.8679 141.416C75.276 141.208 75.7276 141.1 76.1857 141.1C76.6437 141.1 77.0953 141.208 77.5034 141.416L92.1961 149.9C92.5809 150.148 92.9012 150.485 93.1308 150.881C93.3604 151.278 93.4926 151.723 93.5167 152.18V152.014C93.4923 152.471 93.3606 152.917 93.1321 153.314C92.9037 153.711 92.5849 154.049 92.2017 154.3L62.6554 171.356C62.2463 171.564 61.7938 171.673 61.3348 171.673C60.8758 171.673 60.4234 171.564 60.0142 171.356Z" fill="black"/>
<path d="M61.3071 149.229L45.2994 158.472C44.9151 158.723 44.5953 159.06 44.3658 159.458C44.1364 159.855 44.0038 160.301 43.9788 160.759V160.592C44.0047 161.05 44.1376 161.495 44.367 161.892C44.5964 162.289 44.9157 162.627 45.2994 162.878L59.9921 171.356C60.3982 171.572 60.8527 171.681 61.3127 171.673L61.3071 149.229Z" fill="#3DBBC3"/>
<path opacity="0.7" d="M61.3071 149.229L45.2994 158.472C44.9151 158.723 44.5953 159.06 44.3658 159.458C44.1364 159.855 44.0038 160.301 43.9788 160.759V160.592C44.0047 161.05 44.1376 161.495 44.367 161.892C44.5964 162.289 44.9157 162.627 45.2994 162.878L59.9921 171.356C60.3982 171.572 60.8527 171.681 61.3127 171.673L61.3071 149.229Z" fill="black"/>
<path d="M45.316 159.998L60.0032 168.482C60.4132 168.687 60.8653 168.794 61.3238 168.794C61.7822 168.794 62.2343 168.687 62.6443 168.482L92.1906 151.42C92.923 150.999 92.923 150.31 92.1906 149.9L77.4979 141.416C77.0898 141.208 76.6382 141.1 76.1801 141.1C75.722 141.1 75.2705 141.208 74.8623 141.416L45.316 158.472C44.5836 158.894 44.5836 159.577 45.316 159.998Z" fill="#3DBBC3"/>
<path opacity="0.5" d="M45.316 159.998L60.0032 168.482C60.4132 168.687 60.8653 168.794 61.3238 168.794C61.7822 168.794 62.2343 168.687 62.6443 168.482L92.1906 151.42C92.923 150.999 92.923 150.31 92.1906 149.9L77.4979 141.416C77.0898 141.208 76.6382 141.1 76.1801 141.1C75.722 141.1 75.2705 141.208 74.8623 141.416L45.316 158.472C44.5836 158.894 44.5836 159.577 45.316 159.998Z" fill="black"/>
<path d="M45.316 157.207V158.617L60.5636 167.422C60.7957 167.556 61.0588 167.626 61.3265 167.626C61.5943 167.626 61.8573 167.556 62.0895 167.422L92.1906 150.039V148.585L61.3238 163.566L45.316 157.207Z" fill="#3DBBC3"/>
<path d="M60.0087 165.692L45.316 157.208C44.9311 156.958 44.6108 156.621 44.3813 156.223C44.1518 155.826 44.0195 155.38 43.9954 154.922V152.208C44.0195 151.75 44.1518 151.304 44.3813 150.907C44.6108 150.51 44.9311 150.172 45.316 149.922L74.8623 132.86C75.2704 132.652 75.722 132.544 76.1801 132.544C76.6382 132.544 77.0898 132.652 77.4979 132.86L92.1906 141.344C92.5755 141.594 92.8958 141.931 93.1253 142.329C93.3548 142.726 93.487 143.172 93.5112 143.63V146.349C93.4834 146.797 93.3491 147.233 93.1194 147.619C92.8898 148.005 92.5713 148.33 92.1906 148.569L62.6443 165.675C62.2375 165.885 61.7866 165.997 61.3285 166C60.8704 166.003 60.4181 165.897 60.0087 165.692Z" fill="#3DBBC3"/>
<path opacity="0.6" d="M60.0087 165.692L45.316 157.208C44.9311 156.958 44.6108 156.621 44.3813 156.223C44.1518 155.826 44.0195 155.38 43.9954 154.922V152.208C44.0195 151.75 44.1518 151.304 44.3813 150.907C44.6108 150.51 44.9311 150.172 45.316 149.922L74.8623 132.86C75.2704 132.652 75.722 132.544 76.1801 132.544C76.6382 132.544 77.0898 132.652 77.4979 132.86L92.1906 141.344C92.5755 141.594 92.8958 141.931 93.1253 142.329C93.3548 142.726 93.487 143.172 93.5112 143.63V146.349C93.4834 146.797 93.3491 147.233 93.1194 147.619C92.8898 148.005 92.5713 148.33 92.1906 148.569L62.6443 165.675C62.2375 165.885 61.7866 165.997 61.3285 166C60.8704 166.003 60.4181 165.897 60.0087 165.692Z" fill="black"/>
<path d="M61.3071 140.678L45.2994 149.922C44.9145 150.172 44.5942 150.509 44.3647 150.907C44.1352 151.304 44.0029 151.75 43.9788 152.208V154.921C44.0029 155.38 44.1352 155.826 44.3647 156.223C44.5942 156.62 44.9145 156.958 45.2994 157.208L59.9921 165.691C60.3959 165.908 60.8489 166.017 61.3071 166.008V140.678Z" fill="#3DBBC3"/>
<path opacity="0.7" d="M61.3071 140.678L45.2994 149.922C44.9145 150.172 44.5942 150.509 44.3647 150.907C44.1352 151.304 44.0029 151.75 43.9788 152.208V154.921C44.0029 155.38 44.1352 155.826 44.3647 156.223C44.5942 156.62 44.9145 156.958 45.2994 157.208L59.9921 165.691C60.3959 165.908 60.8489 166.017 61.3071 166.008V140.678Z" fill="black"/>
<path d="M45.316 151.443L60.0032 159.927C60.4123 160.135 60.8648 160.243 61.3238 160.243C61.7827 160.243 62.2352 160.135 62.6443 159.927L92.1906 142.87C92.923 142.448 92.923 141.76 92.1906 141.344L77.4979 132.86C77.0898 132.652 76.6382 132.544 76.1801 132.544C75.722 132.544 75.2705 132.652 74.8623 132.86L45.316 149.922C44.5836 150.344 44.5836 151.027 45.316 151.443Z" fill="#3DBBC3"/>
<path opacity="0.5" d="M45.316 151.443L60.0032 159.927C60.4123 160.135 60.8648 160.243 61.3238 160.243C61.7827 160.243 62.2352 160.135 62.6443 159.927L92.1906 142.87C92.923 142.448 92.923 141.76 92.1906 141.344L77.4979 132.86C77.0898 132.652 76.6382 132.544 76.1801 132.544C75.722 132.544 75.2705 132.652 74.8623 132.86L45.316 149.922C44.5836 150.344 44.5836 151.027 45.316 151.443Z" fill="black"/>
<path d="M65.807 144.701C64.1813 145.644 64.1813 147.159 65.807 148.091C66.7211 148.55 67.7301 148.79 68.7533 148.79C69.7765 148.79 70.7855 148.55 71.6996 148.091C73.3254 147.159 73.3254 145.644 71.6996 144.701C70.7863 144.238 69.777 143.998 68.7533 143.998C67.7297 143.998 66.7204 144.238 65.807 144.701Z" fill="#3DBBC3"/>
<path d="M89.7992 145.694C89.6484 145.793 89.5231 145.925 89.4334 146.082C89.3437 146.238 89.2922 146.413 89.2831 146.593C89.2831 146.926 89.5162 147.064 89.7992 146.904C89.9499 146.805 90.0752 146.672 90.1649 146.516C90.2546 146.36 90.3061 146.185 90.3152 146.005C90.3152 145.672 90.0821 145.533 89.7992 145.694Z" fill="#3DBBC3"/>
<path d="M89.7992 147.686C89.6484 147.785 89.5231 147.918 89.4334 148.074C89.3437 148.23 89.2922 148.405 89.2831 148.585C89.2831 148.918 89.5162 149.057 89.7992 148.896C89.9518 148.799 90.0786 148.667 90.1686 148.51C90.2585 148.354 90.3088 148.177 90.3152 147.997C90.3152 147.664 90.0821 147.525 89.7992 147.686Z" fill="#3DBBC3"/>
<path d="M53.8553 182.57C53.7874 182.57 53.7206 182.553 53.6611 182.52L39.4234 174.247C39.0548 174.034 38.7487 173.727 38.536 173.358C38.3233 172.989 38.2113 172.57 38.2113 172.144C38.2113 171.718 38.3233 171.3 38.536 170.931C38.7487 170.562 39.0548 170.255 39.4234 170.041L49.8603 164.016C49.9489 163.971 50.0513 163.961 50.1465 163.99C50.2417 164.018 50.3225 164.082 50.3723 164.168C50.422 164.254 50.4369 164.355 50.4139 164.452C50.3909 164.549 50.3318 164.633 50.2487 164.687L39.8173 170.696C39.5689 170.844 39.3632 171.053 39.2203 171.304C39.0773 171.555 39.0022 171.839 39.0022 172.128C39.0022 172.417 39.0773 172.7 39.2203 172.951C39.3632 173.202 39.5689 173.412 39.8173 173.559L54.055 181.821C54.1029 181.846 54.1449 181.881 54.1783 181.924C54.2117 181.966 54.2358 182.015 54.2489 182.067C54.262 182.12 54.2638 182.174 54.2543 182.228C54.2448 182.281 54.2242 182.331 54.1938 182.376C54.1604 182.436 54.1112 182.486 54.0516 182.52C53.9919 182.554 53.9241 182.572 53.8553 182.57Z" fill="#3DBBC3"/>
<path d="M71.6885 174.58L68.6035 162.196C68.5595 162.025 68.502 161.858 68.4315 161.696L69.3304 161.569L67.3717 160.459C66.9607 160.236 66.4967 160.128 66.0294 160.149C65.5621 160.169 65.1093 160.317 64.7195 160.575L51.8745 168.011C50.9926 168.588 50.2592 169.365 49.7338 170.279C49.2084 171.193 48.9058 172.218 48.8505 173.271V188.163C48.8505 189.351 49.139 190.166 49.7327 190.449L51.5748 191.514L51.1309 190.338L51.2308 190.299C53.3448 189.289 54.1105 187.447 54.7431 185.622L57.19 178.547C57.8226 176.722 59.4095 174.63 60.7078 173.87C62.0062 173.11 63.8594 173.87 64.8138 175.534L66.0456 177.687C66.4216 178.371 66.9884 178.93 67.6769 179.296L69.5523 180.406L69.0751 179.663C69.4651 179.664 69.8483 179.56 70.1848 179.363C71.4666 178.597 72.1546 176.467 71.6885 174.58Z" fill="#3DBBC3"/>
<path opacity="0.7" d="M71.6885 174.58L68.6035 162.196C68.5595 162.025 68.502 161.858 68.4315 161.696L69.3304 161.569L67.3717 160.459C66.9607 160.236 66.4967 160.128 66.0294 160.149C65.5621 160.169 65.1093 160.317 64.7195 160.575L51.8745 168.011C50.9926 168.588 50.2592 169.365 49.7338 170.279C49.2084 171.193 48.9058 172.218 48.8505 173.271V188.163C48.8505 189.351 49.139 190.166 49.7327 190.449L51.5748 191.514L51.1309 190.338L51.2308 190.299C53.3448 189.289 54.1105 187.447 54.7431 185.622L57.19 178.547C57.8226 176.722 59.4095 174.63 60.7078 173.87C62.0062 173.11 63.8594 173.87 64.8138 175.534L66.0456 177.687C66.4216 178.371 66.9884 178.93 67.6769 179.296L69.5523 180.406L69.0751 179.663C69.4651 179.664 69.8483 179.56 70.1848 179.363C71.4666 178.597 72.1546 176.467 71.6885 174.58Z" fill="black"/>
<path d="M68.4315 161.696L69.3304 161.569L67.3717 160.459C66.9607 160.236 66.4967 160.128 66.0294 160.149C65.5621 160.169 65.1093 160.317 64.7195 160.575L51.8745 168.011C51.157 168.458 50.5439 169.054 50.0767 169.758L53.134 171.623L68.77 162.789L68.6201 162.196C68.5707 162.024 68.5076 161.857 68.4315 161.696Z" fill="#3DBBC3"/>
<path opacity="0.5" d="M68.4315 161.696L69.3304 161.569L67.3717 160.459C66.9607 160.236 66.4967 160.128 66.0294 160.149C65.5621 160.169 65.1093 160.317 64.7195 160.575L51.8745 168.011C51.157 168.458 50.5439 169.054 50.0767 169.758L53.134 171.623L68.77 162.789L68.6201 162.196C68.5707 162.024 68.5076 161.857 68.4315 161.696Z" fill="black"/>
<path d="M72.1435 180.517C70.8285 181.278 68.9808 180.517 68.0209 178.853L66.7946 176.7C65.8347 175.035 64.0203 174.275 62.6831 175.035C61.3459 175.796 59.7978 177.882 59.1653 179.713L56.7239 186.782C56.0914 188.607 55.3201 190.449 53.2061 191.459C51.6081 192.225 50.8369 191.259 50.8369 189.329V174.425C50.8941 173.373 51.1981 172.349 51.7244 171.436C52.2507 170.523 52.9845 169.747 53.8664 169.17L66.7336 161.708C67.0802 161.465 67.483 161.315 67.904 161.271C68.3249 161.227 68.75 161.292 69.1389 161.459C69.5279 161.625 69.8679 161.889 70.1266 162.224C70.3854 162.558 70.5544 162.954 70.6176 163.372L73.7026 175.762C74.1576 177.615 73.4641 179.757 72.1435 180.517Z" fill="#3DBBC3"/>
<path opacity="0.6" d="M72.1435 180.517C70.8285 181.278 68.9808 180.517 68.0209 178.853L66.7946 176.7C65.8347 175.035 64.0203 174.275 62.6831 175.035C61.3459 175.796 59.7978 177.882 59.1653 179.713L56.7239 186.782C56.0914 188.607 55.3201 190.449 53.2061 191.459C51.6081 192.225 50.8369 191.259 50.8369 189.329V174.425C50.8941 173.373 51.1981 172.349 51.7244 171.436C52.2507 170.523 52.9845 169.747 53.8664 169.17L66.7336 161.708C67.0802 161.465 67.483 161.315 67.904 161.271C68.3249 161.227 68.75 161.292 69.1389 161.459C69.5279 161.625 69.8679 161.889 70.1266 162.224C70.3854 162.558 70.5544 162.954 70.6176 163.372L73.7026 175.762C74.1576 177.615 73.4641 179.757 72.1435 180.517Z" fill="black"/>
<path d="M67.1553 165.997L67.4771 167.822L68.9031 166.912L69.2194 168.738L67.7989 169.653L68.1208 171.479L66.7003 172.389L66.3785 170.563L64.9581 171.479L64.6362 169.648L66.0567 168.738L65.7349 166.912L67.1553 165.997Z" fill="#263238"/>
<path d="M67.5659 166.213L67.8877 168.038L69.3081 167.128L69.63 168.954L68.2095 169.869L68.5313 171.695L67.1109 172.605L66.7891 170.779L65.3686 171.689L65.0468 169.864L66.4673 168.954L66.1454 167.128L67.5659 166.213Z" fill="#3DBBC3"/>
<path d="M56.391 172.461C56.429 172.718 56.3976 172.981 56.3 173.222C56.2025 173.462 56.0423 173.673 55.8362 173.831C55.4422 174.081 55.0538 173.876 54.9651 173.371C54.9253 173.114 54.9559 172.85 55.0536 172.609C55.1512 172.368 55.3124 172.157 55.5199 172C55.9083 171.751 56.3134 171.956 56.391 172.461Z" fill="#263238"/>
<path d="M57.0347 176.112C57.0744 176.369 57.0439 176.632 56.9462 176.873C56.8485 177.115 56.6873 177.325 56.4798 177.482C56.0859 177.732 55.6975 177.527 55.6087 177.027C55.5683 176.77 55.5986 176.506 55.6963 176.265C55.7941 176.024 55.9556 175.813 56.1635 175.657C56.5519 175.401 56.9459 175.607 57.0347 176.112Z" fill="#263238"/>
<path d="M58.1333 173.371C58.1737 173.628 58.1434 173.892 58.0456 174.133C57.9479 174.374 57.7864 174.585 57.5784 174.741C57.1845 174.997 56.7961 174.791 56.7073 174.286C56.6669 174.029 56.6972 173.766 56.795 173.524C56.8927 173.283 57.0542 173.073 57.2622 172.916C57.6561 172.666 58.0445 172.866 58.1333 173.371Z" fill="#263238"/>
<path d="M55.2924 175.196C55.3328 175.453 55.3025 175.717 55.2048 175.958C55.107 176.2 54.9455 176.41 54.7376 176.567C54.3436 176.822 53.9552 176.617 53.8664 176.112C53.8267 175.854 53.8572 175.591 53.9549 175.35C54.0526 175.109 54.2138 174.898 54.4213 174.741C54.8152 174.491 55.2036 174.691 55.2924 175.196Z" fill="#263238"/>
<path d="M56.4188 172.477C56.4585 172.735 56.4279 172.998 56.3303 173.239C56.2326 173.48 56.0714 173.691 55.8639 173.848C55.47 174.098 55.0816 173.898 54.9928 173.393C54.9524 173.136 54.9827 172.872 55.0804 172.631C55.1782 172.389 55.3397 172.179 55.5476 172.022C55.9416 171.767 56.3133 171.972 56.4188 172.477Z" fill="#263238"/>
<path d="M57.0624 176.128C57.1028 176.386 57.0725 176.649 56.9747 176.89C56.877 177.132 56.7155 177.342 56.5075 177.499C56.1136 177.754 55.7252 177.549 55.6364 177.044C55.596 176.787 55.6263 176.523 55.724 176.282C55.8218 176.04 55.9833 175.83 56.1913 175.673C56.5852 175.424 56.9736 175.623 57.0624 176.128Z" fill="#263238"/>
<path d="M58.1611 173.393C58.2004 173.649 58.1696 173.912 58.0719 174.152C57.9742 174.392 57.8133 174.602 57.6062 174.758C57.2178 175.013 56.8238 174.808 56.7351 174.303C56.6965 174.046 56.7277 173.783 56.8252 173.542C56.9228 173.301 57.0833 173.09 57.2899 172.932C57.6839 172.683 58.0723 172.888 58.1611 173.393Z" fill="#263238"/>
<path d="M55.3202 175.218C55.3599 175.475 55.3294 175.739 55.2317 175.98C55.134 176.221 54.9728 176.431 54.7653 176.589C54.3769 176.838 53.983 176.633 53.8942 176.128C53.8562 175.871 53.8876 175.608 53.9852 175.367C54.0827 175.126 54.2429 174.916 54.449 174.758C54.843 174.508 55.2314 174.713 55.3202 175.218Z" fill="#263238"/>
<path d="M56.4465 172.494C56.4869 172.751 56.4566 173.015 56.3589 173.256C56.2611 173.497 56.0996 173.708 55.8917 173.864C55.5033 174.12 55.1093 173.914 55.0205 173.41C54.982 173.152 55.0131 172.89 55.1107 172.648C55.2083 172.407 55.3688 172.197 55.5754 172.039C55.9693 171.789 56.3577 171.989 56.4465 172.494Z" fill="#263238"/>
<path d="M57.0902 176.151C57.1295 176.407 57.0987 176.669 57.001 176.91C56.9033 177.15 56.7424 177.359 56.5353 177.516C56.1469 177.771 55.753 177.566 55.6642 177.061C55.6256 176.804 55.6568 176.541 55.7544 176.3C55.852 176.059 56.0124 175.848 56.2191 175.69C56.613 175.441 57.0014 175.646 57.0902 176.151Z" fill="#263238"/>
<path d="M58.1943 173.409C58.2329 173.667 58.2018 173.93 58.1042 174.171C58.0066 174.412 57.8461 174.622 57.6395 174.78C57.2455 175.03 56.8571 174.824 56.7684 174.325C56.728 174.068 56.7583 173.804 56.856 173.563C56.9537 173.322 57.1152 173.111 57.3232 172.955C57.7116 172.699 58.1056 172.905 58.1943 173.409Z" fill="#263238"/>
<path d="M55.3535 175.235C55.392 175.492 55.3609 175.755 55.2633 175.996C55.1657 176.237 55.0052 176.448 54.7986 176.606C54.4047 176.855 54.0162 176.656 53.9275 176.151C53.8871 175.893 53.9174 175.63 54.0151 175.389C54.1129 175.147 54.2743 174.937 54.4823 174.78C54.8707 174.525 55.2647 174.73 55.3535 175.235Z" fill="#263238"/>
<path d="M56.4798 172.516C56.5183 172.774 56.4872 173.036 56.3896 173.277C56.292 173.519 56.1315 173.729 55.9249 173.887C55.531 174.137 55.1426 173.931 55.0538 173.426C55.0145 173.17 55.0453 172.908 55.143 172.667C55.2407 172.427 55.4016 172.218 55.6086 172.061C55.997 171.806 56.391 172.028 56.4798 172.516Z" fill="#263238"/>
<path d="M57.1234 176.167C57.162 176.424 57.1308 176.687 57.0332 176.928C56.9356 177.169 56.7752 177.38 56.5686 177.538C56.1746 177.787 55.7862 177.588 55.6974 177.083C55.6571 176.826 55.6874 176.562 55.7851 176.321C55.8828 176.079 56.0443 175.869 56.2523 175.712C56.6407 175.457 57.0346 175.662 57.1234 176.167Z" fill="#263238"/>
<path d="M58.2221 173.426C58.2625 173.683 58.2322 173.947 58.1344 174.188C58.0367 174.43 57.8752 174.64 57.6672 174.797C57.2733 175.052 56.8849 174.847 56.7961 174.342C56.7563 174.084 56.7869 173.821 56.8846 173.58C56.9823 173.339 57.1434 173.128 57.351 172.971C57.7449 172.721 58.1333 172.921 58.2221 173.426Z" fill="#263238"/>
<path d="M55.3812 175.251C55.4216 175.509 55.3913 175.772 55.2936 176.013C55.1958 176.255 55.0343 176.465 54.8264 176.622C54.4324 176.877 54.044 176.672 53.9552 176.167C53.9155 175.91 53.946 175.646 54.0437 175.405C54.1414 175.164 54.3026 174.953 54.5101 174.796C54.904 174.547 55.2924 174.746 55.3812 175.251Z" fill="#263238"/>
<path d="M56.5076 172.533C56.5473 172.79 56.5168 173.053 56.4191 173.294C56.3214 173.536 56.1602 173.746 55.9527 173.903C55.5588 174.153 55.1704 173.953 55.0816 173.448C55.0412 173.191 55.0715 172.927 55.1692 172.686C55.267 172.445 55.4285 172.234 55.6364 172.078C56.0304 171.822 56.4188 172.028 56.5076 172.533Z" fill="#263238"/>
<path d="M57.1512 176.183C57.1916 176.441 57.1613 176.704 57.0636 176.946C56.9658 177.187 56.8044 177.397 56.5964 177.554C56.2024 177.809 55.814 177.604 55.7252 177.099C55.6855 176.842 55.7161 176.578 55.8137 176.337C55.9114 176.096 56.0726 175.886 56.2801 175.728C56.6741 175.479 57.0625 175.679 57.1512 176.183Z" fill="#263238"/>
<path d="M58.2498 173.449C58.289 173.706 58.2581 173.969 58.1605 174.21C58.0628 174.451 57.902 174.662 57.6949 174.819C57.301 175.069 56.9126 174.863 56.8238 174.359C56.7841 174.101 56.8146 173.838 56.9123 173.597C57.01 173.356 57.1711 173.145 57.3787 172.988C57.7726 172.738 58.161 172.944 58.2498 173.449Z" fill="#263238"/>
<path d="M55.409 175.274C55.4487 175.531 55.4181 175.794 55.3205 176.035C55.2228 176.277 55.0616 176.487 54.8541 176.644C54.4657 176.894 54.0717 176.689 53.983 176.184C53.9449 175.927 53.9762 175.666 54.0738 175.425C54.1714 175.185 54.3317 174.976 54.5378 174.819C54.9318 174.564 55.3202 174.769 55.409 175.274Z" fill="#263238"/>
<path d="M56.5353 172.549C56.5757 172.807 56.5454 173.07 56.4477 173.311C56.3499 173.553 56.1884 173.763 55.9805 173.92C55.5921 174.175 55.1981 173.97 55.1093 173.465C55.0708 173.208 55.1019 172.945 55.1995 172.704C55.2971 172.463 55.4576 172.252 55.6642 172.094C56.0581 171.845 56.4465 172.028 56.5353 172.549Z" fill="#263238"/>
<path d="M57.1789 176.206C57.2181 176.463 57.1872 176.726 57.0896 176.967C56.9919 177.208 56.8311 177.419 56.6241 177.576C56.2357 177.826 55.8417 177.621 55.7529 177.116C55.7144 176.859 55.7455 176.596 55.8431 176.355C55.9407 176.114 56.1012 175.903 56.3078 175.745C56.7018 175.496 57.0902 175.701 57.1789 176.206Z" fill="#263238"/>
<path d="M58.2776 173.465C58.3173 173.722 58.2867 173.986 58.1891 174.227C58.0914 174.468 57.9302 174.679 57.7227 174.836C57.3343 175.085 56.9404 174.886 56.8516 174.381C56.8124 174.123 56.8433 173.86 56.9409 173.619C57.0386 173.378 57.1994 173.168 57.4064 173.01C57.8004 172.755 58.1888 172.96 58.2776 173.465Z" fill="#263238"/>
<path d="M55.4422 175.29C55.4808 175.548 55.4496 175.81 55.352 176.051C55.2544 176.292 55.094 176.503 54.8873 176.661C54.4934 176.911 54.105 176.711 54.0162 176.206C53.9758 175.949 54.0061 175.685 54.1039 175.444C54.2016 175.202 54.3631 174.992 54.5711 174.835C54.9595 174.58 55.3534 174.802 55.4422 175.29Z" fill="#263238"/>
<path d="M56.5686 172.583C56.6072 172.84 56.576 173.103 56.4784 173.344C56.3808 173.585 56.2204 173.796 56.0138 173.953C55.6198 174.203 55.2314 173.998 55.1426 173.498C55.1022 173.241 55.1325 172.978 55.2303 172.736C55.328 172.495 55.4895 172.285 55.6975 172.128C56.0859 171.862 56.4798 172.067 56.5686 172.583Z" fill="#263238"/>
<path d="M57.2123 176.222C57.2508 176.48 57.2197 176.743 57.1221 176.984C57.0245 177.225 56.864 177.435 56.6574 177.593C56.2635 177.843 55.8751 177.643 55.7863 177.138C55.7459 176.881 55.7762 176.617 55.8739 176.376C55.9717 176.135 56.1332 175.924 56.3412 175.768C56.7296 175.512 57.1235 175.718 57.2123 176.222Z" fill="#263238"/>
<path d="M58.3108 173.481C58.35 173.739 58.3191 174.002 58.2215 174.243C58.1239 174.484 57.9631 174.694 57.756 174.852C57.362 175.107 56.9736 174.902 56.8848 174.397C56.8451 174.14 56.8757 173.876 56.9734 173.635C57.071 173.394 57.2322 173.183 57.4397 173.026C57.8281 172.777 58.2221 172.976 58.3108 173.481Z" fill="#263238"/>
<path d="M55.47 175.307C55.5103 175.564 55.48 175.828 55.3823 176.069C55.2846 176.31 55.1231 176.521 54.9151 176.677C54.5211 176.933 54.1327 176.727 54.044 176.222C54.0042 175.965 54.0348 175.702 54.1325 175.461C54.2302 175.219 54.3913 175.009 54.5988 174.852C54.9928 174.602 55.3812 174.802 55.47 175.307Z" fill="#263238"/>
<path d="M56.5963 172.583C56.6367 172.84 56.6064 173.104 56.5087 173.345C56.4109 173.586 56.2494 173.797 56.0415 173.953C55.6475 174.209 55.2591 174.003 55.1703 173.498C55.13 173.241 55.1603 172.978 55.258 172.736C55.3557 172.495 55.5172 172.285 55.7252 172.128C56.1191 171.878 56.5075 172.083 56.5963 172.583Z" fill="#263238"/>
<path d="M57.24 176.239C57.2803 176.496 57.2501 176.76 57.1523 177.001C57.0546 177.243 56.8931 177.453 56.6851 177.61C56.2912 177.865 55.9028 177.66 55.814 177.155C55.7742 176.897 55.8048 176.634 55.9025 176.393C56.0002 176.152 56.1613 175.941 56.3688 175.784C56.7628 175.534 57.1512 175.734 57.24 176.239Z" fill="#263238"/>
<path d="M58.3386 173.504C58.3784 173.761 58.3478 174.024 58.2501 174.265C58.1525 174.507 57.9913 174.717 57.7838 174.874C57.3898 175.124 57.0014 174.919 56.9127 174.414C56.8733 174.157 56.9042 173.895 57.0018 173.655C57.0995 173.414 57.2605 173.205 57.4675 173.049C57.8615 172.794 58.2499 172.999 58.3386 173.504Z" fill="#263238"/>
<path d="M55.4977 175.357C55.5374 175.614 55.5069 175.878 55.4092 176.119C55.3115 176.36 55.1503 176.57 54.9428 176.728C54.5544 176.977 54.1605 176.772 54.0717 176.273C54.0313 176.015 54.0616 175.752 54.1593 175.511C54.2571 175.269 54.4186 175.059 54.6266 174.902C55.0205 174.619 55.4089 174.802 55.4977 175.357Z" fill="#263238"/>
<path d="M56.6241 172.611C56.6634 172.867 56.6326 173.129 56.5349 173.37C56.4372 173.61 56.2763 173.819 56.0692 173.976C55.6753 174.231 55.2869 174.026 55.1981 173.521C55.1583 173.263 55.1889 173 55.2866 172.759C55.3843 172.518 55.5454 172.307 55.7529 172.15C56.1469 171.9 56.5353 172.106 56.6241 172.611Z" fill="#263238"/>
<path d="M57.2677 176.262C57.3075 176.519 57.2769 176.782 57.1792 177.023C57.0815 177.265 56.9204 177.475 56.7129 177.632C56.3245 177.882 55.9305 177.676 55.8417 177.172C55.8024 176.915 55.8332 176.653 55.9309 176.413C56.0286 176.172 56.1895 175.963 56.3966 175.807C56.7905 175.551 57.179 175.757 57.2677 176.262Z" fill="#263238"/>
<path d="M58.3663 173.52C58.4061 173.778 58.3755 174.041 58.2778 174.282C58.1801 174.523 58.019 174.734 57.8114 174.891C57.423 175.141 57.0291 174.941 56.9403 174.436C56.9012 174.179 56.932 173.916 57.0297 173.674C57.1273 173.433 57.2881 173.223 57.4952 173.065C57.8891 172.81 58.2775 173.015 58.3663 173.52Z" fill="#263238"/>
<path d="M55.5254 175.357C55.5658 175.614 55.5355 175.878 55.4378 176.119C55.3401 176.36 55.1786 176.571 54.9706 176.727C54.5822 176.983 54.1938 176.777 54.0994 176.272C54.0603 176.015 54.0911 175.752 54.1888 175.511C54.2864 175.27 54.4472 175.059 54.6543 174.902C55.0483 174.636 55.4367 174.841 55.5254 175.357Z" fill="#263238"/>
<path d="M56.6518 172.627C56.6916 172.885 56.661 173.148 56.5633 173.389C56.4656 173.63 56.3045 173.841 56.097 173.998C55.7086 174.247 55.3146 174.042 55.2258 173.543C55.1867 173.286 55.2176 173.023 55.3152 172.781C55.4128 172.54 55.5736 172.33 55.7807 172.172C56.1747 171.917 56.5631 172.122 56.6518 172.627Z" fill="#263238"/>
<path d="M57.2955 176.278C57.3352 176.535 57.3047 176.799 57.207 177.04C57.1093 177.281 56.9481 177.492 56.7406 177.649C56.3522 177.898 55.9638 177.699 55.875 177.194C55.8347 176.936 55.865 176.673 55.9627 176.432C56.0604 176.19 56.2219 175.98 56.4299 175.823C56.8183 175.568 57.2067 175.773 57.2955 176.278Z" fill="#263238"/>
<path d="M58.3996 173.537C58.4387 173.794 58.4079 174.057 58.3102 174.298C58.2126 174.539 58.0518 174.75 57.8447 174.907C57.4508 175.163 57.0624 174.957 56.9736 174.452C56.9338 174.195 56.9644 173.932 57.0621 173.691C57.1598 173.449 57.3209 173.239 57.5285 173.082C57.9169 172.832 58.3108 173.038 58.3996 173.537Z" fill="#263238"/>
<path d="M55.5588 175.357C55.5969 175.613 55.5655 175.875 55.4679 176.115C55.3703 176.355 55.2101 176.565 55.0039 176.722C54.61 176.977 54.2216 176.772 54.1328 176.267C54.093 176.01 54.1236 175.746 54.2213 175.505C54.319 175.264 54.4801 175.053 54.6876 174.896C55.076 174.658 55.47 174.863 55.5588 175.357Z" fill="#263238"/>
<path d="M56.6851 172.644C56.7243 172.901 56.6934 173.164 56.5958 173.405C56.4981 173.646 56.3373 173.857 56.1302 174.014C55.7363 174.27 55.3479 174.064 55.2591 173.559C55.2194 173.302 55.2499 173.039 55.3476 172.798C55.4453 172.556 55.6065 172.346 55.814 172.189C56.2024 171.939 56.5963 172.139 56.6851 172.644Z" fill="#263238"/>
<path d="M57.3287 176.295C57.3679 176.552 57.337 176.815 57.2394 177.056C57.1417 177.297 56.9809 177.508 56.7739 177.665C56.3799 177.92 55.9915 177.715 55.9027 177.21C55.863 176.953 55.8936 176.69 55.9912 176.449C56.0889 176.207 56.2501 175.997 56.4576 175.84C56.8682 175.59 57.24 175.795 57.3287 176.295Z" fill="#263238"/>
<path d="M58.4274 173.559C58.4671 173.817 58.4366 174.08 58.3389 174.321C58.2412 174.562 58.08 174.773 57.8725 174.93C57.4786 175.18 57.0902 174.974 57.0014 174.475C56.961 174.218 56.9913 173.954 57.089 173.713C57.1868 173.471 57.3483 173.261 57.5562 173.104C57.9779 172.849 58.3386 173.054 58.4274 173.559Z" fill="#263238"/>
<path d="M55.5865 175.385C55.6263 175.642 55.5957 175.906 55.498 176.147C55.4003 176.388 55.2392 176.598 55.0316 176.756C54.6377 177.005 54.2493 176.8 54.1605 176.301C54.1201 176.043 54.1504 175.78 54.2482 175.539C54.3459 175.297 54.5074 175.087 54.7154 174.93C55.1093 174.675 55.4977 174.88 55.5865 175.385Z" fill="#263238"/>
<path d="M56.7128 172.666C56.752 172.923 56.7211 173.186 56.6235 173.427C56.5258 173.668 56.365 173.879 56.158 174.036C55.764 174.286 55.3756 174.081 55.2868 173.576C55.2471 173.319 55.2777 173.055 55.3753 172.814C55.473 172.573 55.6342 172.362 55.8417 172.205C56.2356 171.956 56.624 172.161 56.7128 172.666Z" fill="#263238"/>
<path d="M57.3565 176.317C57.3963 176.574 57.3657 176.838 57.268 177.079C57.1703 177.32 57.0092 177.531 56.8017 177.688C56.4077 177.937 56.0193 177.732 55.9305 177.233C55.8901 176.975 55.9204 176.712 56.0182 176.471C56.1159 176.229 56.2774 176.019 56.4854 175.862C56.8682 175.607 57.2677 175.812 57.3565 176.317Z" fill="#263238"/>
<path d="M58.4551 173.576C58.4954 173.833 58.4651 174.097 58.3674 174.338C58.2697 174.579 58.1082 174.79 57.9002 174.947C57.5118 175.202 57.1178 174.996 57.0291 174.492C56.9899 174.234 57.0208 173.971 57.1184 173.73C57.2161 173.489 57.3769 173.279 57.5839 173.121C57.9779 172.866 58.3663 173.071 58.4551 173.576Z" fill="#263238"/>
<path d="M55.6142 175.401C55.6546 175.658 55.6243 175.922 55.5266 176.163C55.4289 176.405 55.2674 176.615 55.0594 176.772C54.671 177.027 54.277 176.822 54.1882 176.317C54.1497 176.06 54.1808 175.797 54.2784 175.556C54.376 175.315 54.5365 175.104 54.7431 174.946C55.1371 174.697 55.5255 174.896 55.6142 175.401Z" fill="#263238"/>
<path d="M67.1553 165.997L67.5659 166.213L66.1455 167.129L65.7349 166.912L67.1553 165.997Z" fill="#263238"/>
<path d="M66.0567 168.738L66.4673 168.954L65.0468 169.864L64.6362 169.648L66.0567 168.738Z" fill="#263238"/>
<path d="M67.8877 168.038L67.8101 167.611L68.9031 166.912L69.3082 167.129L67.8877 168.038Z" fill="#263238"/>
<path d="M64.6362 169.647L65.0468 169.864L65.3687 171.689L64.9581 171.479L64.6362 169.647Z" fill="#263238"/>
<path d="M66.7003 172.388L67.1109 172.605L66.7891 170.779L66.4562 170.996L66.7003 172.388Z" fill="#263238"/>
<path d="M56.7128 172.666C56.752 172.923 56.7211 173.186 56.6235 173.427C56.5258 173.668 56.365 173.879 56.158 174.036C55.764 174.286 55.3756 174.081 55.2868 173.576C55.2471 173.319 55.2777 173.055 55.3753 172.814C55.473 172.573 55.6342 172.362 55.8417 172.205C56.2356 171.956 56.624 172.161 56.7128 172.666Z" fill="#3DBBC3"/>
<path d="M57.3565 176.317C57.3963 176.574 57.3657 176.838 57.268 177.079C57.1703 177.32 57.0092 177.531 56.8017 177.688C56.4077 177.937 56.0193 177.732 55.9305 177.233C55.8901 176.975 55.9204 176.712 56.0182 176.471C56.1159 176.229 56.2774 176.019 56.4854 175.862C56.8682 175.607 57.2677 175.812 57.3565 176.317Z" fill="#3DBBC3"/>
<path d="M58.4551 173.576C58.4954 173.833 58.4651 174.097 58.3674 174.338C58.2697 174.579 58.1082 174.79 57.9002 174.947C57.5118 175.202 57.1178 174.996 57.0291 174.492C56.9899 174.234 57.0208 173.971 57.1184 173.73C57.2161 173.489 57.3769 173.279 57.5839 173.121C57.9779 172.866 58.3663 173.071 58.4551 173.576Z" fill="#3DBBC3"/>
<path d="M55.6142 175.401C55.6546 175.658 55.6243 175.922 55.5266 176.163C55.4289 176.405 55.2674 176.615 55.0594 176.772C54.671 177.027 54.277 176.822 54.1882 176.317C54.1497 176.06 54.1808 175.797 54.2784 175.556C54.376 175.315 54.5365 175.104 54.7431 174.946C55.1371 174.697 55.5255 174.896 55.6142 175.401Z" fill="#3DBBC3"/>
<path d="M70.3624 17.6046L64.3977 21.0447C64.4307 20.7834 64.4474 20.5202 64.4476 20.2568V18.5312C64.4476 15.4573 62.2892 14.2089 59.6314 15.7569C58.4824 16.4609 57.5014 17.4078 56.7572 18.5312C56.3189 14.6472 53.2894 13.2267 49.6051 15.3519C45.6212 17.6545 42.3919 23.2475 42.3919 27.8418V30.4274C42.3665 31.4594 42.5752 32.4838 43.0023 33.4237L38.0474 36.2812C37.2692 36.7893 36.6216 37.4735 36.157 38.2784C35.6924 39.0833 35.4238 39.9863 35.3729 40.9143C35.3729 42.6177 36.5714 43.3113 38.0474 42.4568L70.3624 23.8024C71.1406 23.2942 71.7882 22.61 72.2528 21.8051C72.7174 21.0002 72.986 20.0973 73.0368 19.1693C73.0368 17.4437 71.8494 16.7501 70.3624 17.6046Z" fill="#F0F0F0"/>
<path d="M194.291 172.644L193.181 172.017L193.969 171.662C193.969 171.662 194.585 171.828 194.601 171.856C194.596 171.999 194.581 172.142 194.557 172.283L194.291 172.644Z" fill="#E0E0E0"/>
<path d="M194.291 172.644L193.181 172.017L193.969 171.662C193.969 171.662 194.585 171.828 194.601 171.856C194.596 171.999 194.581 172.142 194.557 172.283L194.291 172.644Z" fill="#3DBBC3"/>
<path opacity="0.1" d="M194.291 172.644L193.181 172.017L193.969 171.662C193.969 171.662 194.585 171.828 194.601 171.856C194.596 171.999 194.581 172.142 194.557 172.283L194.291 172.644Z" fill="white"/>
<path d="M152.998 193.446C153.49 193.695 154.033 193.824 154.585 193.824C155.136 193.824 155.68 193.695 156.172 193.446L191.76 172.916L138.494 142.154L137.251 141.438L101.662 161.968C100.791 162.473 100.791 163.3 101.662 163.799L152.998 193.446Z" fill="#3DBBC3"/>
<path opacity="0.8" d="M152.998 193.446C153.49 193.695 154.033 193.824 154.585 193.824C155.136 193.824 155.68 193.695 156.172 193.446L191.76 172.916L138.494 142.154L137.251 141.438L101.662 161.968C100.791 162.473 100.791 163.3 101.662 163.799L152.998 193.446Z" fill="white"/>
<path d="M166.364 154.627L178.777 161.768L186.811 157.13L196.138 162.534V169.254C196.138 170.069 195.223 171.229 194.89 171.04C194.274 171.189 193.675 171.401 193.103 171.673C192.17 172.203 191.304 172.844 190.523 173.581L162.003 157.119L166.364 154.627Z" fill="#E0E0E0"/>
<path d="M166.364 154.627L178.777 161.768L186.811 157.13L196.138 162.534V169.254C196.138 170.069 195.223 171.229 194.89 171.04C194.274 171.189 193.675 171.401 193.103 171.673C192.17 172.203 191.304 172.844 190.523 173.581L162.003 157.119L166.364 154.627Z" fill="#3DBBC3"/>
<path opacity="0.1" d="M166.364 154.627L178.777 161.768L186.811 157.13L196.138 162.534V169.254C196.138 170.069 195.223 171.229 194.89 171.04C194.274 171.189 193.675 171.401 193.103 171.673C192.17 172.203 191.304 172.844 190.523 173.581L162.003 157.119L166.364 154.627Z" fill="white"/>
<path d="M156.188 193.44L158.336 192.197L190.556 173.598C190.581 173.178 190.734 172.775 190.995 172.444C191.375 171.938 191.855 171.515 192.404 171.201C192.864 170.92 193.386 170.758 193.924 170.73C194.284 170.725 194.636 170.84 194.923 171.057C195.342 170.233 195.547 169.317 195.517 168.394H196.737C196.737 170.058 196.183 171.767 195.5 172.156L194.884 172.516C194.535 172.716 194.257 172.727 194.257 172.516V172.189C194.257 171.823 193.702 171.839 193.014 172.239C192.326 172.638 191.777 173.249 191.777 173.615V173.948C191.777 174.136 191.3 174.558 190.723 174.891L159.562 192.885L156.188 194.827C155.7 195.08 155.157 195.207 154.607 195.199V193.79C155.155 193.812 155.7 193.691 156.188 193.44Z" fill="#3DBBC3"/>
<path opacity="0.6" d="M156.188 193.44L158.336 192.197L190.556 173.598C190.581 173.178 190.734 172.775 190.995 172.444C191.375 171.938 191.855 171.515 192.404 171.201C192.864 170.92 193.386 170.758 193.924 170.73C194.284 170.725 194.636 170.84 194.923 171.057C195.342 170.233 195.547 169.317 195.517 168.394H196.737C196.737 170.058 196.183 171.767 195.5 172.156L194.884 172.516C194.535 172.716 194.257 172.727 194.257 172.516V172.189C194.257 171.823 193.702 171.839 193.014 172.239C192.326 172.638 191.777 173.249 191.777 173.615V173.948C191.777 174.136 191.3 174.558 190.723 174.891L159.562 192.885L156.188 194.827C155.7 195.08 155.157 195.207 154.607 195.199V193.79C155.155 193.812 155.7 193.691 156.188 193.44Z" fill="white"/>
<path d="M100.996 162.856V164.293C101.015 164.485 101.083 164.669 101.193 164.826C101.304 164.984 101.454 165.11 101.629 165.192L149.608 192.891L152.976 194.833C153.464 195.085 154.007 195.213 154.557 195.204V193.795C154.004 193.808 153.456 193.676 152.97 193.412L150.828 192.175L101.629 163.76C101.454 163.678 101.303 163.551 101.192 163.392C101.081 163.234 101.014 163.049 100.996 162.856Z" fill="#3DBBC3"/>
<path opacity="0.1" d="M100.996 162.856V164.293C101.015 164.485 101.083 164.669 101.193 164.826C101.304 164.984 101.454 165.11 101.629 165.192L149.608 192.891L152.976 194.833C153.464 195.085 154.007 195.213 154.557 195.204V193.795C154.004 193.808 153.456 193.676 152.97 193.412L150.828 192.175L101.629 163.76C101.454 163.678 101.303 163.551 101.192 163.392C101.081 163.234 101.014 163.049 100.996 162.856Z" fill="white"/>
<path d="M154.585 184.324V192.558C154.952 192.569 155.316 192.483 155.639 192.308L159.523 190.055L189.258 172.888V164.299L154.585 184.324Z" fill="white"/>
<path d="M102.544 155.304V161.635C102.564 162.002 102.669 162.359 102.853 162.677C103.036 162.995 103.291 163.265 103.599 163.466L149.652 190.044L153.536 192.297C153.86 192.471 154.223 192.557 154.59 192.546V185.195L102.544 155.304Z" fill="#F0F0F0"/>
<path d="M189.28 172.877C189.31 172.455 189.466 172.053 189.73 171.722C190.112 171.22 190.591 170.799 191.139 170.485C191.595 170.2 192.116 170.035 192.654 170.008C193.015 170.005 193.368 170.12 193.658 170.335V161.763L189.291 164.287L189.28 172.877Z" fill="#455A64"/>
<path d="M191.028 170.557C190.522 170.856 190.081 171.252 189.73 171.723C189.466 172.053 189.31 172.455 189.28 172.877V164.687H191.022L191.028 170.557Z" fill="#F5F5F5"/>
<path d="M138.483 132.078L191.749 162.84V163.555C191.749 163.949 192.304 164.11 192.987 163.7C193.669 163.289 194.229 162.812 194.229 162.129L194.296 161.452L140.014 130.114L139.798 129.986C139.741 130.087 139.709 130.199 139.703 130.314V130.647C139.714 131.057 139.165 131.695 138.483 132.078Z" fill="#3DBBC3"/>
<path opacity="0.6" d="M138.483 132.078L191.749 162.84V163.555C191.749 163.949 192.304 164.11 192.987 163.7C193.669 163.289 194.229 162.812 194.229 162.129L194.296 161.452L140.014 130.114L139.798 129.986C139.741 130.087 139.709 130.199 139.703 130.314V130.647C139.714 131.057 139.165 131.695 138.483 132.078Z" fill="white"/>
<path d="M156.188 183.408L190.989 163.311C191.427 163.084 191.832 162.895 192.004 162.984L191.777 162.856L138.51 132.095L137.889 131.734C137.61 131.655 137.317 131.636 137.03 131.679C136.743 131.722 136.468 131.826 136.224 131.984L101.695 151.925C100.824 152.43 100.824 153.251 101.695 153.756L153.042 183.408C153.53 183.653 154.069 183.78 154.615 183.78C155.161 183.78 155.7 183.653 156.188 183.408Z" fill="#3DBBC3"/>
<path opacity="0.8" d="M156.188 183.408L190.989 163.311C191.427 163.084 191.832 162.895 192.004 162.984L191.777 162.856L138.51 132.095L137.889 131.734C137.61 131.655 137.317 131.636 137.03 131.679C136.743 131.722 136.468 131.826 136.224 131.984L101.695 151.925C100.824 152.43 100.824 153.251 101.695 153.756L153.042 183.408C153.53 183.653 154.069 183.78 154.615 183.78C155.161 183.78 155.7 183.653 156.188 183.408Z" fill="white"/>
<path d="M139.809 130.003L140.025 130.13L194.307 161.486C194.335 161.428 194.374 161.377 194.424 161.336L194.607 161.23L195.001 161.008L195.483 160.726C195.577 160.663 195.689 160.635 195.801 160.645C195.913 160.655 196.018 160.703 196.099 160.781C196.122 160.796 196.143 160.815 196.16 160.836C196.226 160.903 196.28 160.98 196.321 161.064C196.38 161.16 196.429 161.262 196.465 161.369C196.508 161.483 196.543 161.6 196.571 161.719C196.604 161.857 196.626 161.991 196.654 162.135C196.669 162.217 196.678 162.301 196.682 162.385C196.682 162.451 196.682 162.512 196.682 162.59C196.682 162.668 196.682 162.901 196.682 163.061V161.536C196.625 161.034 196.451 160.553 196.176 160.13C195.9 159.708 195.53 159.355 195.095 159.1L143.743 129.448C143.32 129.198 142.845 129.05 142.355 129.014C141.865 128.979 141.373 129.057 140.918 129.243L140.269 129.62L139.992 129.775C139.912 129.834 139.848 129.912 139.809 130.003Z" fill="#3DBBC3"/>
<path opacity="0.8" d="M139.809 130.003L140.025 130.13L194.307 161.486C194.335 161.428 194.374 161.377 194.424 161.336L194.607 161.23L195.001 161.008L195.483 160.726C195.577 160.663 195.689 160.635 195.801 160.645C195.913 160.655 196.018 160.703 196.099 160.781C196.122 160.796 196.143 160.815 196.16 160.836C196.226 160.903 196.28 160.98 196.321 161.064C196.38 161.16 196.429 161.262 196.465 161.369C196.508 161.483 196.543 161.6 196.571 161.719C196.604 161.857 196.626 161.991 196.654 162.135C196.669 162.217 196.678 162.301 196.682 162.385C196.682 162.451 196.682 162.512 196.682 162.59C196.682 162.668 196.682 162.901 196.682 163.061V161.536C196.625 161.034 196.451 160.553 196.176 160.13C195.9 159.708 195.53 159.355 195.095 159.1L143.743 129.448C143.32 129.198 142.845 129.05 142.355 129.014C141.865 128.979 141.373 129.057 140.918 129.243L140.269 129.62L139.992 129.775C139.912 129.834 139.848 129.912 139.809 130.003Z" fill="white"/>
<path d="M156.188 183.413L158.341 182.165L183.093 167.883L190.995 163.322C191.549 162.989 192.016 162.873 192.043 163.045V163.4C192.043 163.799 192.598 163.799 193.281 163.4C193.534 163.29 193.755 163.118 193.926 162.902C194.096 162.685 194.21 162.429 194.257 162.157V161.768C194.249 161.682 194.261 161.594 194.293 161.514C194.325 161.433 194.375 161.36 194.44 161.302L194.623 161.197L195.017 160.975L195.5 160.692C195.594 160.63 195.706 160.601 195.818 160.611C195.93 160.621 196.035 160.669 196.116 160.747C196.139 160.763 196.16 160.781 196.177 160.803C196.218 160.846 196.254 160.895 196.282 160.947C196.306 160.971 196.325 160.999 196.338 161.03C196.397 161.127 196.445 161.229 196.482 161.336C196.525 161.45 196.56 161.567 196.588 161.685C196.621 161.824 196.643 161.957 196.671 162.101C196.686 162.184 196.695 162.267 196.699 162.351C196.699 162.418 196.699 162.479 196.699 162.556C196.699 162.634 196.699 162.867 196.699 163.028V168.377H195.478V163.028C195.478 162.9 195.478 162.773 195.478 162.651L195.445 162.345C195.447 162.336 195.447 162.327 195.445 162.318C195.334 163.289 194.407 164.154 193.602 164.609C193.156 164.891 192.643 165.052 192.115 165.075C191.708 165.081 191.314 164.936 191.006 164.67L190.895 164.731L190.684 164.859L159.523 182.853L156.188 184.817C155.708 185.063 155.174 185.187 154.635 185.178V183.769C155.174 183.78 155.708 183.658 156.188 183.413Z" fill="#3DBBC3"/>
<path opacity="0.6" d="M156.188 183.413L158.341 182.165L183.093 167.883L190.995 163.322C191.549 162.989 192.016 162.873 192.043 163.045V163.4C192.043 163.799 192.598 163.799 193.281 163.4C193.534 163.29 193.755 163.118 193.926 162.902C194.096 162.685 194.21 162.429 194.257 162.157V161.768C194.249 161.682 194.261 161.594 194.293 161.514C194.325 161.433 194.375 161.36 194.44 161.302L194.623 161.197L195.017 160.975L195.5 160.692C195.594 160.63 195.706 160.601 195.818 160.611C195.93 160.621 196.035 160.669 196.116 160.747C196.139 160.763 196.16 160.781 196.177 160.803C196.218 160.846 196.254 160.895 196.282 160.947C196.306 160.971 196.325 160.999 196.338 161.03C196.397 161.127 196.445 161.229 196.482 161.336C196.525 161.45 196.56 161.567 196.588 161.685C196.621 161.824 196.643 161.957 196.671 162.101C196.686 162.184 196.695 162.267 196.699 162.351C196.699 162.418 196.699 162.479 196.699 162.556C196.699 162.634 196.699 162.867 196.699 163.028V168.377H195.478V163.028C195.478 162.9 195.478 162.773 195.478 162.651L195.445 162.345C195.447 162.336 195.447 162.327 195.445 162.318C195.334 163.289 194.407 164.154 193.602 164.609C193.156 164.891 192.643 165.052 192.115 165.075C191.708 165.081 191.314 164.936 191.006 164.67L190.895 164.731L190.684 164.859L159.523 182.853L156.188 184.817C155.708 185.063 155.174 185.187 154.635 185.178V183.769C155.174 183.78 155.708 183.658 156.188 183.413Z" fill="white"/>
<path d="M100.996 152.824V154.272C101.014 154.465 101.081 154.65 101.192 154.809C101.303 154.967 101.454 155.094 101.629 155.177L149.608 182.875L152.976 184.823C153.464 185.076 154.007 185.203 154.557 185.195V183.785C154.004 183.798 153.458 183.668 152.97 183.408L150.828 182.171L101.629 153.756C101.45 153.672 101.297 153.54 101.185 153.377C101.074 153.213 101.009 153.022 100.996 152.824Z" fill="#3DBBC3"/>
<path opacity="0.1" d="M100.996 152.824V154.272C101.014 154.465 101.081 154.65 101.192 154.809C101.303 154.967 101.454 155.094 101.629 155.177L149.608 182.875L152.976 184.823C153.464 185.076 154.007 185.203 154.557 185.195V183.785C154.004 183.798 153.458 183.668 152.97 183.408L150.828 182.171L101.629 153.756C101.45 153.672 101.297 153.54 101.185 153.377C101.074 153.213 101.009 153.022 100.996 152.824Z" fill="white"/>
<path d="M136.18 131.984C136.424 131.826 136.698 131.722 136.985 131.679C137.272 131.636 137.565 131.654 137.845 131.734L138.466 132.095C139.148 131.695 139.698 131.057 139.698 130.663V130.33C139.703 130.215 139.735 130.103 139.792 130.003C139.836 129.913 139.903 129.836 139.986 129.781L140.264 129.625L140.913 129.248C141.368 129.062 141.859 128.984 142.349 129.02C142.839 129.055 143.314 129.204 143.737 129.453L195.089 159.105L195.145 159.138L158.907 180.062C158.58 180.229 158.218 180.316 157.85 180.316C157.483 180.316 157.12 180.229 156.793 180.062L105.108 149.928L136.18 131.984Z" fill="#263238"/>
<path d="M161.809 177.021L160.438 176.234C160.807 176.105 161.204 176.077 161.587 176.15C161.953 176.339 161.809 177.021 161.809 177.021Z" fill="#3DBBC3"/>
<path opacity="0.7" d="M161.809 177.021L160.438 176.234C160.807 176.105 161.204 176.077 161.587 176.15C161.953 176.339 161.809 177.021 161.809 177.021Z" fill="black"/>
<path d="M162.752 176.173C162.596 176.004 162.407 175.869 162.197 175.777C161.986 175.684 161.759 175.637 161.529 175.637C161.299 175.637 161.071 175.684 160.861 175.777C160.65 175.869 160.461 176.004 160.305 176.173C158.968 177.399 158.901 178.614 158.347 178.597C157.792 178.581 157.792 168.804 157.792 168.804L163.068 173.693L162.752 176.173Z" fill="#3DBBC3"/>
<path opacity="0.7" d="M162.752 176.173C162.596 176.004 162.407 175.869 162.197 175.777C161.986 175.684 161.759 175.637 161.529 175.637C161.299 175.637 161.071 175.684 160.861 175.777C160.65 175.869 160.461 176.004 160.305 176.173C158.968 177.399 158.901 178.614 158.347 178.597C157.792 178.581 157.792 168.804 157.792 168.804L163.068 173.693L162.752 176.173Z" fill="black"/>
<path d="M107.588 140.634L107.499 140.584L108.343 140.096L144.675 119.122L197.614 153.379C198.485 153.884 198.641 154.616 197.958 155.005L196.721 155.721L162.763 175.357L162.519 175.18L107.588 140.634Z" fill="#3DBBC3"/>
<path opacity="0.5" d="M107.588 140.634L107.499 140.584L108.343 140.096L144.675 119.122L197.614 153.379C198.485 153.884 198.641 154.616 197.958 155.005L196.721 155.721L162.763 175.357L162.519 175.18L107.588 140.634Z" fill="black"/>
<path d="M158.23 164.176L160.86 163.622V174.164C159.273 174.841 158.263 175.473 158.086 176.8L158.23 164.176Z" fill="#455A64"/>
<path d="M162.02 174.303L195.661 154.883C195.969 154.683 196.226 154.412 196.41 154.094C196.594 153.776 196.701 153.419 196.721 153.052V142.67L162.752 162.451C162.752 162.451 162.347 163.922 161.143 164.382C159.939 164.843 160.86 165.314 160.86 165.314V174.192C161.898 174.042 162.02 174.303 162.02 174.303Z" fill="#F0F0F0"/>
<path d="M158.918 163.816C159.268 163.616 159.545 163.605 159.545 163.816V164.143C159.545 164.51 160.1 164.493 160.788 164.094C161.476 163.694 162.031 163.084 162.031 162.717V162.385C162.031 162.196 162.503 161.774 163.08 161.441L108.348 130.081L107.499 130.569C107.382 130.694 107.308 130.853 107.288 131.024V131.357C107.288 131.723 106.734 132.339 106.051 132.733C105.369 133.127 104.808 133.149 104.808 132.783V132.45C104.808 132.261 104.531 132.278 104.187 132.478L158.918 163.816Z" fill="#3DBBC3"/>
<path opacity="0.6" d="M158.918 163.816C159.268 163.616 159.545 163.605 159.545 163.816V164.143C159.545 164.51 160.1 164.493 160.788 164.094C161.476 163.694 162.031 163.084 162.031 162.717V162.385C162.031 162.196 162.503 161.774 163.08 161.441L108.348 130.081L107.499 130.569C107.382 130.694 107.308 130.853 107.288 131.024V131.357C107.288 131.723 106.734 132.339 106.051 132.733C105.369 133.127 104.808 133.149 104.808 132.783V132.45C104.808 132.261 104.531 132.278 104.187 132.478L158.918 163.816Z" fill="black"/>
<path d="M107.588 130.596L107.499 130.546L108.343 130.058L144.675 109.084L197.614 139.657C198.485 140.162 198.641 140.889 197.958 141.283L196.721 141.993L162.752 162.451L107.588 130.596Z" fill="#3DBBC3"/>
<path opacity="0.5" d="M107.588 130.596L107.499 130.546L108.343 130.058L144.675 109.084L197.614 139.657C198.485 140.162 198.641 140.889 197.958 141.283L196.721 141.993L162.752 162.451L107.588 130.596Z" fill="black"/>
<path d="M104.797 132.111L159.517 163.705L157.603 165.203L103.088 133.732C103.221 133.327 103.475 132.972 103.815 132.716L104.797 132.111Z" fill="#3DBBC3"/>
<path opacity="0.5" d="M104.797 132.111L159.517 163.705L157.603 165.203L103.088 133.732C103.221 133.327 103.475 132.972 103.815 132.716L104.797 132.111Z" fill="black"/>
<path d="M103.271 147.853C103.237 147.832 103.206 147.808 103.177 147.78C103.152 147.768 103.131 147.749 103.116 147.725C103.071 147.681 103.034 147.631 103.005 147.575C102.98 147.554 102.961 147.527 102.949 147.497C102.89 147.402 102.843 147.3 102.811 147.192C102.765 147.077 102.727 146.958 102.7 146.837C102.666 146.704 102.644 146.571 102.622 146.427C102.603 146.345 102.592 146.261 102.589 146.177V145.972C102.589 145.822 102.589 145.661 102.589 145.5V136.461C102.579 135.512 102.752 134.57 103.099 133.687L157.614 165.159L157.842 179.319L103.332 147.836L103.271 147.853Z" fill="#3DBBC3"/>
<path opacity="0.7" d="M103.271 147.853C103.237 147.832 103.206 147.808 103.177 147.78C103.152 147.768 103.131 147.749 103.116 147.725C103.071 147.681 103.034 147.631 103.005 147.575C102.98 147.554 102.961 147.527 102.949 147.497C102.89 147.402 102.843 147.3 102.811 147.192C102.765 147.077 102.727 146.958 102.7 146.837C102.666 146.704 102.644 146.571 102.622 146.427C102.603 146.345 102.592 146.261 102.589 146.177V145.972C102.589 145.822 102.589 145.661 102.589 145.5V136.461C102.579 135.512 102.752 134.57 103.099 133.687L157.614 165.159L157.842 179.319L103.332 147.836L103.271 147.853Z" fill="black"/>
<path opacity="0.79" d="M157.575 165.181C157.575 165.181 114.64 145.089 110.734 143.247C108.154 142.032 106.889 144.584 107.499 147.226C108.054 149.534 110.312 151.914 110.312 151.914L103.293 147.858C103.26 147.837 103.228 147.813 103.199 147.786C103.174 147.774 103.153 147.754 103.138 147.731C103.093 147.687 103.056 147.636 103.027 147.581C103.003 147.56 102.983 147.533 102.972 147.503C102.912 147.408 102.865 147.305 102.833 147.198C102.787 147.083 102.75 146.964 102.722 146.843C102.689 146.71 102.666 146.576 102.644 146.432C102.625 146.35 102.614 146.267 102.611 146.182V145.977C102.611 145.827 102.611 145.666 102.611 145.506V136.461C102.601 135.512 102.774 134.57 103.121 133.687L157.575 165.181Z" fill="#263238"/>
<path d="M157.07 167.938H158.291C158.263 167.015 158.465 166.1 158.879 165.275C159.17 165.49 159.522 165.605 159.884 165.602C160.421 165.575 160.942 165.411 161.398 165.125C161.947 164.813 162.427 164.392 162.808 163.888C162.837 163.853 162.863 163.816 162.885 163.777C163.101 163.47 163.226 163.108 163.246 162.734L195.467 144.135L196.576 143.497L197.975 142.692C198.096 142.637 198.201 142.549 198.276 142.438C198.351 142.328 198.395 142.199 198.402 142.065V140.639C198.396 140.775 198.353 140.907 198.278 141.02C198.202 141.134 198.098 141.224 197.975 141.283L194.274 143.413L163.118 161.408C162.536 161.74 162.064 162.162 162.064 162.351V162.684C162.03 162.895 161.928 163.089 161.776 163.239C161.508 163.56 161.185 163.831 160.821 164.038C160.133 164.437 159.578 164.454 159.578 164.088V163.76C159.578 163.566 159.307 163.583 158.957 163.76L158.341 164.121C157.625 164.565 157.07 166.257 157.07 167.938Z" fill="#3DBBC3"/>
<path d="M158.291 167.939V176.977C158.291 177.105 158.291 177.232 158.291 177.355L158.319 177.66C158.316 177.669 158.316 177.678 158.319 177.687C158.43 176.716 159.356 175.851 160.161 175.396C160.609 175.113 161.124 174.953 161.654 174.93C162.061 174.925 162.455 175.069 162.763 175.335L162.869 175.274L163.085 175.146L194.241 157.152L196.033 156.12L196.543 155.82L198.052 154.949C198.152 154.887 198.234 154.801 198.292 154.7C198.35 154.598 198.382 154.484 198.385 154.367V155.793C198.381 155.903 198.351 156.011 198.297 156.107C198.243 156.204 198.167 156.286 198.075 156.348C197.897 156.453 197.708 156.553 197.52 156.669L197.17 156.875L196.571 157.219C196.438 157.302 196.316 157.374 196.199 157.435C196.083 157.496 196.016 157.546 195.938 157.585L195.478 157.857L170.726 172.139L162.824 176.7C162.269 177.033 161.809 177.149 161.776 176.977C161.774 176.957 161.774 176.937 161.776 176.916V176.6C161.776 176.2 161.221 176.2 160.538 176.6C160.285 176.71 160.064 176.881 159.893 177.098C159.723 177.315 159.609 177.571 159.562 177.843V178.231C159.57 178.318 159.558 178.405 159.526 178.486C159.494 178.567 159.444 178.639 159.379 178.697L159.196 178.803L158.807 179.025L158.324 179.308C158.231 179.37 158.119 179.398 158.007 179.388C157.895 179.378 157.79 179.33 157.709 179.252C157.683 179.24 157.662 179.221 157.647 179.197C157.603 179.155 157.565 179.106 157.537 179.052C157.515 179.029 157.496 179.003 157.481 178.975C157.422 178.88 157.375 178.777 157.342 178.67C157.295 178.556 157.258 178.439 157.231 178.32C157.198 178.181 157.176 178.048 157.154 177.904C157.134 177.822 157.123 177.738 157.12 177.654C157.12 177.588 157.12 177.527 157.12 177.449C157.12 177.371 157.12 177.138 157.12 176.977V167.939H158.291Z" fill="#3DBBC3"/>
<g opacity="0.6">
<path opacity="0.6" d="M157.07 167.938H158.291C158.263 167.015 158.465 166.1 158.879 165.275C159.17 165.49 159.522 165.605 159.884 165.602C160.421 165.575 160.942 165.411 161.398 165.125C161.947 164.813 162.427 164.392 162.808 163.888C162.837 163.853 162.863 163.816 162.885 163.777C163.101 163.47 163.226 163.108 163.246 162.734L195.467 144.135L196.576 143.497L197.975 142.692C198.096 142.637 198.201 142.549 198.276 142.438C198.351 142.328 198.395 142.199 198.402 142.065V140.639C198.396 140.775 198.353 140.907 198.278 141.02C198.202 141.134 198.098 141.224 197.975 141.283L194.274 143.413L163.118 161.408C162.536 161.74 162.064 162.162 162.064 162.351V162.684C162.03 162.895 161.928 163.089 161.776 163.239C161.508 163.56 161.185 163.831 160.821 164.038C160.133 164.437 159.578 164.454 159.578 164.088V163.76C159.578 163.566 159.307 163.583 158.957 163.76L158.341 164.121C157.625 164.565 157.07 166.257 157.07 167.938Z" fill="black"/>
<path opacity="0.6" d="M158.291 167.939V176.977C158.291 177.105 158.291 177.232 158.291 177.355L158.319 177.66C158.316 177.669 158.316 177.678 158.319 177.687C158.43 176.716 159.356 175.851 160.161 175.396C160.609 175.113 161.124 174.953 161.654 174.93C162.061 174.925 162.455 175.069 162.763 175.335L162.869 175.274L163.085 175.146L194.241 157.152L196.033 156.12L196.543 155.82L198.052 154.949C198.152 154.887 198.234 154.801 198.292 154.7C198.35 154.598 198.382 154.484 198.385 154.367V155.793C198.381 155.903 198.351 156.011 198.297 156.107C198.243 156.204 198.167 156.286 198.075 156.348C197.897 156.453 197.708 156.553 197.52 156.669L197.17 156.875L196.571 157.219C196.438 157.302 196.316 157.374 196.199 157.435C196.083 157.496 196.016 157.546 195.938 157.585L195.478 157.857L170.726 172.139L162.824 176.7C162.269 177.033 161.809 177.149 161.776 176.977C161.774 176.957 161.774 176.937 161.776 176.916V176.6C161.776 176.2 161.221 176.2 160.538 176.6C160.285 176.71 160.064 176.881 159.893 177.098C159.723 177.315 159.609 177.571 159.562 177.843V178.231C159.57 178.318 159.558 178.405 159.526 178.486C159.494 178.567 159.444 178.639 159.379 178.697L159.196 178.803L158.807 179.025L158.324 179.308C158.231 179.37 158.119 179.398 158.007 179.388C157.895 179.378 157.79 179.33 157.709 179.252C157.683 179.24 157.662 179.221 157.647 179.197C157.603 179.155 157.565 179.106 157.537 179.052C157.515 179.029 157.496 179.003 157.481 178.975C157.422 178.88 157.375 178.777 157.342 178.67C157.295 178.556 157.258 178.439 157.231 178.32C157.198 178.181 157.176 178.048 157.154 177.904C157.134 177.822 157.123 177.738 157.12 177.654C157.12 177.588 157.12 177.527 157.12 177.449C157.12 177.371 157.12 177.138 157.12 176.977V167.939H158.291Z" fill="black"/>
</g>
<path d="M103.06 133.704L154.873 163.622L194.035 141.011C194.163 140.968 194.274 140.886 194.353 140.777C194.432 140.667 194.475 140.536 194.475 140.401C194.475 140.266 194.432 140.134 194.353 140.025C194.274 139.915 194.163 139.833 194.035 139.79L142.766 110.183L108.365 130.058L107.516 130.552C107.401 130.676 107.329 130.834 107.311 131.001V131.334C107.311 131.701 106.756 132.316 106.073 132.71C106.039 132.733 106.001 132.752 105.962 132.766L104.819 132.106L104.264 132.416L104.187 132.455L103.787 132.688C103.447 132.945 103.194 133.299 103.06 133.704Z" fill="#263238"/>
<path d="M191.144 141.233L189.585 140.401L191.006 140.062C191.142 140.222 191.228 140.418 191.253 140.627C191.278 140.835 191.24 141.046 191.144 141.233Z" fill="#E0E0E0"/>
<g style="mix-blend-mode:multiply" opacity="0.5">
<path d="M191.144 141.233L189.585 140.401L191.006 140.062C191.142 140.222 191.228 140.418 191.253 140.627C191.278 140.835 191.24 141.046 191.144 141.233Z" fill="#E0E0E0"/>
</g>
<path d="M149.824 162.04C150.315 162.289 150.858 162.419 151.408 162.419C151.959 162.419 152.501 162.289 152.992 162.04L188.581 141.511L135.314 107.836L134.066 107.115L98.4828 130.552C97.6116 131.057 97.6116 131.878 98.4828 132.383L149.824 162.04Z" fill="#3DBBC3"/>
<path d="M163.185 120.298L190.074 138.52L175.597 127.423L183.632 122.784L192.975 128.194V137.843C192.975 138.664 192.06 139.824 191.727 139.635C191.111 139.784 190.513 139.996 189.94 140.268C189.007 140.798 188.141 141.439 187.36 142.176L158.846 122.795L163.185 120.298Z" fill="#3DBBC3"/>
<path opacity="0.2" d="M163.185 120.298L190.074 138.52L175.597 127.423L183.632 122.784L192.975 128.194V137.843C192.975 138.664 192.06 139.824 191.727 139.635C191.111 139.784 190.513 139.996 189.94 140.268C189.007 140.798 188.141 141.439 187.36 142.176L158.846 122.795L163.185 120.298Z" fill="black"/>
<path d="M151.405 149.995V161.136C151.774 161.144 152.139 161.058 152.465 160.886L156.349 158.634L186.09 141.466V129.958L151.405 149.995Z" fill="white"/>
<path d="M99.365 120.981V130.23C99.3854 130.597 99.4913 130.953 99.6744 131.271C99.8575 131.589 100.113 131.86 100.419 132.062L146.473 158.639L150.357 160.892C150.681 161.063 151.044 161.149 151.411 161.142V150.866L99.365 120.981Z" fill="#F0F0F0"/>
<path d="M186.106 141.467C186.134 141.046 186.288 140.643 186.55 140.312C186.929 139.807 187.409 139.386 187.959 139.075C188.418 138.79 188.941 138.625 189.48 138.598C189.829 138.562 190.181 138.644 190.479 138.831V127.434L186.112 129.959L186.106 141.467Z" fill="#455A64"/>
<path d="M187.849 139.141C187.345 139.446 186.905 139.843 186.55 140.312C186.288 140.643 186.134 141.045 186.106 141.466V130.369H187.843L187.849 139.141Z" fill="#F5F5F5"/>
<path d="M135.309 97.7657L188.575 128.533V129.243C188.575 129.642 189.13 129.798 189.813 129.393C190.495 128.988 191.061 128.499 191.061 127.817L191.128 127.14L136.846 95.8014L136.624 95.6738C136.568 95.7761 136.537 95.8903 136.535 96.0067V96.3341C136.541 96.7281 135.991 97.3662 135.309 97.7657Z" fill="#3DBBC3"/>
<path opacity="0.2" d="M135.309 97.7657L188.575 128.533V129.243C188.575 129.642 189.13 129.798 189.813 129.393C190.495 128.988 191.061 128.499 191.061 127.817L191.128 127.14L136.846 95.8014L136.624 95.6738C136.568 95.7761 136.537 95.8903 136.535 96.0067V96.3341C136.541 96.7281 135.991 97.3662 135.309 97.7657Z" fill="black"/>
<path d="M152.992 149.079L187.815 128.987C188.259 128.754 188.664 128.566 188.831 128.654L188.603 128.532L135.337 97.7654L134.71 97.4103C134.431 97.3275 134.137 97.307 133.85 97.3501C133.562 97.3932 133.287 97.499 133.045 97.66L98.4828 117.596C97.6116 118.101 97.6116 118.928 98.4828 119.427L149.835 149.079C150.325 149.326 150.865 149.455 151.414 149.455C151.962 149.455 152.503 149.326 152.992 149.079Z" fill="#3DBBC3"/>
<path d="M136.629 95.6736L136.851 95.8012L191.144 127.14C191.172 127.082 191.212 127.031 191.261 126.99L191.444 126.89L191.832 126.663L192.315 126.38C192.409 126.318 192.521 126.29 192.633 126.301C192.744 126.311 192.85 126.358 192.931 126.435C192.954 126.451 192.975 126.469 192.992 126.491C193.056 126.56 193.112 126.636 193.159 126.718C193.216 126.814 193.262 126.917 193.297 127.023C193.341 127.139 193.378 127.258 193.408 127.378C193.436 127.512 193.464 127.645 193.486 127.789C193.503 127.873 193.514 127.958 193.519 128.044V128.244C193.519 128.394 193.519 128.555 193.519 128.721V127.195C193.464 126.693 193.291 126.21 193.015 125.786C192.74 125.362 192.369 125.009 191.932 124.754L140.58 95.1021C140.157 94.8529 139.681 94.7052 139.191 94.6705C138.701 94.6359 138.21 94.7152 137.756 94.9024L137.107 95.2797L136.835 95.4406C136.745 95.4971 136.674 95.578 136.629 95.6736Z" fill="#3DBBC3"/>
<path d="M152.992 162.04L155.14 160.797L187.36 142.193C187.389 141.772 187.543 141.37 187.804 141.039C188.185 140.535 188.665 140.114 189.214 139.801C189.671 139.52 190.192 139.358 190.728 139.33C191.09 139.322 191.444 139.438 191.733 139.657C192.147 138.83 192.349 137.913 192.321 136.988H193.541C193.541 138.653 192.987 140.362 192.304 140.756L191.688 141.116C191.339 141.316 191.067 141.327 191.067 141.116V140.789C191.067 140.423 190.512 140.44 189.818 140.833C189.125 141.227 188.581 141.849 188.581 142.215V142.542C188.581 142.731 188.109 143.153 187.527 143.491L156.366 161.485L152.992 163.433C152.504 163.686 151.961 163.813 151.411 163.805V162.395C151.96 162.414 152.504 162.292 152.992 162.04Z" fill="#3DBBC3"/>
<path opacity="0.4" d="M152.992 162.04L155.14 160.797L187.36 142.193C187.389 141.772 187.543 141.37 187.804 141.039C188.185 140.535 188.665 140.114 189.214 139.801C189.671 139.52 190.192 139.358 190.728 139.33C191.09 139.322 191.444 139.438 191.733 139.657C192.147 138.83 192.349 137.913 192.321 136.988H193.541C193.541 138.653 192.987 140.362 192.304 140.756L191.688 141.116C191.339 141.316 191.067 141.327 191.067 141.116V140.789C191.067 140.423 190.512 140.44 189.818 140.833C189.125 141.227 188.581 141.849 188.581 142.215V142.542C188.581 142.731 188.109 143.153 187.527 143.491L156.366 161.485L152.992 163.433C152.504 163.686 151.961 163.813 151.411 163.805V162.395C151.96 162.414 152.504 162.292 152.992 162.04Z" fill="black"/>
<path d="M152.981 149.084L155.128 147.841L179.881 133.559L187.815 128.987C188.37 128.66 188.836 128.543 188.87 128.715V129.076C188.87 129.47 189.424 129.47 190.107 129.076C190.361 128.966 190.583 128.794 190.753 128.576C190.924 128.358 191.037 128.101 191.083 127.828V127.439C191.075 127.353 191.088 127.265 191.119 127.184C191.151 127.103 191.202 127.031 191.267 126.973L191.45 126.873L191.838 126.646L192.321 126.363C192.415 126.302 192.527 126.274 192.638 126.284C192.75 126.294 192.855 126.341 192.937 126.418C192.96 126.434 192.98 126.452 192.998 126.474C193.041 126.519 193.078 126.569 193.109 126.624C193.13 126.648 193.148 126.674 193.164 126.701C193.221 126.798 193.268 126.9 193.303 127.006C193.346 127.123 193.383 127.241 193.414 127.362C193.442 127.495 193.469 127.628 193.492 127.772C193.508 127.856 193.52 127.942 193.525 128.027V128.227C193.525 128.377 193.525 128.538 193.525 128.704V136.961H192.304V128.749C192.304 128.621 192.304 128.488 192.304 128.366L192.276 128.061C192.165 129.032 191.239 129.897 190.429 130.352C189.983 130.636 189.47 130.797 188.942 130.818C188.535 130.824 188.14 130.679 187.832 130.413L187.727 130.474L187.51 130.602L156.349 148.596L152.976 150.544C152.493 150.79 151.958 150.914 151.416 150.904V149.495C151.964 149.491 152.502 149.35 152.981 149.084Z" fill="#3DBBC3"/>
<path opacity="0.4" d="M152.981 149.084L155.128 147.841L179.881 133.559L187.815 128.987C188.37 128.66 188.836 128.543 188.87 128.715V129.076C188.87 129.47 189.424 129.47 190.107 129.076C190.361 128.966 190.583 128.794 190.753 128.576C190.924 128.358 191.037 128.101 191.083 127.828V127.439C191.075 127.353 191.088 127.265 191.119 127.184C191.151 127.103 191.202 127.031 191.267 126.973L191.45 126.873L191.838 126.646L192.321 126.363C192.415 126.302 192.527 126.274 192.638 126.284C192.75 126.294 192.855 126.341 192.937 126.418C192.96 126.434 192.98 126.452 192.998 126.474C193.041 126.519 193.078 126.569 193.109 126.624C193.13 126.648 193.148 126.674 193.164 126.701C193.221 126.798 193.268 126.9 193.303 127.006C193.346 127.123 193.383 127.241 193.414 127.362C193.442 127.495 193.469 127.628 193.492 127.772C193.508 127.856 193.52 127.942 193.525 128.027V128.227C193.525 128.377 193.525 128.538 193.525 128.704V136.961H192.304V128.749C192.304 128.621 192.304 128.488 192.304 128.366L192.276 128.061C192.165 129.032 191.239 129.897 190.429 130.352C189.983 130.636 189.47 130.797 188.942 130.818C188.535 130.824 188.14 130.679 187.832 130.413L187.727 130.474L187.51 130.602L156.349 148.596L152.976 150.544C152.493 150.79 151.958 150.914 151.416 150.904V149.495C151.964 149.491 152.502 149.35 152.981 149.084Z" fill="black"/>
<path d="M97.8224 118.495V119.926C97.8393 120.118 97.906 120.303 98.0159 120.462C98.1259 120.62 98.2753 120.747 98.4494 120.831L146.434 148.529L149.802 150.477C150.288 150.728 150.83 150.856 151.378 150.849V149.439C150.827 149.451 150.282 149.321 149.796 149.062L147.654 147.825L98.4827 119.427C98.2963 119.349 98.1355 119.22 98.0187 119.056C97.902 118.891 97.834 118.696 97.8224 118.495Z" fill="#3DBBC3"/>
<path opacity="0.2" d="M97.8224 118.495V119.926C97.8393 120.118 97.906 120.303 98.0159 120.462C98.1259 120.62 98.2753 120.747 98.4494 120.831L146.434 148.529L149.802 150.477C150.288 150.728 150.83 150.856 151.378 150.849V149.439C150.827 149.451 150.282 149.321 149.796 149.062L147.654 147.825L98.4827 119.427C98.2963 119.349 98.1355 119.22 98.0187 119.056C97.902 118.891 97.834 118.696 97.8224 118.495Z" fill="black"/>
<path d="M97.8224 131.445V132.877C97.8393 133.069 97.906 133.254 98.0159 133.412C98.1259 133.571 98.2753 133.698 98.4494 133.781L146.456 161.485L149.824 163.433C150.311 163.685 150.852 163.812 151.4 163.805V162.395C150.849 162.408 150.304 162.278 149.818 162.018L147.677 160.781L98.4827 132.377C98.2963 132.3 98.1355 132.171 98.0187 132.006C97.902 131.841 97.834 131.647 97.8224 131.445Z" fill="#3DBBC3"/>
<path opacity="0.2" d="M97.8224 131.445V132.877C97.8393 133.069 97.906 133.254 98.0159 133.412C98.1259 133.571 98.2753 133.698 98.4494 133.781L146.456 161.485L149.824 163.433C150.311 163.685 150.852 163.812 151.4 163.805V162.395C150.849 162.408 150.304 162.278 149.818 162.018L147.677 160.781L98.4827 132.377C98.2963 132.3 98.1355 132.171 98.0187 132.006C97.902 131.841 97.834 131.647 97.8224 131.445Z" fill="black"/>
<path d="M119.984 81.103L114.89 90.1805L122.314 94.1311L127.718 86.0857L119.984 81.103Z" fill="#FFA8A7"/>
<path d="M138.055 60.6562C135.226 60.1735 130.942 60.0459 128.157 64.8232C125.371 69.6006 119.368 81.3914 119.368 81.3914C119.368 81.3914 122.874 85.9301 127.951 86.7569L136.247 73.5956L138.055 60.6562Z" fill="#3DBBC3"/>
<path d="M131.369 171.828H125.033V182.676H131.369V171.828Z" fill="#FFA8A7"/>
<path d="M113.026 169.187L106.689 169.403L106.373 157.923L112.704 157.707L113.026 169.187Z" fill="#FFA8A7"/>
<path d="M125.033 179.547V178.642C124.428 178.903 123.019 184.28 120.505 186.571C118.508 188.397 115.783 190.5 115.09 192.53C114.368 194.644 118.885 195.815 120.749 195.482C122.919 195.099 126.681 193.573 127.624 192.153C128.567 190.733 129.011 188.652 129.777 187.614C130.543 186.577 132.313 185.395 132.729 184.213C132.956 183.553 132.684 182.11 132.368 180.884C132.074 179.774 131.752 178.531 131.369 178.637V179.325C130.909 179.835 129.638 180.34 128.201 180.396C127.274 180.44 125.027 180.257 125.033 179.547Z" fill="#263238"/>
<path d="M106.623 167.45C106.295 167.45 106.029 167.927 105.302 168.71C104.218 169.805 102.957 170.711 101.573 171.39C99.1985 172.583 94.5987 174.408 92.5013 175.357C91.1974 175.945 91.2584 177.521 92.6068 178.42C93.9551 179.319 97.2065 179.962 101.118 179.086C103.243 178.608 106.018 176.644 107.777 176.75C109.536 176.855 112.815 176.833 114.108 175.94C115.4 175.046 114.884 173.165 114.518 171.501C114.119 169.714 113.547 166.979 112.953 167.101V167.655C112.193 168.81 108.315 169.281 106.639 168.432L106.623 167.45Z" fill="#263238"/>
<path d="M156.893 105.861C158.28 115.654 156.41 117.513 147.105 126.912C142.111 131.956 134.038 139.352 134.038 139.352C134.038 139.352 134.155 142.482 134.216 149.495C134.277 155.671 131.697 175.768 131.697 175.768C131.697 175.768 127.491 177.538 124.606 175.701C124.606 175.701 123.302 160.748 122.597 152.952C121.643 142.41 121.143 137.094 121.681 134.825C122.159 132.822 131.63 120.859 133.816 117.508L113.686 129.204C114.076 132.168 114.273 135.154 114.274 138.143C114.052 146.527 113.02 163.272 113.02 163.272C113.02 163.272 108.415 165.331 106.129 163.555C106.129 163.555 100.33 126.935 100.33 123.927C100.33 119.361 120.161 105.728 123.918 102.554C126.059 100.745 128.445 98.7866 128.445 98.7866L156.893 105.861Z" fill="#455A64"/>
<path d="M133.816 117.513C131.699 115.798 130.105 113.524 129.216 110.949C129.327 112.629 129.567 114.299 129.932 115.942C130.487 118.118 113.686 129.204 113.686 129.204L133.816 117.513Z" fill="#37474F"/>
<path d="M145.004 43.1421C146.138 38.3057 143.136 33.4662 138.3 32.3328C133.463 31.1993 128.624 34.2011 127.49 39.0374C126.357 43.8738 129.359 48.7133 134.195 49.8468C139.031 50.9802 143.871 47.9784 145.004 43.1421Z" fill="#263238"/>
<path d="M155.145 66.105C155.145 66.105 157.365 67.9249 157.365 73.6733V86.0855L157.048 106.959C152.609 111.792 132.634 109.961 127.691 99.4188C127.691 99.4188 127.729 77.3853 127.729 72.447C127.729 67.5088 130.504 61.1001 138.05 60.6562L147.826 62.9312L155.145 66.105Z" fill="#263238"/>
<path d="M151.794 47.4839C151.794 47.4839 150.334 54.3309 149.752 55.4572C149.363 56.1516 148.721 56.6686 147.96 56.8999L148.059 52.0837L151.794 47.4839Z" fill="#263238"/>
<path d="M149.963 37.6739C150.469 37.617 150.982 37.6758 151.463 37.8459C151.943 38.016 152.379 38.293 152.737 38.656C153.935 39.8822 153.264 43.7219 151.772 47.4838L149.025 47.8001L149.963 37.6739Z" fill="#263238"/>
<path d="M148.226 47.8C148.781 48.1274 149.563 47.0731 150.24 46.3629C150.917 45.6527 153.136 44.6983 154.241 47.0121C155.345 49.3259 153.264 52.5219 151.522 53.0712C148.514 54.0144 148.06 52.0835 148.06 52.0835L147.832 62.931C145.241 65.8274 136.38 65.1505 138.05 62.6425V59.3134C138.05 59.3134 135.325 59.7295 133.999 59.5242C131.78 59.1802 130.393 57.4379 129.721 55.0409C128.645 51.1957 128.234 48.0941 129.167 40.5313C130.171 32.2417 139.809 32.1585 145.013 35.4322C150.218 38.7058 148.226 47.8 148.226 47.8Z" fill="#FFA8A7"/>
<path d="M140.563 49.6978H140.097C139.283 49.6978 138.503 49.3745 137.928 48.7991C137.352 48.2237 137.029 47.4432 137.029 46.6294C137.029 45.8156 137.352 45.0352 137.928 44.4597C138.503 43.8843 139.283 43.561 140.097 43.561H140.569C141.383 43.561 142.163 43.8843 142.739 44.4597C143.314 45.0352 143.637 45.8156 143.637 46.6294C143.637 47.4432 143.314 48.2237 142.739 48.7991C142.163 49.3745 141.383 49.6978 140.569 49.6978H140.563ZM140.097 44.0771C139.42 44.0771 138.771 44.346 138.292 44.8246C137.814 45.3033 137.545 45.9525 137.545 46.6294C137.545 47.3063 137.814 47.9555 138.292 48.4342C138.771 48.9129 139.42 49.1818 140.097 49.1818H140.569C141.246 49.1818 141.895 48.9129 142.374 48.4342C142.852 47.9555 143.121 47.3063 143.121 46.6294C143.121 45.9525 142.852 45.3033 142.374 44.8246C141.895 44.346 141.246 44.0771 140.569 44.0771H140.097Z" fill="#263238"/>
<path d="M131.219 49.6978H130.748C129.934 49.6978 129.154 49.3745 128.578 48.7991C128.003 48.2237 127.679 47.4432 127.679 46.6294C127.679 45.8156 128.003 45.0352 128.578 44.4597C129.154 43.8843 129.934 43.561 130.748 43.561H131.219C132.033 43.561 132.814 43.8843 133.389 44.4597C133.965 45.0352 134.288 45.8156 134.288 46.6294C134.288 47.4432 133.965 48.2237 133.389 48.7991C132.814 49.3745 132.033 49.6978 131.219 49.6978ZM130.748 44.0771C130.071 44.0771 129.422 44.346 128.943 44.8246C128.464 45.3033 128.195 45.9525 128.195 46.6294C128.195 47.3063 128.464 47.9555 128.943 48.4342C129.422 48.9129 130.071 49.1818 130.748 49.1818H131.219C131.896 49.1818 132.546 48.9129 133.024 48.4342C133.503 47.9555 133.772 47.3063 133.772 46.6294C133.772 45.9525 133.503 45.3033 133.024 44.8246C132.546 44.346 131.896 44.0771 131.219 44.0771H130.748Z" fill="#263238"/>
<path d="M137.062 46.0245C136.875 45.7703 136.631 45.5631 136.35 45.4196C136.069 45.2761 135.758 45.2001 135.442 45.1978C135.179 45.1713 134.914 45.2078 134.668 45.3043C134.421 45.4008 134.202 45.5545 134.027 45.7526L133.617 45.4419C133.841 45.1763 134.128 44.97 134.451 44.8413C134.774 44.7126 135.124 44.6654 135.47 44.704C135.87 44.7079 136.263 44.8071 136.617 44.9933C136.971 45.1796 137.276 45.4475 137.506 45.7748L137.062 46.0245Z" fill="#263238"/>
<path d="M149.874 46.0024H143.349V46.5185H149.874V46.0024Z" fill="#263238"/>
<path d="M148.226 48.7269C148.503 48.7269 149.552 46.9846 150.24 46.3632C151.189 45.4976 149.963 37.6741 149.963 37.6741C149.963 37.6741 150.878 35.7265 149.047 33.7179C147.749 32.2864 145.574 32.1255 141.862 31.5429C139.914 31.2377 136.962 30.6884 135.015 30.3277C132.695 29.8949 130.77 29.4399 129.133 30.8826C128.491 31.4396 128.036 32.1819 127.833 33.0075C127.629 33.8331 127.686 34.7015 127.996 35.4935C128.466 36.4812 129.301 37.2473 130.326 37.6297C130.326 37.6297 131.336 38.5286 134.859 38.9558C138.383 39.383 143.87 38.8781 144.619 38.7727C145.64 38.634 145.857 39.6216 146.412 42.3294C146.894 44.6875 147.31 48.7102 148.226 48.7269Z" fill="#263238"/>
<path d="M149.957 38.3066L153.286 36.5144C153.18 36.2906 153.029 36.0907 152.843 35.9268C152.657 35.7629 152.44 35.6383 152.204 35.5605C151.969 35.4827 151.72 35.4534 151.473 35.4743C151.226 35.4952 150.986 35.5659 150.767 35.6821C150.322 35.933 149.99 36.3449 149.84 36.833C149.689 37.3212 149.731 37.8485 149.957 38.3066Z" fill="#263238"/>
<path d="M138.055 59.3413C138.055 59.3413 142.994 58.3481 144.714 57.4325C145.729 56.9025 146.56 56.0788 147.1 55.0688C146.838 56.0749 146.378 57.0183 145.746 57.8431C144.481 59.4578 138.05 60.6452 138.05 60.6452L138.055 59.3413Z" fill="#F28F8F"/>
<path d="M139.243 46.5682C139.25 46.763 139.315 46.9513 139.429 47.1096C139.543 47.2678 139.701 47.389 139.883 47.4581C140.066 47.5272 140.264 47.5411 140.455 47.498C140.645 47.455 140.818 47.3569 140.953 47.216C141.088 47.0752 141.178 46.8977 141.213 46.7058C141.247 46.514 141.225 46.3161 141.148 46.137C141.071 45.9579 140.943 45.8054 140.779 45.6985C140.616 45.5917 140.425 45.5352 140.23 45.5361C140.098 45.539 139.967 45.568 139.846 45.6214C139.724 45.6749 139.615 45.7517 139.523 45.8475C139.431 45.9434 139.359 46.0564 139.311 46.18C139.263 46.3037 139.24 46.4356 139.243 46.5682Z" fill="#263238"/>
<path d="M140.83 42.4736L142.949 43.6388C143.092 43.3502 143.121 43.0183 143.029 42.7096C142.937 42.4009 142.733 42.1382 142.455 41.9742C142.317 41.8974 142.164 41.8494 142.006 41.833C141.848 41.8166 141.688 41.8322 141.537 41.8788C141.385 41.9254 141.244 42.0021 141.123 42.1043C141.001 42.2065 140.902 42.3321 140.83 42.4736Z" fill="#263238"/>
<path d="M138.505 53.3989L136.247 54.2479C136.295 54.3995 136.374 54.5397 136.478 54.6601C136.582 54.7806 136.71 54.8787 136.853 54.9487C136.996 55.0186 137.151 55.059 137.31 55.0672C137.469 55.0755 137.628 55.0516 137.778 54.9969C138.082 54.8764 138.328 54.6425 138.464 54.3445C138.599 54.0465 138.614 53.7076 138.505 53.3989Z" fill="#F28F8F"/>
<path d="M130.165 43.3392L132.096 41.8577C132.006 41.7284 131.891 41.6187 131.758 41.5351C131.624 41.4515 131.475 41.3958 131.32 41.3715C131.164 41.3471 131.005 41.3545 130.853 41.3933C130.7 41.432 130.557 41.5013 130.432 41.597C130.172 41.7974 129.999 42.0903 129.949 42.4147C129.9 42.7392 129.977 43.0703 130.165 43.3392Z" fill="#263238"/>
<path d="M131.014 46.2855C131.022 46.4803 131.087 46.6686 131.201 46.8268C131.314 46.9851 131.472 47.1063 131.655 47.1754C131.837 47.2445 132.036 47.2584 132.226 47.2153C132.416 47.1723 132.589 47.0742 132.724 46.9333C132.859 46.7924 132.949 46.615 132.984 46.4231C133.019 46.2312 132.996 46.0334 132.919 45.8543C132.842 45.6752 132.714 45.5227 132.551 45.4158C132.388 45.309 132.197 45.2525 132.002 45.2534C131.869 45.2563 131.738 45.2853 131.617 45.3387C131.496 45.3922 131.386 45.469 131.294 45.5648C131.202 45.6607 131.131 45.7736 131.082 45.8973C131.034 46.0209 131.011 46.1528 131.014 46.2855Z" fill="#263238"/>
<path d="M135.902 45.4922L135.792 51.4902L132.246 50.7079L135.902 45.4922Z" fill="#F28F8F"/>
<path d="M129.843 95.3574V95.9123C129.843 96.196 129.768 96.4746 129.626 96.72C129.484 96.9655 129.279 97.1692 129.033 97.3105L113.625 106.188C113.379 106.33 113.101 106.405 112.818 106.405C112.534 106.405 112.256 106.33 112.01 106.188L83.7401 89.8698C83.4941 89.7285 83.2897 89.5248 83.1475 89.2793C83.0053 89.0339 82.9303 88.7553 82.93 88.4716V88.0776L112.815 105.328L129.843 95.3574Z" fill="#3DBBC3"/>
<path opacity="0.6" d="M129.843 95.3574V95.9123C129.843 96.196 129.768 96.4746 129.626 96.72C129.484 96.9655 129.279 97.1692 129.033 97.3105L113.625 106.188C113.379 106.33 113.101 106.405 112.818 106.405C112.534 106.405 112.256 106.33 112.01 106.188L83.7401 89.8698C83.4941 89.7285 83.2897 89.5248 83.1475 89.2793C83.0053 89.0339 82.9303 88.7553 82.93 88.4716V88.0776L112.815 105.328L129.843 95.3574Z" fill="black"/>
<path d="M82.9467 88.083L99.709 78.4062C99.8558 78.3215 100.022 78.2769 100.192 78.2769C100.361 78.2769 100.528 78.3215 100.674 78.4062L129.749 95.1963C129.781 95.2155 129.808 95.2427 129.826 95.2753C129.845 95.3079 129.855 95.3447 129.855 95.3822C129.855 95.4196 129.845 95.4565 129.826 95.489C129.808 95.5216 129.781 95.5488 129.749 95.568L112.831 105.334L82.9467 88.083Z" fill="#3DBBC3"/>
<path opacity="0.5" d="M82.9467 88.083L99.709 78.4062C99.8558 78.3215 100.022 78.2769 100.192 78.2769C100.361 78.2769 100.528 78.3215 100.674 78.4062L129.749 95.1963C129.781 95.2155 129.808 95.2427 129.826 95.2753C129.845 95.3079 129.855 95.3447 129.855 95.3822C129.855 95.4196 129.845 95.4565 129.826 95.489C129.808 95.5216 129.781 95.5488 129.749 95.568L112.831 105.334L82.9467 88.083Z" fill="black"/>
<path d="M112.97 103.913L122.009 98.6976L95.5752 83.439L86.4866 88.6269L112.97 103.913Z" fill="#263238"/>
<path d="M117.415 89.4093L117.248 89.5036L112.815 92.0616L104.936 87.5117L104.775 87.4174L109.369 84.7651L117.415 89.4093Z" fill="#263238"/>
<path d="M117.248 89.5035L112.815 92.0614L104.936 87.5115L109.369 84.9536L117.248 89.5035Z" fill="#263238"/>
<path opacity="0.7" d="M112.815 105.334V106.41C112.532 106.41 112.255 106.335 112.01 106.194L83.7401 89.8752C83.4941 89.7338 83.2897 89.5302 83.1475 89.2847C83.0053 89.0393 82.9303 88.7606 82.93 88.477V88.083L112.815 105.334Z" fill="black"/>
<path d="M112.354 105.572C112.085 105.679 111.796 105.724 111.507 105.701C111.219 105.679 110.939 105.592 110.69 105.445L82.5471 89.1985C82.3027 89.0582 82.0923 88.8656 81.9311 88.6344C81.7699 88.4032 81.662 88.1391 81.615 87.8612L78.5355 69.4843C78.518 69.3816 78.5087 69.2777 78.5077 69.1736C78.5044 68.663 78.704 68.172 79.0626 67.8086L108.309 84.6985C108.495 84.8006 108.655 84.9426 108.779 85.1144C108.903 85.2862 108.987 85.4834 109.025 85.6917L112.354 105.572Z" fill="#3DBBC3"/>
<path opacity="0.5" d="M112.354 105.572C112.085 105.679 111.796 105.724 111.507 105.701C111.219 105.679 110.939 105.592 110.69 105.445L82.5471 89.1985C82.3027 89.0582 82.0923 88.8656 81.9311 88.6344C81.7699 88.4032 81.662 88.1391 81.615 87.8612L78.5355 69.4843C78.518 69.3816 78.5087 69.2777 78.5077 69.1736C78.5044 68.663 78.704 68.172 79.0626 67.8086L108.309 84.6985C108.495 84.8006 108.655 84.9426 108.779 85.1144C108.903 85.2862 108.987 85.4834 109.025 85.6917L112.354 105.572Z" fill="black"/>
<path d="M112.815 105.333L112.626 105.444C112.541 105.494 112.452 105.536 112.36 105.572L109.031 85.6914C108.996 85.4856 108.916 85.2899 108.797 85.1183C108.678 84.9467 108.523 84.8033 108.343 84.6982L79.0959 67.8082C79.2121 67.6938 79.3426 67.5949 79.4843 67.5142L108.792 84.4319C108.972 84.5369 109.128 84.6804 109.246 84.852C109.365 85.0236 109.445 85.2192 109.48 85.4251L112.815 105.333Z" fill="#E0E0E0"/>
<path d="M96.5074 88.6101C96.3021 87.3839 95.0315 85.747 93.6721 84.9647C92.3127 84.1823 91.375 84.5374 91.5858 85.7692C91.7967 87.001 93.0618 88.6323 94.4212 89.4202C95.7806 90.2081 96.7183 89.8419 96.5074 88.6101Z" fill="#3DBBC3"/>
<path d="M102.272 100.573C102.214 99.7771 102.059 98.9909 101.812 98.2318C101.379 96.8724 100.092 91.6345 97.151 90.8466C96.8013 90.7415 96.4302 90.73 96.0746 90.8133C95.259 91.0353 94.8872 91.8842 94.7263 92.6443C94.5765 93.7676 94.5765 94.9057 94.7263 96.029C94.2742 95.5119 93.7445 95.0683 93.156 94.714C92.6343 94.3211 92.0053 94.0966 91.3527 94.0703C91.262 94.0659 91.1715 94.0838 91.0893 94.1225C91.007 94.1612 90.9355 94.2195 90.8811 94.2923C90.7757 94.4865 90.8811 94.7306 91.0476 94.9026C91.3417 95.2577 91.7023 95.5574 91.9964 95.9125C92.2269 96.2222 92.4399 96.5445 92.6345 96.8779C93.0062 97.4772 93.4224 98.0431 93.8385 98.6146C94.6381 99.8021 95.6411 100.839 96.8015 101.677C98.1361 102.581 99.6504 103.185 101.24 103.447C103.388 103.714 105.474 103.681 106.828 103.209L102.272 100.573Z" fill="#FFA8A7"/>
<path d="M154.557 66.2662C152.576 65.2452 149.68 69.2902 150.601 73.5182C151.522 77.7462 156.061 92.6109 156.061 92.6109C156.061 92.6109 135.558 94.442 133.816 94.6584C132.601 94.8026 131.242 94.1867 130.115 93.815C128.584 93.3045 127.036 92.9494 125.527 92.3945C125.264 92.2739 124.978 92.2133 124.689 92.217C124.544 92.2233 124.405 92.2772 124.293 92.3705C124.182 92.4638 124.104 92.5912 124.073 92.733C124.066 92.9066 124.11 93.0785 124.201 93.2268C124.685 94.2142 125.412 95.062 126.315 95.6904C126.752 95.9487 127.167 96.2419 127.557 96.5671C127.796 96.8057 128.323 97.466 128.112 97.8266L119.967 102.515C119.967 102.515 121.842 104.146 128.634 102.243C131.082 101.603 133.471 100.755 135.775 99.7076C135.775 99.7076 159.934 100.712 164.3 99.3913C165.843 98.9197 166.398 97.8266 165.354 92.8551C164.162 87.0956 160.738 76.5921 159.961 73.8178C158.258 67.8087 157.853 67.9474 154.557 66.2662Z" fill="#FFA8A7"/>
<path d="M153.536 65.4058C153.536 65.4058 156.81 66.3268 158.219 68.1801C159.628 70.0333 165.066 87.9608 165.066 87.9608C163.645 89.1464 161.982 90.0087 160.194 90.4877C158.407 90.9668 156.536 91.0512 154.712 90.7351C154.712 90.7351 150.34 78.334 149.874 75.0215C149.047 69.889 151.555 65.8496 153.536 65.4058Z" fill="#3DBBC3"/>
<path d="M135.869 77.4357C135.603 76.0485 136.468 75.2994 137.806 75.7711C138.513 76.0618 139.143 76.5145 139.644 77.0926C140.145 77.6708 140.504 78.3584 140.691 79.1002C140.957 80.504 136.13 78.8117 135.869 77.4357Z" fill="#3DBBC3"/>
<path d="M145.019 81.7579L141.085 79.2555C141.285 80.3208 139.848 80.171 138.555 79.7216C137.262 79.2721 135.681 78.3622 135.475 77.2968L132.046 77.2524C131.73 77.2524 131.724 77.663 132.046 78.0015C132.895 78.9503 134.87 80.6315 139.021 82.0797C143.171 83.5279 144.764 83.0785 145.363 82.6346C145.557 82.4681 145.38 81.9854 145.019 81.7579Z" fill="#3DBBC3"/>
</svg>
