<svg width="237" height="241" viewBox="0 0 237 241" fill="none" xmlns="http://www.w3.org/2000/svg">
<path d="M118.826 241C183.998 241 236.83 210.497 236.83 172.87C236.83 135.243 183.998 104.741 118.826 104.741C53.6545 104.741 0.822266 135.243 0.822266 172.87C0.822266 210.497 53.6545 241 118.826 241Z" fill="#2F4956"/>
<path d="M36.9288 186.389C44.1431 186.389 49.9915 183.013 49.9915 178.848C49.9915 174.682 44.1431 171.306 36.9288 171.306C29.7145 171.306 23.8661 174.682 23.8661 178.848C23.8661 183.013 29.7145 186.389 36.9288 186.389Z" fill="#E6E6E6"/>
<path d="M137.527 138.419L51.6726 187.991C51.3411 188.175 51.0647 188.443 50.8722 188.77C50.6798 189.096 50.5782 189.468 50.5782 189.847C50.5782 190.226 50.6798 190.598 50.8722 190.925C51.0647 191.251 51.3411 191.52 51.6726 191.704L102.131 220.836C103.399 221.568 104.837 221.954 106.302 221.954C107.766 221.954 109.205 221.568 110.473 220.836L196.327 171.269C196.659 171.086 196.935 170.817 197.127 170.49C197.32 170.164 197.421 169.792 197.421 169.413C197.421 169.034 197.32 168.662 197.127 168.335C196.935 168.009 196.659 167.74 196.327 167.557L145.874 138.419C144.605 137.686 143.166 137.3 141.7 137.3C140.235 137.3 138.795 137.686 137.527 138.419Z" fill="#E6E6E6"/>
<path d="M111.746 138.901L77.379 158.747C76.6883 159.144 76.1146 159.717 75.7157 160.407C75.3167 161.097 75.1067 161.88 75.1067 162.677C75.1067 163.474 75.3167 164.257 75.7157 164.947C76.1146 165.637 76.6883 166.209 77.379 166.607L94.6845 176.599C95.8299 177.258 97.1284 177.605 98.45 177.605C99.7717 177.605 101.07 177.258 102.216 176.599L136.588 156.753C137.277 156.354 137.85 155.781 138.247 155.091C138.645 154.401 138.855 153.619 138.855 152.823C138.855 152.026 138.645 151.244 138.247 150.554C137.85 149.865 137.277 149.292 136.588 148.893L119.277 138.901C118.133 138.239 116.834 137.89 115.512 137.89C114.189 137.89 112.891 138.239 111.746 138.901Z" fill="#E6E6E6"/>
<path d="M37.6183 159.351C37.6183 159.351 29.5463 151.465 34.1392 138.259C36.7114 130.861 45.2448 125.425 50.1029 124.916C48.4944 126.827 47.2115 128.989 46.3055 131.317L40.1852 135.385L45.8123 133.624L44.6137 138.44C44.6137 138.44 39.3844 141.622 38.6101 142.29L44.2477 140.789C44.2477 140.789 43.8128 154.43 37.6183 159.351Z" fill="#023047"/>
<path opacity="0.4" d="M37.6183 159.351C37.6183 159.351 29.5463 151.465 34.1392 138.259C36.7114 130.861 45.2448 125.425 50.1029 124.916C48.4944 126.827 47.2115 128.989 46.3055 131.317L40.1852 135.385L45.8123 133.624L44.6137 138.44C44.6137 138.44 39.3844 141.622 38.6101 142.29L44.2477 140.789C44.2477 140.789 43.8128 154.43 37.6183 159.351Z" fill="black"/>
<path d="M37.6183 159.352C37.6183 159.352 33.4391 142.853 39.623 133.232C39.623 133.211 32.3784 141.702 37.6183 159.352Z" fill="white"/>
<path d="M46.8572 161.563L36.9766 161.436H36.8759L27.0007 161.563C27.0007 161.563 26.8893 173.73 30.6389 178.678C31.6996 179.998 34.1021 180.921 36.9289 180.921C39.7557 180.921 42.19 179.993 43.2242 178.673C46.9632 173.719 46.8572 161.563 46.8572 161.563Z" fill="#37474F"/>
<path d="M36.9289 166.893C42.4121 166.893 46.8571 164.507 46.8571 161.563C46.8571 158.619 42.4121 156.233 36.9289 156.233C31.4456 156.233 27.0006 158.619 27.0006 161.563C27.0006 164.507 31.4456 166.893 36.9289 166.893Z" fill="#455A64"/>
<path d="M36.9289 160.147C40.3444 160.147 43.2348 161.245 44.2531 162.762C44.5043 162.412 44.643 161.994 44.6508 161.563C44.6508 159.442 41.1929 157.75 36.9289 157.75C32.6648 157.75 29.1963 159.458 29.1963 161.563C29.2052 161.993 29.3418 162.41 29.5888 162.762C30.6176 161.245 33.5134 160.147 36.9289 160.147Z" fill="#263238"/>
<path d="M36.9288 165.377C40.9739 165.377 44.253 164.206 44.253 162.762C44.253 161.318 40.9739 160.147 36.9288 160.147C32.8838 160.147 29.6046 161.318 29.6046 162.762C29.6046 164.206 32.8838 165.377 36.9288 165.377Z" fill="#E0E0E0"/>
<path d="M37.0509 163.42C37.0509 163.42 33.2217 163.271 29.9441 158.19C28.5864 156.095 27.9341 155.008 27.9341 155.008L33.2376 154.61L27.2658 153.12L24.4443 148.803L29.4031 148.432C29.4031 148.432 25.6906 147.138 23.076 147.122C23.076 147.122 18.499 139.044 17.1625 137.894C20.6212 138.106 24.0022 139.01 27.1057 140.551C30.2092 142.092 32.9723 144.24 35.2317 146.867C42.7734 155.74 38.1646 163.648 37.0509 163.42Z" fill="#023047"/>
<path d="M37.0509 163.42C37.0509 163.42 39.4428 149.005 24.1738 140.339C24.1738 140.339 40.0208 147.949 37.0509 163.42Z" fill="white"/>
<path d="M37.0509 163.42C37.0509 163.42 40.5141 163.642 43.9455 159.368C45.3615 157.607 46.0669 156.674 46.0669 156.674L41.2937 155.814L46.82 155.029L49.7741 151.396L45.335 150.596C45.335 150.596 48.7876 149.779 51.1689 150.012C51.1689 150.012 56.0588 143.149 57.3741 142.237C54.2334 142.105 51.0979 142.603 48.1529 143.702C45.2079 144.802 42.5131 146.48 40.2277 148.639C32.6065 155.952 36.022 163.52 37.0509 163.42Z" fill="#023047"/>
<path opacity="0.2" d="M37.0509 163.42C37.0509 163.42 40.5141 163.642 43.9455 159.368C45.3615 157.607 46.0669 156.674 46.0669 156.674L41.2937 155.814L46.82 155.029L49.7741 151.396L45.335 150.596C45.335 150.596 48.7876 149.779 51.1689 150.012C51.1689 150.012 56.0588 143.149 57.3741 142.237C54.2334 142.105 51.0979 142.603 48.1529 143.702C45.2079 144.802 42.5131 146.48 40.2277 148.639C32.6065 155.952 36.022 163.52 37.0509 163.42Z" fill="black"/>
<path d="M37.0508 163.42C37.0508 163.42 36.2446 150.192 50.84 143.796C50.84 143.807 35.8256 149.185 37.0508 163.42Z" fill="white"/>
<path d="M54.6056 46.0676V72.4157L31.7844 85.5897V59.2417L54.6056 46.0676Z" fill="#FAFAFA"/>
<path d="M52.1341 47.4949V70.9897L31.7844 82.737V59.2423L52.1341 47.4949ZM53.3699 45.3735L30.5646 58.5475V84.8956L31.8003 85.6116L54.6056 72.4375V46.0683L53.3699 45.3523V45.3735Z" fill="#3E3E3E"/>
<path d="M53.3698 48.2054V71.7002L33.0201 83.4476V59.9528L53.3698 48.2054ZM54.6056 46.084L31.8003 59.2581V85.6061L54.6056 72.4321V46.0681V46.084Z" fill="#EBEBEB"/>
<path d="M51.2537 66.3856L33.9907 76.351L39.0927 63.0868L42.6248 67.2766L46.2366 62.1375L51.2537 66.3856Z" fill="#3E3E3E"/>
<path d="M45.266 58.107C45.2349 58.6555 45.0745 59.1888 44.798 59.6635C44.5215 60.1381 44.1367 60.5407 43.6749 60.8383C42.8051 61.3369 42.0839 60.9338 42.0839 59.9261C42.1158 59.3786 42.2766 58.8463 42.553 58.3726C42.8295 57.8989 43.2139 57.4972 43.6749 57.2001C44.5765 56.6962 45.266 57.1046 45.266 58.107Z" fill="#3E3E3E"/>
<path d="M62.2162 13.2654V34.2515L44.0409 44.7473V23.7558L62.2162 13.2654Z" fill="#FAFAFA"/>
<path d="M60.2486 14.4004V33.1272L44.0462 42.4774V23.7558L60.2539 14.4004H60.2486ZM61.2403 12.6926L43.0544 23.1884V44.1798L44.0409 44.7473L62.2162 34.2516V13.2601L61.235 12.6926H61.2403Z" fill="#3E3E3E"/>
<path d="M61.2351 14.9678V33.684L45.0221 43.0448V24.3232L61.2351 14.9678ZM62.2162 13.26L44.0463 23.7557V44.7472L62.2215 34.2515V13.26H62.2162Z" fill="#EBEBEB"/>
<path d="M59.5484 29.4522L45.7963 37.3916L49.8588 26.8216L52.675 30.1629L55.5495 26.0632L59.5484 29.4522Z" fill="#3E3E3E"/>
<path d="M54.7806 22.854C54.7573 23.2898 54.6313 23.714 54.4129 24.0919C54.1944 24.4698 53.8897 24.7907 53.5236 25.0284C52.8288 25.4315 52.272 25.1027 52.272 24.3071C52.2942 23.8716 52.4192 23.4476 52.6368 23.0697C52.8543 22.6917 53.1582 22.3707 53.5236 22.1327C54.2184 21.7296 54.7806 22.0584 54.7806 22.854Z" fill="#3E3E3E"/>
<path d="M100.874 134.6L108.251 179.622C108.305 179.951 108.475 180.25 108.729 180.466C108.984 180.682 109.307 180.8 109.641 180.799C109.838 180.799 110.033 180.757 110.213 180.676C110.393 180.596 110.554 180.478 110.686 180.331C110.818 180.184 110.917 180.011 110.977 179.823C111.037 179.635 111.057 179.436 111.036 179.24L105.859 132.792L100.874 134.6Z" fill="#263238"/>
<path d="M126.341 119.458L133.724 164.48C133.777 164.809 133.945 165.108 134.199 165.324C134.453 165.54 134.775 165.658 135.108 165.658C135.306 165.657 135.502 165.615 135.682 165.534C135.863 165.453 136.024 165.335 136.156 165.188C136.287 165.04 136.386 164.866 136.446 164.677C136.506 164.489 136.525 164.29 136.503 164.093L131.327 117.65L126.341 119.458Z" fill="#263238"/>
<path d="M89.5507 124.073L82.269 162.868C82.2202 163.14 82.0769 163.386 81.8644 163.563C81.6519 163.739 81.3838 163.835 81.1075 163.833C80.9375 163.833 80.7695 163.796 80.615 163.725C80.4605 163.654 80.3231 163.551 80.212 163.422C80.1008 163.293 80.0186 163.142 79.9709 162.979C79.9232 162.816 79.9111 162.644 79.9354 162.476L85.3132 126.518L89.5507 124.073Z" fill="#263238"/>
<path d="M115.305 109.599L108.065 148.156C108.017 148.428 107.873 148.674 107.661 148.851C107.448 149.027 107.18 149.123 106.904 149.121C106.734 149.121 106.567 149.084 106.413 149.013C106.259 148.942 106.122 148.839 106.011 148.711C105.9 148.583 105.817 148.433 105.769 148.27C105.721 148.108 105.708 147.937 105.732 147.769L111.067 112.039L115.305 109.599Z" fill="#263238"/>
<path d="M113.205 106.661C111.535 105.922 110.092 104.754 109.021 103.275C107.951 101.797 107.291 100.061 107.111 98.2441C105.939 86.4277 101.775 62.0844 87.6786 70.1883C70.2723 80.1908 76.504 109.238 79.0338 118.551C79.5962 120.65 80.6925 122.566 82.2159 124.115C85.3609 127.297 91.8684 132.738 102.942 137.374C104.301 137.941 105.811 138.031 107.227 137.628C112.727 136.064 127.095 131.264 134.276 122.089C134.682 121.569 134.867 120.909 134.789 120.254C134.712 119.598 134.378 119 133.862 118.588C130.961 116.287 124.4 111.657 113.205 106.661Z" fill="#023047"/>
<path opacity="0.5" d="M113.205 106.661C111.535 105.922 110.092 104.754 109.021 103.275C107.951 101.797 107.291 100.061 107.111 98.2441C105.939 86.4277 101.775 62.0844 87.6786 70.1883C70.2723 80.1908 76.504 109.238 79.0338 118.551C79.5962 120.65 80.6925 122.566 82.2159 124.115C85.3609 127.297 91.8684 132.738 102.942 137.374C104.301 137.941 105.811 138.031 107.227 137.628C112.727 136.064 127.095 131.264 134.276 122.089C134.682 121.569 134.867 120.909 134.789 120.254C134.712 119.598 134.378 119 133.862 118.588C130.961 116.287 124.4 111.657 113.205 106.661Z" fill="black"/>
<path d="M134.795 120.429C134.826 121.03 134.638 121.622 134.265 122.094C133.883 122.587 133.475 123.059 133.056 123.526C132.822 123.781 132.589 124.03 132.345 124.274C132.106 124.518 131.862 124.756 131.613 124.995L130.86 125.695C130.6 125.923 130.33 126.151 130.07 126.374C126.002 129.784 121.054 132.383 116.668 134.255L115.851 134.6L115.766 134.632L115.013 134.939L114.881 134.987L114.18 135.263L114.021 135.326L113.369 135.57L113.178 135.639L112.573 135.862L112.356 135.942L111.799 136.138L111.571 136.217L111.041 136.392L110.791 136.477L110.325 136.631L110.06 136.721L109.641 136.854L109.354 136.944L108.994 137.061L108.686 137.151L108.384 137.246L108.007 137.358L107.816 137.411C107.636 137.469 107.456 137.517 107.286 137.565C105.87 137.967 104.359 137.878 103.001 137.31C91.9267 132.669 85.4193 127.233 82.2743 124.051C80.7508 122.503 79.6545 120.586 79.0921 118.488C76.5623 109.175 70.3307 80.1271 87.7369 70.1246C88.0445 69.9513 88.3468 69.7922 88.6438 69.6473L88.8401 69.5518C89.1371 69.4139 89.4235 69.2866 89.7099 69.1752L89.7947 69.1434C90.0652 69.0427 90.3251 68.9525 90.6008 68.8782L90.7228 68.8411C91.0092 68.7616 91.2903 68.6979 91.5661 68.6449H91.6403C92.1897 68.5467 92.748 68.5075 93.3057 68.5282H93.3375C93.8754 68.5483 94.4093 68.6301 94.9285 68.7722C92.1495 67.5471 88.7552 67.6001 85.3822 69.5359C67.9759 79.5384 74.2076 108.586 76.7374 117.899L77.1669 119.49C78.0301 122.722 79.9399 125.578 82.5978 127.61L87.1164 131.062C91.9698 134.762 97.28 137.821 102.916 140.163C104.278 140.737 105.795 140.831 107.217 140.428C112.711 138.864 127.089 134.064 134.265 124.889C134.575 124.498 134.76 124.023 134.795 123.526V120.423V120.429Z" fill="#023047"/>
<path opacity="0.6" d="M134.795 120.429C134.826 121.03 134.638 121.622 134.265 122.094C133.883 122.587 133.475 123.059 133.056 123.526C132.822 123.781 132.589 124.03 132.345 124.274C132.106 124.518 131.862 124.756 131.613 124.995L130.86 125.695C130.6 125.923 130.33 126.151 130.07 126.374C126.002 129.784 121.054 132.383 116.668 134.255L115.851 134.6L115.766 134.632L115.013 134.939L114.881 134.987L114.18 135.263L114.021 135.326L113.369 135.57L113.178 135.639L112.573 135.862L112.356 135.942L111.799 136.138L111.571 136.217L111.041 136.392L110.791 136.477L110.325 136.631L110.06 136.721L109.641 136.854L109.354 136.944L108.994 137.061L108.686 137.151L108.384 137.246L108.007 137.358L107.816 137.411C107.636 137.469 107.456 137.517 107.286 137.565C105.87 137.967 104.359 137.878 103.001 137.31C91.9267 132.669 85.4193 127.233 82.2743 124.051C80.7508 122.503 79.6545 120.586 79.0921 118.488C76.5623 109.175 70.3307 80.1271 87.7369 70.1246C88.0445 69.9513 88.3468 69.7922 88.6438 69.6473L88.8401 69.5518C89.1371 69.4139 89.4235 69.2866 89.7099 69.1752L89.7947 69.1434C90.0652 69.0427 90.3251 68.9525 90.6008 68.8782L90.7228 68.8411C91.0092 68.7616 91.2903 68.6979 91.5661 68.6449H91.6403C92.1897 68.5467 92.748 68.5075 93.3057 68.5282H93.3375C93.8754 68.5483 94.4093 68.6301 94.9285 68.7722C92.1495 67.5471 88.7552 67.6001 85.3822 69.5359C67.9759 79.5384 74.2076 108.586 76.7374 117.899L77.1669 119.49C78.0301 122.722 79.9399 125.578 82.5978 127.61L87.1164 131.062C91.9698 134.762 97.28 137.821 102.916 140.163C104.278 140.737 105.795 140.831 107.217 140.428C112.711 138.864 127.089 134.064 134.265 124.889C134.575 124.498 134.76 124.023 134.795 123.526V120.423V120.429Z" fill="black"/>
<path d="M144.395 153.666C143.207 146.087 141.685 133.974 140.815 126.814C140.758 126.344 140.679 125.877 140.576 125.414C140.118 123.438 139.26 121.576 138.056 119.945C136.851 118.313 135.324 116.945 133.57 115.926L115.718 105.319L103.6 98.9546C103.6 98.9546 100.375 108.299 104.13 114.017C107.249 118.79 121.017 124.666 125.111 126.655C129.205 128.644 129.29 129.18 129.205 131.837C129.121 134.494 129.115 137.877 134.143 148.474C135.591 151.518 136.599 153.777 137.299 155.544C139.808 155.738 142.309 155.076 144.395 153.666Z" fill="#023047"/>
<path opacity="0.7" d="M144.395 153.666C143.207 146.087 141.685 133.974 140.815 126.814C140.73 126.111 140.595 125.415 140.412 124.73C139.368 121.027 136.924 117.875 133.597 115.942L115.718 105.298L103.6 98.9336C103.6 98.9336 100.375 108.278 104.13 113.996C107.249 118.769 121.017 124.645 125.111 126.634C129.205 128.623 129.29 129.159 129.205 131.816C129.121 134.473 129.115 137.856 134.143 148.453C135.591 151.497 136.599 153.756 137.299 155.522C139.806 155.723 142.307 155.068 144.395 153.666Z" fill="black"/>
<path d="M138.874 161.69C138.866 162.005 138.941 162.315 139.091 162.592C139.803 163.794 140.71 164.87 141.775 165.774C144.183 167.943 152.154 176.434 154.954 171.162C154.954 171.162 146.718 163.276 145.631 160.025C145.092 157.93 144.679 155.805 144.395 153.661C142.303 155.061 139.797 155.712 137.288 155.506C138.831 159.351 138.9 160.598 138.874 161.69Z" fill="#FFA8A7"/>
<path d="M147.466 161.171L147.237 160.487C147.146 160.236 146.963 160.028 146.725 159.906C146.487 159.784 146.211 159.757 145.954 159.829L142.618 160.858C142.409 160.923 142.226 161.053 142.096 161.23C141.966 161.406 141.896 161.62 141.897 161.839V162.173C141.895 162.331 141.832 162.482 141.719 162.594C141.607 162.705 141.456 162.767 141.297 162.767C140.591 162.768 139.907 162.522 139.362 162.073L138.895 161.691V160.524C138.594 160.72 138.35 160.992 138.187 161.312C138.024 161.632 137.948 161.99 137.967 162.348C138.009 163.139 138.046 164.104 138.015 164.47C137.962 165.17 137.309 168.087 138.089 168.951C138.868 169.816 140.619 169.916 142.782 169.683C144.946 169.45 147.312 171.576 149.316 172.367C151.321 173.157 159.627 174.854 159.605 169.545C159.605 168.193 158.264 167.641 156.954 167.164C155.644 166.687 150.902 165.016 149.688 164.014C149.2 163.607 148.747 163.16 148.335 162.677C147.949 162.237 147.653 161.726 147.466 161.171Z" fill="#455A64"/>
<path d="M149.295 172.382C147.29 171.592 144.925 169.465 142.761 169.699C140.597 169.932 138.847 169.831 138.068 168.967C137.818 168.608 137.688 168.179 137.696 167.742C137.659 168.558 137.723 169.333 138.068 169.725C138.847 170.59 140.597 170.69 142.761 170.457C144.925 170.224 147.29 172.356 149.295 173.141C151.3 173.926 159.605 175.628 159.584 170.319C159.579 170.243 159.568 170.166 159.552 170.091C159.033 174.732 151.231 173.141 149.295 172.382Z" fill="#263238"/>
<path d="M128.182 162.863C126.988 155.289 125.472 143.176 124.597 136.011C124.139 132.246 122.28 128.792 119.388 126.337L97.9674 108.125L86.517 107.907C86.517 107.907 84.157 117.454 87.9013 123.166C91.0251 127.939 104.788 133.82 108.882 135.804C112.976 137.787 113.061 138.334 112.976 140.985C112.892 143.637 112.886 147.026 117.919 157.623C119.362 160.672 120.37 162.926 121.07 164.692C123.579 164.902 126.085 164.257 128.182 162.863Z" fill="#023047"/>
<path opacity="0.7" d="M128.182 162.863C126.988 155.289 125.472 143.176 124.597 136.011C124.139 132.246 122.28 128.792 119.388 126.337L97.9674 108.125L86.517 107.907C86.517 107.907 84.157 117.454 87.9013 123.166C91.0251 127.939 104.788 133.82 108.882 135.804C112.976 137.787 113.061 138.334 112.976 140.985C112.892 143.637 112.886 147.026 117.919 157.623C119.362 160.672 120.37 162.926 121.07 164.692C123.579 164.902 126.085 164.257 128.182 162.863Z" fill="black"/>
<path d="M122.65 170.203C122.65 170.521 122.433 171.46 122.873 171.794C123.435 172.213 123.971 173.555 125.562 174.976C127.964 177.145 130.505 172.473 129.412 169.232C128.876 167.137 128.465 165.012 128.182 162.868C126.087 164.268 123.581 164.918 121.07 164.714C122.618 168.543 122.682 169.116 122.65 170.203Z" fill="#FFA8A7"/>
<path d="M108.495 68.4061C110.134 68.1459 111.812 68.4752 113.23 69.3356C114.649 70.196 115.717 71.5316 116.243 73.1051C117 75.3772 117.486 77.7305 117.691 80.1164C118.312 87.4618 118.482 91.1319 118.482 91.1319L125.859 94.4784C125.859 94.4784 121.876 94.6693 122.146 100.312L112.955 97.9947L108.495 68.4061Z" fill="#FFA8A7"/>
<path d="M118.752 86.6931C117.665 78.7378 117.235 74.5745 116.302 72.6016C115.661 71.1268 114.543 69.9108 113.126 69.1497C111.71 68.3886 110.078 68.1267 108.495 68.4065L111.274 90.2571L111.629 90.2253C114.09 89.9825 116.409 88.9564 118.243 87.2977L118.752 86.6931Z" fill="#023047"/>
<path opacity="0.2" d="M118.752 86.6931C117.665 78.7378 117.235 74.5745 116.302 72.6016C115.661 71.1268 114.543 69.9108 113.126 69.1497C111.71 68.3886 110.078 68.1267 108.495 68.4065L111.274 90.2571L111.629 90.2253C114.09 89.9825 116.409 88.9564 118.243 87.2977L118.752 86.6931Z" fill="black"/>
<path d="M118.482 91.1319C117.653 91.3867 116.903 91.8485 116.302 92.4737C116.302 92.4737 117.193 90.7819 118.423 90.2568L118.482 91.1319Z" fill="#F28F8F"/>
<path d="M90.7705 74.8504L99.0228 70.8515L105.822 68.5021C105.822 68.5021 111.274 66.7678 112.664 74.0284C113.814 79.9949 113.963 102.668 113.963 102.668L113.841 105.144C113.841 105.144 110.696 113.959 99.4577 114.691C88.2195 115.423 86.0291 110.681 86.0291 110.681C86.0291 110.681 84.8836 80.679 90.7705 74.8504Z" fill="#023047"/>
<path d="M116.774 50.6287C116.774 50.6287 119.325 57.1679 115.803 60.0478C112.282 62.9276 113.523 51.334 113.523 51.334L116.774 50.6287Z" fill="#263238"/>
<path d="M138.879 88.0132L60.4873 133.274V143.08V190.732C60.491 190.921 60.549 191.105 60.6543 191.262C60.7596 191.419 60.9078 191.543 61.0813 191.618C61.5296 191.847 62.0258 191.967 62.5292 191.967C63.0326 191.967 63.5288 191.847 63.977 191.618C64.1495 191.542 64.2966 191.418 64.401 191.261C64.5053 191.104 64.5625 190.921 64.5657 190.732V145.44L107.068 169.958V218.078C107.073 218.266 107.132 218.448 107.237 218.604C107.342 218.76 107.49 218.883 107.662 218.958C108.111 219.187 108.607 219.306 109.11 219.306C109.614 219.306 110.11 219.187 110.558 218.958C110.731 218.883 110.878 218.76 110.984 218.604C111.089 218.448 111.147 218.266 111.152 218.078V169.958L183.402 128.246V173.856C183.408 174.045 183.469 174.228 183.576 174.383C183.683 174.538 183.833 174.659 184.007 174.732C184.455 174.961 184.952 175.08 185.455 175.08C185.958 175.08 186.455 174.961 186.903 174.732C187.076 174.657 187.224 174.535 187.329 174.379C187.435 174.223 187.493 174.039 187.497 173.851V116.09L138.879 88.0132Z" fill="#455A64"/>
<path d="M110.558 218.969C110.11 219.198 109.614 219.318 109.11 219.318C108.607 219.318 108.111 219.198 107.662 218.969C106.862 218.508 106.862 217.76 107.662 217.299C108.111 217.07 108.607 216.95 109.11 216.95C109.614 216.95 110.11 217.07 110.558 217.299C111.359 217.76 111.359 218.508 110.558 218.969Z" fill="#455A64"/>
<path d="M111.163 168.787H107.068V218.088H111.163V168.787Z" fill="#37474F"/>
<path d="M62.5397 191.968C63.6703 191.968 64.5869 191.439 64.5869 190.786C64.5869 190.133 63.6703 189.603 62.5397 189.603C61.4091 189.603 60.4926 190.133 60.4926 190.786C60.4926 191.439 61.4091 191.968 62.5397 191.968Z" fill="#455A64"/>
<path d="M64.5869 141.441H60.4926V190.743H64.5869V141.441Z" fill="#263238"/>
<path d="M186.903 174.732C186.455 174.961 185.958 175.08 185.455 175.08C184.952 175.08 184.455 174.961 184.007 174.732C183.206 174.271 183.206 173.523 184.007 173.061C184.455 172.832 184.952 172.713 185.455 172.713C185.958 172.713 186.455 172.832 186.903 173.061C187.704 173.528 187.704 174.276 186.903 174.732Z" fill="#455A64"/>
<path d="M187.507 124.555H183.413V173.857H187.507V124.555Z" fill="#37474F"/>
<path d="M136.858 137.427C136.456 137.631 136.01 137.737 135.559 137.737C135.108 137.737 134.662 137.631 134.26 137.427C133.544 137.013 133.544 136.366 134.26 135.931C134.662 135.724 135.107 135.617 135.559 135.617C136.011 135.617 136.456 135.724 136.858 135.931C137.553 136.345 137.553 137.013 136.858 137.427Z" fill="#455A64"/>
<path d="M137.378 95.4971H133.703V136.642H137.378V95.4971Z" fill="#455A64"/>
<path d="M60.4873 133.274V143.08L109.116 171.157V161.346L60.4873 133.274Z" fill="#263238"/>
<path d="M187.507 116.09L109.115 161.346V171.157L187.507 125.897V116.09Z" fill="#37474F"/>
<path d="M138.879 88.0137L60.4873 133.274L109.116 161.346L187.507 116.091L138.879 88.0137Z" fill="#455A64"/>
<path d="M99.5532 118.557L117.384 128.851L147.025 111.705L129.2 101.204L99.5532 118.557Z" fill="#EBEBEB"/>
<path d="M115.464 115.624L122.152 111.763L117.962 109.344L111.274 113.205L115.464 115.624Z" fill="#E0E0E0"/>
<path d="M118.142 126.279L109.131 120.975L126.739 110.315L118.142 126.279Z" fill="#E0E0E0"/>
<path d="M123.186 93.2056L130.319 96.5521C132.45 97.0898 134.552 97.7395 136.615 98.4985C136.615 98.4985 141.579 100.524 141.807 101.856C142.035 103.187 138.094 106.396 134.61 104.836C133.699 104.348 132.724 103.991 131.714 103.776C130.786 103.675 128.002 103.245 126.013 101.331L117.691 99.1668C117.691 99.1668 117.278 94.0329 123.186 93.2056Z" fill="#FFA8A7"/>
<path d="M127.805 103.134C128.627 104.02 130.987 106.252 131.518 106.899C132.048 107.546 133.247 105.886 131.12 103.41C129.279 102.736 127.547 101.794 125.981 100.615C126.524 101.5 127.134 102.342 127.805 103.134Z" fill="#FFA8A7"/>
<path d="M107.487 60.605H99.0229V70.8514H107.487V60.605Z" fill="#FFA8A7"/>
<path d="M107.493 70.8514C105.766 70.2071 104.189 69.2191 102.855 67.9475C101.521 66.6758 100.459 65.1468 99.7336 63.453V60.605H107.514L107.493 70.8514Z" fill="#F28F8F"/>
<path d="M110.341 47.0759C110.341 47.0759 118.041 48.0041 116.275 61.1622C115.459 67.2453 113.83 70.3214 109.142 69.8017C103.838 69.2077 96.4824 65.0815 97.6227 54.6547C98.763 44.2279 110.341 47.0759 110.341 47.0759Z" fill="#FFA8A7"/>
<path d="M110.77 58.8071L110.494 63.3523L113.205 62.6999L110.77 58.8071Z" fill="#F28F8F"/>
<path d="M106.74 58.3987C106.728 58.5821 106.772 58.7646 106.864 58.9232C106.957 59.0818 107.094 59.2094 107.259 59.2899C107.425 59.3703 107.61 59.3999 107.792 59.375C107.974 59.3501 108.144 59.2718 108.282 59.15C108.419 59.0282 108.517 58.8683 108.564 58.6907C108.61 58.513 108.603 58.3255 108.543 58.152C108.483 57.9784 108.373 57.8266 108.226 57.7157C108.08 57.6048 107.904 57.5398 107.721 57.529C107.475 57.5145 107.234 57.5979 107.05 57.761C106.866 57.924 106.755 58.1534 106.74 58.3987Z" fill="#263238"/>
<path d="M112.865 58.1281C112.854 58.3111 112.897 58.4934 112.99 58.6519C113.082 58.8103 113.219 58.9379 113.384 59.0184C113.549 59.0989 113.734 59.1288 113.916 59.1043C114.097 59.0797 114.268 59.0019 114.405 58.8806C114.543 58.7593 114.642 58.6 114.689 58.4227C114.736 58.2455 114.729 58.0582 114.67 57.8846C114.611 57.7111 114.501 57.5589 114.356 57.4475C114.21 57.336 114.035 57.2702 113.852 57.2583C113.73 57.2504 113.607 57.2666 113.492 57.3061C113.376 57.3456 113.269 57.4075 113.178 57.4883C113.086 57.5691 113.011 57.6672 112.958 57.777C112.904 57.8868 112.873 58.0061 112.865 58.1281Z" fill="#263238"/>
<path d="M115.04 56.325L113.295 55.137C113.295 55.137 114.032 54.4582 114.7 54.9355C114.89 55.106 115.024 55.3299 115.085 55.5778C115.145 55.8257 115.129 56.0861 115.04 56.325Z" fill="#263238"/>
<path d="M107.381 56.1182L105.499 57.0623C105.499 57.0623 105.265 56.0864 106.002 55.7417C106.243 55.6577 106.504 55.6488 106.75 55.716C106.996 55.7832 107.216 55.9235 107.381 56.1182Z" fill="#263238"/>
<path d="M110.627 65.1975C109.567 65.2078 108.535 64.8623 107.694 64.2163C107.694 64.2163 107.397 65.7756 108.691 66.1521C109.985 66.5287 110.627 65.1975 110.627 65.1975Z" fill="#F28F8F"/>
<path d="M98.9327 58.7006C98.9327 58.7006 100.115 61.1668 100.847 61.0819C101.579 60.9971 100.847 51.6363 102.364 51.5779C103.881 51.5196 111.041 55.073 117.368 50.4854C119.802 48.7246 120.285 44.2272 118.826 44.6515C117.368 45.0758 115.4 46.3539 112.743 46.1736C110.086 45.9933 100.784 41.6762 98.4766 47.7647C98.4766 47.7647 93.3322 47.3457 95.2627 57.5604C95.7453 60.1008 97.2621 66.3908 99.0229 67.0113L98.9327 58.7006Z" fill="#263238"/>
<path d="M99.3518 60.9495C99.381 60.1781 99.2379 59.4099 98.9328 58.7008C98.7801 58.2642 98.5038 57.8813 98.1375 57.5989C97.7712 57.3164 97.3308 57.1465 96.8697 57.1097C94.4937 57.0461 94.1702 59.3372 94.2179 60.1486C94.3028 62.2701 96.037 64.6036 99.2616 64.6938L99.3518 60.9495Z" fill="#FFA8A7"/>
<path d="M100.084 106.799L106.151 111.62C107.188 111.718 108.217 111.895 109.227 112.15C110.388 112.495 113.433 113.614 114.239 113.789C115.045 113.964 114.005 115.38 111.895 114.85C111.895 114.85 116.318 117.878 116.259 119.225C116.201 120.572 111.661 122.874 108.596 120.615C107.806 119.955 106.93 119.405 105.992 118.981C105.101 118.69 102.486 117.677 100.932 115.385L95.6286 112.622C95.6286 112.622 94.133 106.359 100.084 106.799Z" fill="#FFA8A7"/>
<path d="M93.4648 73.5454C93.4648 73.5454 97.0023 76.2873 94.8278 84.8102C92.6534 93.333 91.4919 100.678 91.4919 100.678L100.084 106.799C98.9074 107.314 97.8814 108.119 97.1021 109.14C96.3228 110.16 95.8158 111.362 95.6287 112.633C95.6287 112.633 82.0834 107.329 81.8076 103.887C81.5318 100.445 84.6344 85.6693 85.1064 82.9486C85.5784 80.2279 87.9862 74.8342 93.4648 73.5454Z" fill="#FFA8A7"/>
<path d="M91.4918 100.678C90.4207 100.468 89.3181 100.479 88.2513 100.71C89.2681 100.158 90.4092 99.8752 91.5661 99.8881L91.4918 100.678Z" fill="#F28F8F"/>
<path d="M151.178 92.0655L148.075 112.352C148.08 112.364 148.08 112.377 148.075 112.389L117.235 130.246C117.228 130.25 117.219 130.251 117.21 130.251C117.202 130.25 117.194 130.247 117.187 130.242C117.18 130.238 117.174 130.231 117.17 130.223C117.167 130.215 117.165 130.207 117.166 130.198L120.173 110.522C120.237 110.102 120.392 109.702 120.626 109.348C120.861 108.995 121.17 108.697 121.531 108.475L149.778 91.1533C149.926 91.0561 150.099 91.0042 150.277 91.0039C150.454 91.0036 150.628 91.055 150.776 91.1518C150.925 91.2486 151.042 91.3865 151.113 91.5488C151.184 91.7111 151.207 91.8906 151.178 92.0655Z" fill="#FAFAFA"/>
<path d="M117.235 130.245L100.794 120.699C100.415 120.479 100.101 120.163 99.8821 119.784C99.6634 119.404 99.5481 118.973 99.548 118.535L117.379 128.829L117.235 130.245Z" fill="#E0E0E0"/>
<path d="M133.342 111.62C133.342 113.073 134.36 113.656 135.612 112.935C136.274 112.504 136.825 111.923 137.22 111.239C137.616 110.556 137.844 109.788 137.887 109C137.887 107.547 136.869 106.963 135.612 107.684C134.952 108.117 134.402 108.698 134.008 109.381C133.614 110.065 133.386 110.832 133.342 111.62Z" fill="#E0E0E0"/>
<path d="M99.2934 50.7403C99.2934 50.7403 97.8933 48.6719 98.763 48.0036C99.6328 47.3354 100.264 49.4621 99.2934 50.7403Z" fill="#263238"/>
<path d="M99.5267 51.1593C99.5267 51.1593 97.0553 50.8517 97.1136 49.7698C97.172 48.6879 99.2032 49.6001 99.5267 51.1593Z" fill="#263238"/>
<path d="M99.0229 70.8511C99.0229 70.8511 100.842 75.6243 105.032 75.0303C109.222 74.4363 107.493 70.8511 107.493 70.8511H99.0229Z" fill="#FFA8A7"/>
<path d="M93.4649 73.5454C93.4649 73.5454 96.2227 74.866 95.7984 80.4135C95.3741 85.961 93.1838 97.1409 93.1838 97.1409C93.1838 97.1409 83.3139 101.14 82.3698 95.5021C82.1312 94.0436 84.6185 80.5567 86.7453 77.7034C87.526 76.592 88.5241 75.6506 89.679 74.9359C90.834 74.2212 92.1219 73.7482 93.4649 73.5454Z" fill="#023047"/>
<path opacity="0.2" d="M93.4649 73.5454C93.4649 73.5454 96.2227 74.866 95.7984 80.4135C95.3741 85.961 93.1838 97.1409 93.1838 97.1409C93.1838 97.1409 83.3139 101.14 82.3698 95.5021C82.1312 94.0436 84.6185 80.5567 86.7453 77.7034C87.526 76.592 88.5241 75.6506 89.679 74.9359C90.834 74.2212 92.1219 73.7482 93.4649 73.5454Z" fill="black"/>
<path d="M122.873 170.489C123.243 171.05 123.811 171.452 124.464 171.614C125.063 171.709 123.854 170.155 125.297 169.529C126.739 168.903 130.043 168.05 130.34 169.291L130.706 170.839C131.051 172.303 131.751 173.66 132.743 174.79C133.706 175.956 134.802 177.004 136.01 177.914C137.898 179.129 141.001 182.072 137.018 184.581C133.035 187.089 128.145 184.968 127.185 182.12C126.225 179.272 125.212 178.445 124.703 177.973C123.63 177.22 122.865 176.105 122.549 174.833C122.291 173.573 122.114 172.297 122.019 171.014C121.999 170.755 122.05 170.496 122.166 170.263C122.281 170.031 122.458 169.834 122.677 169.694L122.873 170.489Z" fill="#455A64"/>
<path d="M137.039 184.57C133.056 187.074 128.166 184.958 127.206 182.11C126.246 179.262 125.233 178.434 124.724 177.962C123.825 177.312 123.134 176.415 122.735 175.379C122.735 175.454 122.735 175.539 122.735 175.613C122.889 178.079 124.4 178.657 124.91 179.134C125.419 179.612 126.257 180.386 127.217 183.239C128.176 186.093 133.225 187.864 137.203 185.361C139.139 184.146 139.399 182.826 138.943 181.648C139.038 182.608 138.55 183.621 137.039 184.57Z" fill="#263238"/>
<path d="M117.904 146.708L105.217 154.048L89.2007 144.799L101.929 137.459C102.096 137.365 102.284 137.315 102.475 137.315C102.667 137.315 102.855 137.365 103.022 137.459L117.919 146.061C117.975 146.096 118.02 146.144 118.051 146.202C118.082 146.259 118.097 146.324 118.095 146.389C118.094 146.454 118.075 146.518 118.042 146.574C118.008 146.63 117.96 146.676 117.904 146.708Z" fill="#023047"/>
<path opacity="0.7" d="M117.904 146.708L105.217 154.048L89.2007 144.799L101.929 137.459C102.096 137.365 102.284 137.315 102.475 137.315C102.667 137.315 102.855 137.365 103.022 137.459L117.919 146.061C117.975 146.096 118.02 146.144 118.051 146.202C118.082 146.259 118.097 146.324 118.095 146.389C118.094 146.454 118.075 146.518 118.042 146.574C118.008 146.63 117.96 146.676 117.904 146.708Z" fill="black"/>
<path d="M117.023 146.442L105.217 153.257L90.3092 144.655L102.141 137.824C102.295 137.733 102.47 137.685 102.648 137.685C102.826 137.685 103.001 137.733 103.154 137.824L117.023 145.827C117.077 145.858 117.122 145.903 117.153 145.957C117.184 146.011 117.201 146.072 117.201 146.135C117.201 146.197 117.184 146.258 117.153 146.312C117.122 146.366 117.077 146.411 117.023 146.442Z" fill="white"/>
<path d="M105.217 153.258V151.927L117.203 145.011V146.141L105.217 153.258Z" fill="white"/>
<path d="M105.217 153.258V151.927L90.3092 143.324V144.655L105.217 153.258Z" fill="#E0E0E0"/>
<path d="M117.904 144.602L105.217 151.927L89.2007 142.683L101.929 135.342C102.096 135.249 102.284 135.199 102.475 135.199C102.667 135.199 102.855 135.249 103.022 135.342L117.904 143.971C117.956 144.005 117.999 144.052 118.029 144.107C118.059 144.162 118.075 144.224 118.075 144.287C118.075 144.35 118.059 144.411 118.029 144.466C117.999 144.521 117.956 144.568 117.904 144.602Z" fill="#023047"/>
<path opacity="0.5" d="M117.904 144.602L105.217 151.927L89.2007 142.683L101.929 135.342C102.096 135.249 102.284 135.199 102.475 135.199C102.667 135.199 102.855 135.249 103.022 135.342L117.904 143.971C117.956 144.005 117.999 144.052 118.029 144.107C118.059 144.162 118.075 144.224 118.075 144.287C118.075 144.35 118.059 144.411 118.029 144.466C117.999 144.521 117.956 144.568 117.904 144.602Z" fill="black"/>
<path d="M103.557 153.077C103.521 153.096 103.481 153.105 103.441 153.105C103.4 153.105 103.36 153.096 103.324 153.077C103.278 153.053 103.239 153.016 103.212 152.971C103.185 152.926 103.171 152.875 103.17 152.823V151.608C103.173 151.337 103.245 151.071 103.38 150.835C103.514 150.599 103.707 150.402 103.939 150.261L103.987 150.229C104.009 150.217 104.034 150.211 104.059 150.212C104.084 150.212 104.108 150.219 104.13 150.232C104.151 150.245 104.169 150.263 104.181 150.285C104.193 150.307 104.199 150.332 104.199 150.357C104.199 150.423 104.225 150.486 104.272 150.533C104.319 150.58 104.382 150.606 104.448 150.606C104.515 150.606 104.578 150.58 104.625 150.533C104.671 150.486 104.698 150.423 104.698 150.357C104.699 150.243 104.669 150.132 104.612 150.034C104.555 149.936 104.473 149.855 104.374 149.8C104.277 149.741 104.166 149.71 104.053 149.71C103.94 149.71 103.829 149.741 103.732 149.8L103.685 149.826C103.376 150.009 103.121 150.269 102.943 150.581C102.766 150.892 102.672 151.245 102.672 151.603V152.807C102.672 152.949 102.71 153.089 102.783 153.211C102.856 153.334 102.96 153.434 103.085 153.502C103.2 153.563 103.327 153.594 103.457 153.592C103.613 153.593 103.767 153.547 103.897 153.459C103.945 153.427 103.979 153.378 103.992 153.321L103.557 153.077Z" fill="white"/>
<path d="M101.187 151.709C101.151 151.727 101.111 151.737 101.07 151.737C101.03 151.737 100.99 151.727 100.953 151.709C100.907 151.684 100.869 151.648 100.842 151.603C100.815 151.558 100.8 151.507 100.8 151.454V150.251C100.801 149.978 100.873 149.711 101.008 149.474C101.142 149.237 101.335 149.039 101.569 148.898H101.616C101.638 148.886 101.663 148.88 101.688 148.88C101.713 148.88 101.738 148.886 101.76 148.898C101.781 148.911 101.798 148.929 101.81 148.95C101.822 148.971 101.828 148.996 101.829 149.02C101.829 149.086 101.855 149.15 101.902 149.196C101.948 149.243 102.012 149.269 102.078 149.269C102.144 149.269 102.207 149.243 102.254 149.196C102.301 149.15 102.327 149.086 102.327 149.02C102.323 148.911 102.292 148.805 102.235 148.712C102.178 148.619 102.099 148.543 102.004 148.49C101.907 148.431 101.796 148.4 101.683 148.4C101.57 148.4 101.459 148.431 101.362 148.49L101.314 148.516C101.006 148.699 100.75 148.959 100.573 149.271C100.395 149.582 100.301 149.934 100.301 150.293V151.497C100.301 151.639 100.34 151.779 100.412 151.901C100.485 152.023 100.59 152.124 100.715 152.192C100.829 152.252 100.957 152.283 101.086 152.282C101.243 152.283 101.396 152.237 101.526 152.149C101.574 152.117 101.608 152.068 101.622 152.011L101.187 151.709Z" fill="white"/>
<path d="M98.8161 150.336C98.7795 150.353 98.7397 150.362 98.6994 150.362C98.6591 150.362 98.6192 150.353 98.5827 150.336C98.5366 150.311 98.498 150.274 98.4709 150.229C98.4439 150.185 98.4293 150.133 98.4289 150.081V148.877C98.4306 148.605 98.5022 148.337 98.6368 148.101C98.7715 147.864 98.9647 147.666 99.1979 147.525L99.2456 147.498C99.2676 147.486 99.2922 147.48 99.3172 147.48C99.3423 147.48 99.3669 147.486 99.3888 147.498C99.4098 147.511 99.4272 147.529 99.4392 147.55C99.4513 147.572 99.4577 147.596 99.4578 147.62C99.4578 147.686 99.484 147.75 99.5308 147.797C99.5775 147.843 99.6409 147.87 99.707 147.87C99.7732 147.87 99.8366 147.843 99.8833 147.797C99.93 147.75 99.9563 147.686 99.9563 147.62C99.9527 147.511 99.921 147.405 99.8643 147.313C99.8076 147.22 99.7279 147.143 99.6328 147.09C99.536 147.031 99.425 147 99.3119 147C99.1988 147 99.0879 147.031 98.9911 147.09L98.9433 147.116C98.635 147.299 98.3795 147.559 98.2019 147.871C98.0243 148.182 97.9307 148.535 97.9304 148.893V150.097C97.9304 150.239 97.9688 150.379 98.0416 150.501C98.1144 150.624 98.2189 150.724 98.344 150.792C98.4582 150.853 98.5859 150.884 98.7153 150.882C98.872 150.883 99.0254 150.837 99.1555 150.749C99.2033 150.717 99.2373 150.668 99.2509 150.611L98.8161 150.336Z" fill="white"/>
<path d="M96.4454 148.972C96.4089 148.989 96.369 148.998 96.3287 148.998C96.2884 148.998 96.2486 148.989 96.212 148.972C96.1659 148.948 96.1273 148.911 96.1002 148.866C96.0732 148.821 96.0587 148.77 96.0582 148.718V147.514C96.0599 147.241 96.1315 146.974 96.2662 146.737C96.4008 146.5 96.594 146.302 96.8272 146.161L96.875 146.135C96.8969 146.123 96.9215 146.117 96.9466 146.117C96.9716 146.117 96.9962 146.123 97.0182 146.135C97.0391 146.148 97.0565 146.166 97.0686 146.187C97.0807 146.208 97.087 146.232 97.0871 146.257C97.0871 146.323 97.1134 146.386 97.1601 146.433C97.2069 146.48 97.2703 146.506 97.3364 146.506C97.4025 146.506 97.4659 146.48 97.5126 146.433C97.5594 146.386 97.5856 146.323 97.5856 146.257C97.582 146.148 97.5504 146.042 97.4937 145.949C97.437 145.856 97.3572 145.78 97.2621 145.727C97.1653 145.668 97.0544 145.637 96.9413 145.637C96.8282 145.637 96.7172 145.668 96.6204 145.727L96.5727 145.753C96.2643 145.936 96.0088 146.196 95.8312 146.507C95.6536 146.819 95.5601 147.171 95.5597 147.53V148.734C95.5597 148.876 95.5981 149.016 95.6709 149.138C95.7437 149.26 95.8482 149.361 95.9734 149.428C96.0876 149.489 96.2153 149.52 96.3446 149.519C96.5013 149.52 96.6547 149.473 96.7848 149.386C96.8326 149.353 96.8666 149.304 96.8803 149.248L96.4454 148.972Z" fill="white"/>
<path d="M94.0747 147.604C94.0381 147.621 93.9983 147.63 93.958 147.63C93.9177 147.63 93.8778 147.621 93.8413 147.604C93.7952 147.579 93.7566 147.543 93.7295 147.498C93.7025 147.453 93.6879 147.402 93.6875 147.349V146.146C93.6892 145.873 93.7608 145.606 93.8954 145.369C94.0301 145.132 94.2233 144.934 94.4565 144.793H94.5042C94.5262 144.781 94.5508 144.775 94.5758 144.775C94.6009 144.775 94.6255 144.781 94.6474 144.793C94.6684 144.806 94.6858 144.824 94.6979 144.845C94.7099 144.867 94.7163 144.891 94.7164 144.915C94.7164 144.981 94.7426 145.045 94.7894 145.091C94.8361 145.138 94.8995 145.164 94.9657 145.164C95.0318 145.164 95.0952 145.138 95.1419 145.091C95.1887 145.045 95.2149 144.981 95.2149 144.915C95.2113 144.806 95.1796 144.7 95.1229 144.607C95.0662 144.514 94.9865 144.438 94.8914 144.385C94.7946 144.326 94.6836 144.295 94.5705 144.295C94.4574 144.295 94.3465 144.326 94.2497 144.385L94.2019 144.411C93.8936 144.594 93.6381 144.854 93.4605 145.166C93.2829 145.477 93.1893 145.829 93.189 146.188V147.392C93.189 147.534 93.2274 147.674 93.3002 147.796C93.373 147.919 93.4775 148.019 93.6026 148.087C93.7177 148.145 93.8448 148.176 93.9739 148.177C94.1306 148.178 94.284 148.132 94.4141 148.044C94.4619 148.012 94.4959 147.963 94.5095 147.906L94.0747 147.604Z" fill="white"/>
<path d="M91.704 146.236C91.6675 146.253 91.6276 146.262 91.5873 146.262C91.547 146.262 91.5072 146.253 91.4706 146.236C91.4245 146.211 91.3859 146.175 91.3589 146.13C91.3318 146.085 91.3173 146.034 91.3168 145.981V144.767C91.3185 144.495 91.3901 144.227 91.5248 143.99C91.6594 143.754 91.8526 143.555 92.0858 143.415L92.1336 143.388C92.1555 143.376 92.1801 143.37 92.2052 143.37C92.2302 143.37 92.2548 143.376 92.2768 143.388C92.2985 143.4 92.3165 143.418 92.3287 143.439C92.3409 143.461 92.3468 143.485 92.3457 143.51C92.3457 143.576 92.372 143.64 92.4187 143.686C92.4655 143.733 92.5289 143.759 92.595 143.759C92.6611 143.759 92.7245 143.733 92.7712 143.686C92.818 143.64 92.8443 143.576 92.8443 143.51C92.8387 143.4 92.805 143.293 92.7465 143.199C92.6879 143.106 92.6064 143.029 92.5096 142.975C92.4129 142.922 92.3041 142.895 92.1938 142.896C92.0834 142.896 91.975 142.925 91.879 142.98L91.8313 143.011C91.5229 143.194 91.2674 143.454 91.0898 143.766C90.9122 144.077 90.8187 144.43 90.8183 144.788V145.992C90.8183 146.134 90.8567 146.274 90.9295 146.396C91.0024 146.519 91.1068 146.619 91.232 146.687C91.3471 146.745 91.4742 146.776 91.6032 146.777C91.7599 146.778 91.9133 146.732 92.0434 146.644C92.0912 146.612 92.1252 146.563 92.1389 146.506L91.704 146.236Z" fill="white"/>
<path d="M119.537 141.293L105.822 149.211L87.9703 138.906L101.691 130.988L119.537 141.293Z" fill="#E6E6E6"/>
<path d="M120.327 141.033L105.997 147.779L89.0681 136.011L103.404 129.27L120.327 141.033Z" fill="#FAFAFA"/>
<path d="M88.3309 119.973H76.6896L77.7503 132.293C77.8192 132.683 77.9816 133.051 78.2235 133.365C78.4655 133.679 78.7799 133.93 79.1399 134.096C80.1881 134.629 81.3475 134.907 82.5235 134.907C83.6996 134.907 84.859 134.629 85.9072 134.096C86.2664 133.929 86.5801 133.678 86.8219 133.364C87.0638 133.05 87.2266 132.683 87.2967 132.293L88.3309 119.973Z" fill="#023047"/>
<path d="M89.0734 119.299V118.323H88.8454C88.469 117.597 87.8783 117.005 87.1536 116.626C84.5919 115.146 80.434 115.146 77.8723 116.626C77.1463 117.003 76.5552 117.596 76.1805 118.323H75.9471V119.309C75.9471 120.275 76.5889 121.245 77.8723 121.988C80.434 123.467 84.5919 123.467 87.1536 121.988C88.437 121.245 89.0787 120.269 89.0734 119.299Z" fill="#E0E0E0"/>
<path d="M87.1535 121.06C84.5919 122.54 80.4339 122.54 77.8723 121.06C75.3107 119.58 75.3054 117.183 77.8723 115.704C80.4392 114.224 84.5919 114.219 87.1535 115.704C89.7151 117.189 89.7151 119.575 87.1535 121.06Z" fill="#EBEBEB"/>
<path d="M87.7741 117.984V117.204H87.5885C87.2865 116.623 86.8123 116.148 86.2308 115.846C85.0803 115.263 83.8084 114.958 82.5183 114.958C81.2282 114.958 79.9563 115.263 78.8058 115.846C78.2225 116.146 77.7478 116.621 77.4481 117.204H77.2625V117.984C77.2625 118.763 77.7928 119.543 78.8058 120.132C79.9563 120.715 81.2282 121.02 82.5183 121.02C83.8084 121.02 85.0803 120.715 86.2308 120.132C87.2596 119.532 87.7741 118.753 87.7741 117.984Z" fill="#E0E0E0"/>
<path d="M86.2308 119.384C85.0803 119.968 83.8084 120.272 82.5183 120.272C81.2282 120.272 79.9563 119.968 78.8058 119.384C76.748 118.201 76.748 116.276 78.8058 115.094C79.9563 114.51 81.2282 114.206 82.5183 114.206C83.8084 114.206 85.0803 114.51 86.2308 115.094C88.2832 116.276 88.2832 118.201 86.2308 119.384Z" fill="#F5F5F5"/>
<path d="M85.3716 118.759C84.4848 119.208 83.5045 119.443 82.5103 119.443C81.5161 119.443 80.5358 119.208 79.649 118.759C78.1163 117.878 78.058 116.468 79.4899 115.577C79.5405 115.539 79.5937 115.506 79.649 115.476C79.9962 115.278 80.3668 115.125 80.7522 115.02C82.2945 114.585 83.9441 114.748 85.3716 115.476C86.9573 116.393 86.9573 117.846 85.3716 118.759Z" fill="#F0F0F0"/>
<path d="M79.6491 115.926C80.536 115.474 81.5174 115.238 82.513 115.238C83.5086 115.238 84.49 115.474 85.3769 115.926C85.664 116.06 85.9173 116.257 86.1183 116.502C86.3193 116.747 86.4629 117.034 86.5384 117.342C86.6604 116.668 86.2679 115.968 85.3769 115.454C84.4886 115.006 83.5077 114.773 82.513 114.773C81.5183 114.773 80.5374 115.006 79.6491 115.454C78.7528 115.984 78.3656 116.668 78.4823 117.342C78.5584 117.033 78.7027 116.746 78.9047 116.501C79.1066 116.256 79.361 116.059 79.6491 115.926Z" fill="#E0E0E0"/>
<path d="M81.8128 116.08L80.6407 116.828L79.4952 116.006V115.555C79.5457 115.518 79.5989 115.484 79.6543 115.454C80.0015 115.257 80.3721 115.103 80.7574 114.998V115.332L81.8128 116.08Z" fill="#E0E0E0"/>
<path d="M220.05 43.7338L154.031 5.59066C153.753 5.38563 153.417 5.27502 153.071 5.27502C152.726 5.27502 152.39 5.38563 152.111 5.59066L149.826 7.18172L151.385 9.11221V62.3334C151.385 64.2851 152.573 66.5762 154.037 67.393L219.403 105.133L219.525 107.207L221.933 105.557C222.209 105.298 222.422 104.978 222.557 104.623C222.691 104.269 222.742 103.888 222.707 103.51V48.7669C222.702 46.8152 221.514 44.5506 220.05 43.7338Z" fill="#023047"/>
<path opacity="0.3" d="M220.05 43.7338L154.031 5.59066C153.753 5.38563 153.417 5.27502 153.071 5.27502C152.726 5.27502 152.39 5.38563 152.111 5.59066L149.826 7.18172L151.385 9.11221V62.3334C151.385 64.2851 152.573 66.5762 154.037 67.393L219.403 105.133L219.525 107.207L221.933 105.557C222.209 105.298 222.422 104.978 222.557 104.623C222.691 104.269 222.742 103.888 222.707 103.51V48.7669C222.702 46.8152 221.514 44.5506 220.05 43.7338Z" fill="black"/>
<path d="M217.801 107.059L151.783 68.9424C150.324 68.0991 149.131 65.8345 149.131 63.8828V9.1395C149.131 7.1931 150.319 6.2968 151.783 7.14006L217.801 45.2567C219.265 46.1 220.453 48.3646 220.453 50.3163V105.054C220.453 107.006 219.265 107.908 217.801 107.059Z" fill="#023047"/>
<path d="M217.801 107.059L151.783 68.9424C150.324 68.0991 149.131 65.8345 149.131 63.8828V9.1395C149.131 7.1931 150.319 6.2968 151.783 7.14006L217.801 45.2567C219.265 46.1 220.453 48.3646 220.453 50.3163V105.054C220.453 107.006 219.265 107.908 217.801 107.059Z" fill="#023047"/>
<path d="M217.801 45.2567L151.783 7.14006C150.324 6.2968 149.131 7.1931 149.131 9.1395V11.7913L220.448 52.9628V50.311C220.453 48.3646 219.265 46.1 217.801 45.2567Z" fill="#455A64"/>
<path d="M150.733 7.35177C151.011 7.36485 151.281 7.44883 151.517 7.59573L217.536 45.7124C218.83 46.4602 219.923 48.5657 219.923 50.3158V105.054C219.923 106.115 219.504 106.846 218.862 106.846C218.581 106.833 218.309 106.747 218.072 106.597L152.048 68.4805C150.759 67.738 149.667 65.6272 149.667 63.8823V9.13906C149.667 8.05183 150.086 7.35177 150.727 7.35177H150.733ZM150.727 6.82141C149.789 6.82141 149.136 7.68589 149.136 9.13906V63.8876C149.136 65.8393 150.324 68.104 151.788 68.9472L217.801 107.059C218.12 107.257 218.486 107.366 218.862 107.377C219.801 107.377 220.453 106.507 220.453 105.054V50.3158C220.453 48.3641 219.265 46.073 217.801 45.2563L151.783 7.13962C151.464 6.94009 151.098 6.83016 150.722 6.82141H150.727Z" fill="#023047"/>
<path d="M179.743 35.7785C179.644 35.7804 179.547 35.7547 179.462 35.7042L154.328 21.2149C154.21 21.1352 154.127 21.0137 154.095 20.875C154.064 20.7363 154.086 20.5907 154.157 20.4675C154.228 20.3444 154.344 20.2529 154.48 20.2115C154.616 20.1701 154.763 20.1818 154.89 20.2444L180.024 34.7549C180.137 34.8138 180.227 34.9095 180.279 35.0264C180.331 35.1433 180.341 35.2743 180.308 35.3979C180.276 35.5214 180.202 35.6301 180.099 35.706C179.996 35.782 179.871 35.8206 179.743 35.8156V35.7785Z" fill="white"/>
<path d="M215.102 56.219C215.002 56.2193 214.905 56.1917 214.821 56.1394L196.205 45.3944C196.076 45.3199 195.981 45.197 195.942 45.0527C195.904 44.9085 195.924 44.7548 195.998 44.6254C196.073 44.496 196.196 44.4015 196.34 44.3627C196.484 44.3239 196.638 44.344 196.767 44.4186L215.383 55.1689C215.496 55.2277 215.586 55.3235 215.638 55.4404C215.69 55.5573 215.7 55.6883 215.667 55.8118C215.634 55.9354 215.561 56.0441 215.458 56.12C215.355 56.196 215.229 56.2346 215.102 56.2296V56.219Z" fill="white"/>
<path d="M192.45 43.14C192.352 43.1387 192.255 43.1132 192.169 43.0658L184.59 38.6957C184.521 38.6618 184.46 38.614 184.41 38.5552C184.36 38.4965 184.322 38.4281 184.3 38.3543C184.277 38.2805 184.27 38.2029 184.279 38.1263C184.288 38.0497 184.312 37.9757 184.351 37.9089C184.39 37.8422 184.442 37.7841 184.504 37.7383C184.566 37.6925 184.637 37.66 184.712 37.6428C184.787 37.6255 184.865 37.6239 184.941 37.6381C185.017 37.6523 185.089 37.6819 185.153 37.7251L192.715 42.0899C192.829 42.1488 192.919 42.2446 192.971 42.3615C193.022 42.4784 193.033 42.6094 193 42.7329C192.967 42.8565 192.893 42.9652 192.791 43.0411C192.688 43.117 192.562 43.1557 192.434 43.1506L192.45 43.14Z" fill="white"/>
<path d="M179.743 70.9998C179.644 70.9991 179.548 70.9736 179.462 70.9255L154.328 56.415C154.21 56.3352 154.127 56.2138 154.095 56.0751C154.064 55.9364 154.086 55.7907 154.157 55.6676C154.228 55.5445 154.344 55.453 154.48 55.4115C154.616 55.3701 154.763 55.3819 154.89 55.4444L180.024 69.9497C180.153 70.0249 180.246 70.1482 180.284 70.2924C180.322 70.4366 180.301 70.59 180.226 70.7187C180.179 70.8058 180.11 70.8782 180.024 70.9279C179.939 70.9775 179.842 71.0024 179.743 70.9998Z" fill="white"/>
<path d="M215.102 91.4128C215.003 91.4147 214.906 91.389 214.821 91.3385L196.205 80.5935C196.076 80.519 195.981 80.3961 195.942 80.2518C195.904 80.1076 195.924 79.9539 195.998 79.8245C196.073 79.6951 196.196 79.6006 196.34 79.5618C196.484 79.523 196.638 79.5431 196.767 79.6177L215.383 90.368C215.511 90.4423 215.605 90.5642 215.643 90.7073C215.682 90.8503 215.663 91.0028 215.59 91.1317C215.54 91.2169 215.469 91.2877 215.383 91.337C215.297 91.3863 215.2 91.4124 215.102 91.4128Z" fill="white"/>
<path d="M192.45 78.3343C192.352 78.3362 192.254 78.3105 192.169 78.2601L184.59 73.8952C184.521 73.8613 184.46 73.8135 184.41 73.7548C184.36 73.6961 184.322 73.6277 184.3 73.5539C184.277 73.4801 184.27 73.4025 184.279 73.3259C184.288 73.2493 184.312 73.1753 184.351 73.1085C184.39 73.0418 184.442 72.9837 184.504 72.9379C184.566 72.8921 184.637 72.8596 184.712 72.8424C184.787 72.8251 184.865 72.8235 184.941 72.8377C185.017 72.8519 185.089 72.8815 185.153 72.9247L192.715 77.2895C192.844 77.3639 192.937 77.4858 192.976 77.6288C193.015 77.7718 192.995 77.9244 192.922 78.0532C192.874 78.1362 192.805 78.2055 192.723 78.2547C192.64 78.3039 192.546 78.3313 192.45 78.3343Z" fill="white"/>
<path d="M179.743 79.2677C179.644 79.2696 179.547 79.2439 179.462 79.1935L154.328 64.6882C154.199 64.6137 154.104 64.4908 154.066 64.3466C154.027 64.2023 154.047 64.0486 154.121 63.9192C154.196 63.7898 154.319 63.6953 154.463 63.6565C154.607 63.6177 154.761 63.6378 154.891 63.7124L180.024 78.207C180.138 78.2659 180.227 78.3616 180.279 78.4785C180.331 78.5954 180.341 78.7264 180.308 78.85C180.276 78.9735 180.202 79.0822 180.099 79.1581C179.996 79.2341 179.871 79.2727 179.743 79.2677Z" fill="white"/>
<path d="M207.178 95.115C207.079 95.1169 206.982 95.0912 206.897 95.0408L196.205 88.8674C196.136 88.8335 196.074 88.7857 196.024 88.727C195.974 88.6683 195.937 88.5999 195.914 88.5261C195.892 88.4523 195.885 88.3747 195.894 88.298C195.903 88.2214 195.927 88.1474 195.966 88.0807C196.005 88.014 196.056 87.9559 196.119 87.9101C196.181 87.8643 196.251 87.8318 196.327 87.8145C196.402 87.7973 196.48 87.7957 196.556 87.8099C196.631 87.824 196.703 87.8536 196.767 87.8969L207.459 94.0702C207.523 94.1065 207.579 94.1551 207.625 94.2133C207.67 94.2714 207.703 94.3379 207.722 94.4089C207.741 94.4799 207.746 94.5541 207.737 94.627C207.727 94.6999 207.703 94.7703 207.666 94.8339C207.616 94.9192 207.545 94.9899 207.46 95.0392C207.374 95.0885 207.277 95.1147 207.178 95.115Z" fill="white"/>
<path d="M192.45 86.6136C192.352 86.6123 192.255 86.5868 192.169 86.5394L184.59 82.1746C184.461 82.1 184.366 81.9771 184.328 81.8329C184.289 81.6887 184.309 81.535 184.384 81.4055C184.458 81.2761 184.581 81.1817 184.725 81.1429C184.869 81.1041 185.023 81.1242 185.153 81.1987L192.715 85.5635C192.829 85.6224 192.919 85.7182 192.971 85.8351C193.022 85.952 193.033 86.083 193 86.2065C192.967 86.3301 192.893 86.4388 192.79 86.5147C192.688 86.5906 192.562 86.6293 192.434 86.6242L192.45 86.6136Z" fill="white"/>
<path d="M167.211 32.9414C167.111 32.9417 167.014 32.9142 166.93 32.8619L154.328 25.5907C154.231 25.5039 154.167 25.3861 154.147 25.2573C154.127 25.1286 154.152 24.9969 154.219 24.8847C154.285 24.7726 154.389 24.687 154.511 24.6426C154.634 24.5982 154.768 24.5978 154.89 24.6413L167.492 31.9125C167.62 31.9878 167.714 32.1111 167.752 32.2553C167.79 32.3995 167.769 32.5528 167.693 32.6815C167.644 32.7647 167.573 32.8329 167.488 32.8787C167.403 32.9245 167.307 32.9462 167.211 32.9414Z" fill="white"/>
<path d="M203.503 53.8957C203.405 53.8944 203.308 53.8689 203.222 53.8215L184.59 43.0711C184.521 43.0372 184.46 42.9894 184.41 42.9307C184.36 42.872 184.322 42.8036 184.3 42.7298C184.277 42.656 184.27 42.5784 184.279 42.5018C184.288 42.4252 184.312 42.3512 184.351 42.2844C184.39 42.2177 184.442 42.1596 184.504 42.1138C184.566 42.068 184.637 42.0355 184.712 42.0183C184.787 42.001 184.865 41.9994 184.941 42.0136C185.017 42.0278 185.089 42.0574 185.153 42.1006L203.768 52.8456C203.882 52.9045 203.972 53.0002 204.023 53.1171C204.075 53.234 204.085 53.365 204.053 53.4886C204.02 53.6121 203.946 53.7208 203.843 53.7968C203.74 53.8727 203.615 53.9113 203.487 53.9063L203.503 53.8957Z" fill="white"/>
<path d="M179.918 40.2759C179.819 40.2778 179.722 40.2521 179.637 40.2016L172.074 35.8368C171.945 35.7622 171.85 35.6393 171.811 35.4951C171.773 35.3509 171.793 35.1972 171.867 35.0678C171.942 34.9384 172.065 34.8439 172.209 34.8051C172.353 34.7663 172.507 34.7864 172.636 34.8609L180.199 39.2258C180.328 39.301 180.421 39.4243 180.459 39.5685C180.497 39.7128 180.476 39.8661 180.401 39.9948C180.354 40.0819 180.285 40.1543 180.199 40.204C180.114 40.2537 180.017 40.2786 179.918 40.2759Z" fill="white"/>
<path d="M179.743 44.551C179.644 44.5514 179.546 44.5238 179.462 44.4715L154.328 29.9451C154.227 29.8593 154.16 29.7407 154.138 29.6101C154.116 29.4795 154.14 29.3453 154.208 29.2311C154.275 29.117 154.38 29.0302 154.505 28.9862C154.63 28.9422 154.767 28.9437 154.891 28.9904L180.024 43.5009C180.153 43.5762 180.246 43.6995 180.284 43.8437C180.322 43.9879 180.301 44.1412 180.226 44.27C180.179 44.3571 180.11 44.4295 180.024 44.4792C179.939 44.5288 179.842 44.5537 179.743 44.551Z" fill="white"/>
<path d="M201.445 57.0782C201.346 57.0801 201.249 57.0544 201.164 57.0039L196.205 54.14C196.136 54.1061 196.074 54.0583 196.024 53.9996C195.974 53.9409 195.937 53.8725 195.914 53.7987C195.892 53.7249 195.885 53.6473 195.894 53.5706C195.903 53.494 195.927 53.42 195.966 53.3533C196.005 53.2865 196.056 53.2285 196.119 53.1827C196.181 53.1369 196.251 53.1043 196.327 53.0871C196.402 53.0699 196.48 53.0683 196.556 53.0824C196.631 53.0966 196.703 53.1262 196.767 53.1694L201.726 56.0334C201.854 56.1077 201.948 56.2297 201.987 56.3727C202.025 56.5157 202.006 56.6682 201.933 56.7971C201.883 56.8823 201.812 56.9531 201.726 57.0024C201.641 57.0517 201.544 57.0778 201.445 57.0782Z" fill="white"/>
<path d="M169.687 43.1187C169.589 43.1174 169.493 43.0919 169.406 43.0445L164.437 40.1805C164.373 40.1436 164.317 40.0945 164.272 40.0358C164.227 39.9772 164.193 39.9103 164.174 39.8389C164.155 39.7675 164.15 39.693 164.16 39.6196C164.169 39.5463 164.193 39.4756 164.23 39.4115C164.267 39.3475 164.316 39.2913 164.375 39.2462C164.433 39.2011 164.5 39.168 164.572 39.1488C164.643 39.1296 164.718 39.1247 164.791 39.1343C164.864 39.1438 164.935 39.1678 164.999 39.2047L169.958 42.0686C170.071 42.1275 170.161 42.2233 170.213 42.3401C170.265 42.457 170.275 42.588 170.242 42.7116C170.21 42.8351 170.136 42.9438 170.033 43.0198C169.93 43.0957 169.805 43.1343 169.677 43.1293L169.687 43.1187Z" fill="white"/>
<path d="M192.45 51.8857C192.352 51.8844 192.255 51.8589 192.169 51.8115L184.59 47.4467C184.526 47.4097 184.47 47.3606 184.425 47.302C184.38 47.2433 184.347 47.1764 184.328 47.105C184.308 47.0336 184.304 46.9591 184.313 46.8858C184.323 46.8124 184.347 46.7417 184.384 46.6776C184.42 46.6136 184.47 46.5574 184.528 46.5123C184.587 46.4672 184.654 46.4342 184.725 46.415C184.797 46.3957 184.871 46.3908 184.944 46.4004C185.018 46.41 185.088 46.4339 185.153 46.4708L192.715 50.8356C192.829 50.8945 192.919 50.9903 192.971 51.1072C193.022 51.2241 193.033 51.3551 193 51.4786C192.967 51.6021 192.893 51.7109 192.79 51.7868C192.688 51.8627 192.562 51.9014 192.434 51.8963L192.45 51.8857Z" fill="white"/>
<path d="M162.665 39.0615C162.567 39.0634 162.469 39.0377 162.384 38.9872L154.328 34.336C154.21 34.2563 154.127 34.1348 154.095 33.9961C154.064 33.8574 154.086 33.7118 154.157 33.5886C154.228 33.4655 154.344 33.374 154.48 33.3326C154.616 33.2911 154.763 33.3029 154.89 33.3655L162.947 38.0167C163.066 38.0715 163.162 38.1666 163.218 38.2852C163.274 38.4039 163.286 38.5385 163.252 38.6653C163.219 38.7921 163.141 38.9029 163.034 38.9783C162.927 39.0537 162.796 39.0888 162.665 39.0774V39.0615Z" fill="white"/>
<path d="M179.918 49.0374C179.819 49.0393 179.722 49.0136 179.637 48.9631L172.074 44.5824C172.005 44.5485 171.943 44.5007 171.893 44.442C171.843 44.3832 171.806 44.3148 171.783 44.2411C171.761 44.1673 171.754 44.0896 171.763 44.013C171.771 43.9364 171.796 43.8624 171.835 43.7957C171.873 43.7289 171.925 43.6708 171.987 43.6251C172.049 43.5793 172.12 43.5467 172.195 43.5295C172.271 43.5122 172.349 43.5107 172.424 43.5248C172.5 43.539 172.572 43.5686 172.636 43.6118L180.199 47.9767C180.312 48.0355 180.402 48.1313 180.454 48.2482C180.506 48.3651 180.516 48.4961 180.483 48.6196C180.451 48.7432 180.377 48.8519 180.274 48.9278C180.171 49.0037 180.046 49.0424 179.918 49.0374Z" fill="white"/>
<path d="M179.743 53.6146C179.644 53.6165 179.547 53.5908 179.462 53.5404L154.328 39.0299C154.21 38.9501 154.127 38.8286 154.095 38.6899C154.064 38.5512 154.086 38.4056 154.157 38.2825C154.228 38.1593 154.344 38.0678 154.48 38.0264C154.616 37.985 154.763 37.9968 154.89 38.0593L180.024 52.5645C180.153 52.6398 180.246 52.7631 180.284 52.9073C180.322 53.0515 180.301 53.2048 180.226 53.3335C180.179 53.4207 180.11 53.4931 180.024 53.5428C179.939 53.5924 179.842 53.6173 179.743 53.6146Z" fill="white"/>
<path d="M215.102 74.0276C215.004 74.0328 214.907 74.0108 214.821 73.964L196.205 63.219C196.076 63.1445 195.981 63.0215 195.942 62.8773C195.904 62.7331 195.924 62.5794 195.998 62.45C196.073 62.3206 196.196 62.2261 196.34 62.1873C196.484 62.1485 196.638 62.1686 196.767 62.2431L215.383 72.9934C215.511 73.0678 215.605 73.1897 215.643 73.3328C215.682 73.4758 215.663 73.6283 215.59 73.7572C215.538 73.8404 215.467 73.9091 215.381 73.9565C215.296 74.0039 215.199 74.0284 215.102 74.0276Z" fill="white"/>
<path d="M192.45 60.9496C192.352 60.9515 192.254 60.9258 192.169 60.8753L184.59 56.5105C184.521 56.4766 184.46 56.4288 184.41 56.37C184.36 56.3113 184.322 56.243 184.3 56.1692C184.277 56.0954 184.27 56.0177 184.279 55.9411C184.288 55.8645 184.312 55.7905 184.351 55.7238C184.39 55.657 184.442 55.5989 184.504 55.5532C184.566 55.5074 184.637 55.4748 184.712 55.4576C184.787 55.4403 184.865 55.4388 184.941 55.4529C185.017 55.4671 185.089 55.4967 185.153 55.5399L192.715 59.9048C192.844 59.9801 192.938 60.103 192.976 60.2469C193.015 60.3908 192.996 60.5441 192.922 60.6738C192.872 60.7551 192.803 60.8229 192.721 60.871C192.639 60.9191 192.546 60.9461 192.45 60.9496Z" fill="white"/>
<path d="M167.211 50.7506C167.112 50.7525 167.015 50.7268 166.93 50.6763L154.328 43.4052C154.199 43.3306 154.104 43.2077 154.066 43.0635C154.027 42.9193 154.047 42.7655 154.121 42.6361C154.196 42.5067 154.319 42.4122 154.463 42.3735C154.607 42.3347 154.761 42.3548 154.891 42.4293L167.492 49.7058C167.605 49.7647 167.695 49.8604 167.747 49.9773C167.799 50.0942 167.809 50.2252 167.776 50.3488C167.743 50.4723 167.67 50.581 167.567 50.6569C167.464 50.7329 167.338 50.7715 167.211 50.7665V50.7506Z" fill="white"/>
<path d="M203.503 71.7105C203.404 71.7109 203.306 71.6833 203.222 71.631L184.59 60.886C184.461 60.8114 184.366 60.6885 184.328 60.5443C184.289 60.4001 184.309 60.2464 184.384 60.117C184.458 59.9876 184.581 59.8931 184.725 59.8543C184.869 59.8155 185.023 59.8356 185.153 59.9101L203.768 70.6604C203.881 70.7193 203.971 70.8151 204.023 70.932C204.075 71.0489 204.085 71.1799 204.052 71.3034C204.02 71.427 203.946 71.5357 203.843 71.6116C203.74 71.6875 203.615 71.7262 203.487 71.7212L203.503 71.7105Z" fill="white"/>
<path d="M179.918 58.0912C179.82 58.0899 179.723 58.0644 179.637 58.017L172.074 53.6468C172.005 53.6129 171.943 53.5651 171.893 53.5064C171.843 53.4477 171.806 53.3793 171.783 53.3055C171.761 53.2317 171.754 53.1541 171.763 53.0775C171.771 53.0008 171.796 52.9269 171.835 52.8601C171.873 52.7934 171.925 52.7353 171.987 52.6895C172.049 52.6437 172.12 52.6112 172.195 52.5939C172.271 52.5767 172.349 52.5751 172.424 52.5893C172.5 52.6034 172.572 52.6331 172.636 52.6763L180.199 57.0411C180.328 57.1164 180.421 57.2397 180.459 57.3839C180.497 57.5281 180.476 57.6814 180.401 57.8101C180.354 57.8972 180.284 57.9697 180.199 58.0193C180.114 58.069 180.017 58.0939 179.918 58.0912Z" fill="white"/>
<path d="M179.743 62.3602C179.644 62.3621 179.547 62.3364 179.462 62.286L154.328 47.7755C154.21 47.6957 154.127 47.5742 154.095 47.4355C154.064 47.2968 154.086 47.1512 154.157 47.0281C154.228 46.9049 154.344 46.8134 154.48 46.772C154.616 46.7306 154.763 46.7424 154.89 46.8049L180.024 61.3154C180.137 61.3743 180.227 61.4701 180.279 61.587C180.331 61.7039 180.341 61.8349 180.308 61.9584C180.276 62.082 180.202 62.1907 180.099 62.2666C179.996 62.3425 179.871 62.3812 179.743 62.3761V62.3602Z" fill="white"/>
<path d="M201.445 74.8925C201.347 74.8912 201.25 74.8657 201.164 74.8182L196.205 71.9543C196.136 71.9204 196.074 71.8726 196.024 71.8139C195.974 71.7552 195.937 71.6868 195.914 71.613C195.892 71.5392 195.885 71.4616 195.894 71.385C195.903 71.3083 195.927 71.2344 195.966 71.1676C196.005 71.1009 196.056 71.0428 196.119 70.997C196.181 70.9512 196.251 70.9187 196.327 70.9014C196.402 70.8842 196.48 70.8826 196.556 70.8968C196.631 70.9109 196.703 70.9406 196.767 70.9838L201.726 73.8424C201.84 73.9013 201.93 73.997 201.981 74.1139C202.033 74.2308 202.043 74.3618 202.011 74.4854C201.978 74.6089 201.904 74.7176 201.801 74.7935C201.698 74.8695 201.573 74.9081 201.445 74.9031V74.8925Z" fill="white"/>
<path d="M169.687 60.9335C169.588 60.9338 169.491 60.9063 169.406 60.854L164.437 57.9954C164.308 57.9208 164.213 57.7979 164.174 57.6537C164.135 57.5095 164.156 57.3558 164.23 57.2263C164.305 57.0969 164.428 57.0025 164.572 56.9637C164.716 56.9249 164.87 56.945 164.999 57.0195L169.958 59.8834C170.071 59.9423 170.161 60.0381 170.213 60.155C170.265 60.2718 170.275 60.4029 170.242 60.5264C170.21 60.6499 170.136 60.7586 170.033 60.8346C169.93 60.9105 169.805 60.9492 169.677 60.9441L169.687 60.9335Z" fill="white"/>
<path d="M192.45 69.7218C192.352 69.7205 192.255 69.695 192.169 69.6475L184.59 65.2615C184.461 65.1869 184.366 65.064 184.328 64.9198C184.289 64.7756 184.309 64.6219 184.384 64.4925C184.458 64.3631 184.581 64.2686 184.725 64.2298C184.869 64.191 185.023 64.2111 185.153 64.2856L192.731 68.6611C192.845 68.7199 192.935 68.8157 192.986 68.9326C193.038 69.0495 193.048 69.1805 193.016 69.304C192.983 69.4276 192.909 69.5363 192.806 69.6122C192.704 69.6881 192.578 69.7268 192.45 69.7218Z" fill="white"/>
<path d="M162.666 56.8764C162.567 56.8784 162.469 56.8526 162.384 56.8022L154.328 52.151C154.197 52.0764 154.1 51.9527 154.06 51.807C154.02 51.6613 154.039 51.5055 154.114 51.374C154.188 51.2425 154.312 51.146 154.458 51.1057C154.603 51.0654 154.759 51.0847 154.891 51.1592L162.947 55.8051C163.06 55.864 163.15 55.9598 163.202 56.0767C163.253 56.1935 163.264 56.3246 163.231 56.4481C163.198 56.5716 163.124 56.6803 163.022 56.7563C162.919 56.8322 162.793 56.8709 162.666 56.8658V56.8764Z" fill="white"/>
<path d="M179.918 66.8363C179.819 66.8382 179.722 66.8125 179.637 66.762L172.074 62.3972C171.945 62.3227 171.85 62.1998 171.811 62.0556C171.773 61.9113 171.793 61.7576 171.867 61.6282C171.942 61.4988 172.065 61.4043 172.209 61.3655C172.353 61.3267 172.507 61.3468 172.636 61.4214L180.199 65.7915C180.313 65.8504 180.403 65.9462 180.454 66.063C180.506 66.1799 180.516 66.3109 180.484 66.4345C180.451 66.558 180.377 66.6667 180.274 66.7427C180.171 66.8186 180.046 66.8572 179.918 66.8522V66.8363Z" fill="white"/>
<path d="M169.687 69.3134C169.589 69.3153 169.491 69.2896 169.406 69.2391L164.447 66.3752C164.378 66.3413 164.317 66.2935 164.267 66.2348C164.217 66.1761 164.179 66.1077 164.157 66.0339C164.134 65.9601 164.127 65.8825 164.136 65.8059C164.145 65.7292 164.169 65.6553 164.208 65.5885C164.247 65.5218 164.299 65.4637 164.361 65.4179C164.423 65.3721 164.494 65.3396 164.569 65.3223C164.644 65.3051 164.722 65.3035 164.798 65.3177C164.874 65.3318 164.946 65.3615 165.01 65.4047L169.968 68.2686C170.088 68.3234 170.184 68.4185 170.24 68.5372C170.296 68.6558 170.308 68.7904 170.274 68.9172C170.241 69.044 170.163 69.1548 170.056 69.2302C169.949 69.3056 169.818 69.3407 169.687 69.3293V69.3134Z" fill="white"/>
<path d="M162.666 65.2614C162.567 65.2601 162.471 65.2346 162.384 65.1871L154.328 60.5359C154.199 60.4613 154.104 60.3384 154.066 60.1942C154.027 60.05 154.047 59.8963 154.121 59.7669C154.196 59.6375 154.319 59.543 154.463 59.5042C154.607 59.4654 154.761 59.4855 154.891 59.56L162.947 64.2113C163.06 64.2701 163.15 64.3659 163.202 64.4828C163.253 64.5997 163.264 64.7307 163.231 64.8542C163.198 64.9778 163.124 65.0865 163.022 65.1624C162.919 65.2383 162.793 65.277 162.666 65.272V65.2614Z" fill="white"/>
<path d="M179.918 75.2211C179.82 75.2198 179.723 75.1943 179.637 75.1468L172.074 70.782C171.945 70.7074 171.85 70.5845 171.811 70.4403C171.773 70.2961 171.793 70.1424 171.867 70.013C171.942 69.8836 172.065 69.7891 172.209 69.7503C172.353 69.7115 172.507 69.7316 172.636 69.8061L180.199 74.171C180.328 74.2462 180.421 74.3695 180.459 74.5137C180.497 74.6579 180.476 74.8113 180.401 74.94C180.354 75.0271 180.285 75.0995 180.199 75.1492C180.114 75.1988 180.017 75.2237 179.918 75.2211Z" fill="white"/>
<path d="M159.584 26.6727V47.0065C159.584 47.3354 159.467 47.5369 159.282 47.6271L158.502 48.0567V47.3619L158.391 26.4553L159.409 25.9249C159.523 26.1579 159.583 26.4135 159.584 26.6727Z" fill="#263238"/>
<path d="M159.409 25.9407L158.391 26.471L133.735 11.9976L133.146 11.6582L133.957 11.2021H133.984C134.06 11.1617 134.145 11.1438 134.231 11.1504C134.316 11.157 134.398 11.1878 134.467 11.2392L158.863 25.2883C159.105 25.4474 159.295 25.6743 159.409 25.9407Z" fill="#37474F"/>
<path d="M158.704 27.1126V47.3138C158.715 47.4219 158.699 47.531 158.659 47.6318C158.618 47.7325 158.553 47.8218 158.47 47.8919H158.423C158.349 47.9217 158.269 47.9324 158.191 47.9232C158.112 47.9139 158.037 47.8849 157.972 47.8389L133.735 33.8746C133.512 33.7158 133.329 33.5068 133.202 33.2645C133.075 33.0222 133.007 32.7534 133.003 32.4798V12.3104C132.992 12.2049 133.006 12.0983 133.045 11.9995C133.084 11.9008 133.146 11.8128 133.226 11.7429C133.247 11.7238 133.272 11.7093 133.3 11.7005C133.372 11.6747 133.449 11.6666 133.524 11.6767C133.6 11.6869 133.672 11.715 133.735 11.7588L157.972 25.7019C158.207 25.8555 158.391 26.075 158.502 26.333C158.628 26.5741 158.697 26.8408 158.704 27.1126Z" fill="#455A64"/>
<path d="M147.766 29.3255L152.552 34.251L147.766 33.6755V34.6055L153.423 35.2468V34.2568L147.766 28.3805V29.3255ZM142.887 21.3162L142.041 20.8304L146.333 37.4269L147.178 37.9127L142.887 21.3162ZM135.929 24.2028V25.1928L141.586 31.0541V30.1241L136.801 25.1985L141.586 25.7741V24.8291L135.929 24.2028Z" fill="#FAFAFA"/>
<path d="M133.347 11.722C133.427 11.7243 133.504 11.7481 133.57 11.7909L157.967 25.8401C158.181 25.9822 158.35 26.1828 158.454 26.4181C158.566 26.6366 158.626 26.878 158.629 27.1235V47.4467C158.642 47.5308 158.634 47.6165 158.606 47.6968C158.578 47.7771 158.532 47.8496 158.47 47.9081H158.428C158.393 47.9167 158.357 47.9167 158.322 47.9081C158.243 47.902 158.167 47.8784 158.099 47.8392L133.703 33.7848C133.5 33.6366 133.335 33.4437 133.219 33.2211C133.103 32.9985 133.04 32.7522 133.035 32.5013V12.2311C133.026 12.146 133.036 12.06 133.064 11.9793C133.093 11.8986 133.139 11.8252 133.199 11.7644H133.247C133.278 11.757 133.311 11.757 133.342 11.7644L133.347 11.722ZM133.342 11.6265C133.291 11.6263 133.24 11.6372 133.194 11.6584L133.119 11.7008C133.041 11.7725 132.98 11.8618 132.942 11.9613C132.905 12.0607 132.891 12.1677 132.902 12.2736V32.5491C132.907 32.824 132.976 33.094 133.103 33.3379C133.23 33.5818 133.411 33.7928 133.634 33.9545L158.03 48.0036C158.117 48.0563 158.215 48.0855 158.317 48.0885C158.373 48.0892 158.429 48.0784 158.481 48.0566L158.529 48.0301C158.612 47.9592 158.677 47.869 158.718 47.7673C158.758 47.6657 158.774 47.5556 158.762 47.4467V27.1235C158.755 26.858 158.69 26.5972 158.571 26.3598C158.457 26.1023 158.274 25.8818 158.041 25.7234L133.644 11.6743C133.557 11.6195 133.456 11.5885 133.353 11.5841L133.342 11.6265Z" fill="#37474F"/>
<path d="M155.665 12.2472C155.665 12.8253 155.256 13.0586 154.758 12.7776C154.49 12.6044 154.268 12.3695 154.11 12.0926C153.953 11.8157 153.864 11.505 153.851 11.1865C153.851 10.6084 154.254 10.375 154.758 10.6561C155.024 10.8312 155.244 11.0665 155.402 11.343C155.56 11.6195 155.65 11.9293 155.665 12.2472Z" fill="white"/>
<path d="M159.038 14.3262C159.038 14.9043 158.629 15.1429 158.126 14.8565C157.859 14.6824 157.638 14.4473 157.48 14.1706C157.322 13.8939 157.233 13.5837 157.219 13.2655C157.219 12.6874 157.627 12.4487 158.126 12.7351C158.393 12.9086 158.616 13.1435 158.774 13.4202C158.933 13.6969 159.023 14.0075 159.038 14.3262Z" fill="white"/>
<path d="M162.406 16.4103C162.406 16.9884 162.003 17.2217 161.499 16.9406C161.233 16.7656 161.012 16.5302 160.855 16.2538C160.697 15.9773 160.607 15.6675 160.592 15.3496C160.592 14.7715 161 14.5381 161.499 14.8192C161.766 14.9924 161.988 15.2273 162.146 15.5042C162.304 15.7811 162.393 16.0918 162.406 16.4103Z" fill="white"/>
</svg>
