<svg width="368" height="345" viewBox="0 0 368 345" fill="none" xmlns="http://www.w3.org/2000/svg">
<g clip-path="url(#clip0_6_32)">
<path d="M368 188.9C368 254.553 314.859 307.778 249.311 307.778C239.482 307.785 229.69 306.572 220.16 304.165C209.03 317 195.275 327.289 179.828 334.334C164.381 341.38 147.602 345.017 130.629 345C65.0804 345 11.9398 291.774 11.9398 226.121C11.9298 214.228 13.7006 202.401 17.1931 191.035C5.91509 172.455 -0.0337002 151.122 -0.000102611 129.378C-0.000102611 63.7187 53.1405 10.493 118.683 10.493C134.275 10.4714 149.717 13.5372 164.122 19.514C183.467 6.74815 206.134 -0.0380354 229.3 -0.000101229C294.848 -0.000101229 347.995 53.2256 347.995 118.879C347.995 120.168 347.995 121.452 347.928 122.729C361.051 142.291 368.04 165.332 368 188.9V188.9Z" fill="#023047"/>
</g>
<defs>
<clipPath id="clip0_6_32">
<rect width="368" height="345" fill="white"/>
</clipPath>
</defs>
</svg>
