<svg width="50" height="50" viewBox="0 0 50 50" fill="none" xmlns="http://www.w3.org/2000/svg">
<path d="M25 50C38.8071 50 50 38.8071 50 25C50 11.1929 38.8071 0 25 0C11.1929 0 0 11.1929 0 25C0 38.8071 11.1929 50 25 50Z" fill="#023047"/>
<path d="M33.9625 20.6518C26.7416 20.6518 26.7323 27.8455 26.7323 27.8825C26.7323 27.8825 26.2376 35.085 33.9625 35.085C33.9625 35.085 40.4048 35.4513 40.4048 30.0724H37.0967C37.0967 30.0724 37.2063 32.0974 34.0725 32.0974C34.0725 32.0974 30.7645 32.3175 30.7645 28.8259H40.5148C40.5148 28.8259 41.5871 20.6518 33.9625 20.6518ZM30.7275 26.3057C30.7275 26.3057 31.1308 23.4099 34.036 23.4099C36.9501 23.4099 36.9042 26.3057 36.9042 26.3057H30.7275ZM22.4625 24.455C22.4625 24.455 25.3307 24.2442 25.3307 20.872C25.3307 17.5091 22.9848 15.8593 20.0065 15.8593H10.2098V34.6906H20.0056C20.0056 34.6906 25.9898 34.8742 25.9898 29.1285C25.9903 29.1285 26.247 24.455 22.4625 24.455ZM14.5264 19.2039H20.0061C20.0061 19.2039 21.335 19.2039 21.335 21.1647C21.335 23.1256 20.556 23.4099 19.667 23.4099H14.5264V19.2039ZM19.7316 31.346H14.5264V26.3057H20.0061C20.0061 26.3057 21.995 26.2875 21.9857 28.899C21.9857 31.0987 20.5106 31.3278 19.7316 31.346ZM29.912 16.9681V19.2868H37.6832V16.9681H29.912Z" fill="#F1F2F2"/>
</svg>
