<svg width="42" height="27" viewBox="0 0 42 27" fill="none" xmlns="http://www.w3.org/2000/svg">
<path d="M37.6458 1.33451H27.0833V4.27201H37.6875L37.6458 1.33451ZM35.4167 21.5428C34.6154 22.0738 33.6691 22.3431 32.7083 22.3137C32.0724 22.38 31.4295 22.3143 30.8201 22.1207C30.2107 21.9271 29.6478 21.6098 29.1667 21.1887C28.2771 20.1801 27.814 18.8655 27.875 17.522H41.6667C41.7661 16.1232 41.6466 14.7174 41.3125 13.3553C40.9893 12.0596 40.4238 10.8366 39.6458 9.75118C38.8628 8.69826 37.8513 7.83642 36.6875 7.23034C35.3926 6.59189 33.9644 6.27054 32.5208 6.29284C31.1632 6.2829 29.8172 6.545 28.5625 7.06368C27.4135 7.54804 26.3725 8.25624 25.5 9.14701C24.63 10.0556 23.9563 11.1335 23.5208 12.3137C23.0535 13.5877 22.8206 14.9358 22.8333 16.2928C22.8119 17.6691 23.0377 19.038 23.5 20.3345C23.8927 21.5085 24.516 22.5922 25.3333 23.522C26.179 24.4348 27.2183 25.1467 28.375 25.6053C29.6648 26.0968 31.0366 26.3372 32.4167 26.3137C34.353 26.374 36.2647 25.8671 37.9167 24.8553C39.5852 23.6697 40.7865 21.9377 41.3125 19.9595H36.7083C36.4618 20.614 36.0083 21.1699 35.4167 21.5428ZM28.2708 12.9595C28.433 12.4401 28.7021 11.9604 29.061 11.5514C29.4198 11.1423 29.8603 10.8129 30.3542 10.5845C31.0082 10.2901 31.7205 10.1477 32.4375 10.1678C32.9554 10.1236 33.4768 10.1919 33.9659 10.3681C34.455 10.5443 34.9001 10.8243 35.2708 11.1887C35.9787 12.0552 36.433 13.1007 36.5833 14.2095H27.9375C27.9712 13.7861 28.048 13.3673 28.1667 12.9595H28.2708ZM17.25 11.9595C18.3103 11.518 19.2317 10.7982 19.9167 9.87617C20.5463 8.89702 20.8591 7.7477 20.8125 6.58451C20.8533 5.52375 20.6465 4.46807 20.2083 3.50118C19.8402 2.6635 19.2493 1.9429 18.5 1.41784C17.7055 0.871953 16.8033 0.502557 15.8542 0.334509C14.7309 0.0989116 13.5851 -0.0128665 12.4375 0.00117574H0V26.2095H12.7083C13.8681 26.2103 15.0232 26.0633 16.1458 25.772C17.2099 25.4967 18.218 25.0385 19.125 24.4178C20.0036 23.8089 20.7191 22.9933 21.2083 22.0428C21.7498 20.9799 22.0149 19.7977 21.9792 18.6053C22.0186 17.1277 21.6042 15.6735 20.7917 14.4387C19.9179 13.1968 18.6219 12.3156 17.1458 11.9595H17.25ZM5.77083 4.48034H11.1667C11.6624 4.47973 12.1572 4.52155 12.6458 4.60534C13.0957 4.67201 13.5278 4.82784 13.9167 5.06368C14.2924 5.27621 14.5968 5.59515 14.7917 5.98034C15.033 6.44225 15.1479 6.95971 15.125 7.48034C15.1638 7.92875 15.0952 8.37996 14.925 8.7966C14.7547 9.21323 14.4876 9.58331 14.1458 9.87617C13.4002 10.3887 12.5081 10.6447 11.6042 10.6053H5.77083V4.48034ZM15.8542 19.9803C15.6401 20.4049 15.3164 20.7646 14.9167 21.022C14.5006 21.2808 14.0422 21.4641 13.5625 21.5637C13.0293 21.683 12.4838 21.739 11.9375 21.7303H5.6875V14.5428H11.9375C13.01 14.4959 14.0692 14.7954 14.9583 15.397C15.36 15.7575 15.6712 16.2075 15.8666 16.7106C16.0621 17.2137 16.1363 17.7557 16.0833 18.2928C16.1397 18.8655 16.0612 19.4434 15.8542 19.9803Z" fill="#023047"/>
</svg>
