<svg width="30" height="30" viewBox="0 0 30 30" fill="none" xmlns="http://www.w3.org/2000/svg">
<path fill-rule="evenodd" clip-rule="evenodd" d="M8.89051 11.9621C9.76441 11.5409 11.3799 11.6093 10.3281 8.5235C9.27871 5.4362 9.91321 4.1519 7.17781 4.8932C4.70371 5.5661 1.54771 7.0076 3.62341 12.137C5.33851 16.3745 13.9293 24.9722 18.3099 26.5484C23.0766 28.2668 24.4548 25.2224 25.1058 22.8212C25.8483 20.0864 24.5637 20.7212 21.4758 19.6706C18.3906 18.6197 18.4587 20.2355 18.0372 21.1097C17.1465 22.9568 7.04341 12.8531 8.89051 11.9621ZM20.2509 9.7487C21.7647 11.2631 22.8588 13.0394 23.5305 14.9318L22.0926 15.3173C21.489 13.6676 20.5251 12.1199 19.2024 10.7972C17.8797 9.4745 16.332 8.5106 14.6823 7.907L15.0678 6.4694C16.9596 7.1402 18.7365 8.2349 20.2509 9.7487ZM18.5823 16.2575L20.0244 15.8708C19.521 14.5697 18.7458 13.3526 17.6964 12.3032C16.647 11.2538 15.4299 10.4786 14.1291 9.9755L13.7421 11.4176C14.799 11.8487 15.7905 12.4934 16.6485 13.3511C17.5062 14.2094 18.1506 15.2006 18.5823 16.2575ZM25.6164 14.3726L26.6157 14.105L27.051 13.988C26.2131 11.4986 24.804 9.1601 22.8216 7.1783C20.8398 5.1959 18.5007 3.7853 16.0116 2.948L15.8946 3.3842L15.6267 4.3838C17.8734 5.1536 19.9815 6.4346 21.7737 8.2259C23.5653 10.0181 24.846 12.1271 25.6164 14.3726Z" fill="#023047"/>
</svg>
