<svg width="18" height="30" viewBox="0 0 18 30" fill="none" xmlns="http://www.w3.org/2000/svg">
<path d="M17.3614 0.222036C15.8791 0.0695366 14.3893 -0.00457707 12.8988 0.000218606C7.95679 0.000218606 4.886 3.05954 4.886 7.98565V11.3297H0.734694C0.329142 11.3294 0.000179577 11.6489 1.65093e-07 12.0432V17.5447C-0.00026888 17.939 0.328334 18.2588 0.733887 18.259H4.886V29.2857C4.88573 29.68 5.21434 29.9997 5.61989 30H11.4652C11.8708 30.0003 12.1997 29.6808 12.1999 29.2865V18.259H16.3384C16.7076 18.2589 17.0195 17.9927 17.0674 17.6368L17.7978 12.136C17.8502 11.745 17.5667 11.3867 17.1645 11.3357C17.1328 11.3317 17.1008 11.3297 17.0688 11.3297H12.1999V8.53113C12.1999 7.14581 12.4869 6.56686 14.2691 6.56686L17.2653 6.56546C17.6709 6.56564 17.9997 6.24625 18 5.85197V0.930736C18.0001 0.572201 17.727 0.26912 17.3614 0.222036ZM16.5306 5.1369L14.2691 5.1383C11.0979 5.1383 10.7305 7.07467 10.7305 8.53113V12.044C10.7304 12.4382 11.0589 12.758 11.4644 12.7582H16.2336L15.6926 16.8305H11.4652C11.0597 16.8303 10.7308 17.1497 10.7305 17.5439V28.5714H6.35539V17.5447C6.35566 17.1504 6.02705 16.8307 5.62159 16.8305H1.46939V12.7582H5.6207C6.02625 12.7585 6.35512 12.439 6.35539 12.0447V7.98565C6.35539 3.87993 8.80189 1.42878 12.8988 1.42878C14.3811 1.42878 15.7199 1.5069 16.5306 1.57526V5.1369Z" fill="white"/>
</svg>
