<svg width="46" height="46" viewBox="0 0 46 46" fill="none" xmlns="http://www.w3.org/2000/svg">
<path d="M0 23C0 10.2975 10.2975 0 23 0C35.7025 0 46 10.2975 46 23C46 35.7025 35.7025 46 23 46C10.2975 46 0 35.7025 0 23Z" fill="#8ECAE6"/>
<path d="M18.4 36.7998C20.9405 36.7998 23 34.7404 23 32.1999V27.5999H18.4C15.8594 27.5999 13.8 29.6594 13.8 32.1999C13.8 34.7404 15.8594 36.7998 18.4 36.7998Z" fill="#0ACF83"/>
<path d="M13.8 23C13.8 20.4595 15.8594 18.4 18.4 18.4H23V27.6H18.4C15.8594 27.6 13.8 25.5405 13.8 23Z" fill="#A259FF"/>
<path d="M13.8 13.8C13.8 11.2594 15.8594 9.19995 18.4 9.19995H23V18.4H18.4C15.8594 18.4 13.8 16.3404 13.8 13.8Z" fill="#F24E1E"/>
<path d="M23 9.19995H27.6C30.1405 9.19995 32.2 11.2594 32.2 13.8C32.2 16.3404 30.1405 18.4 27.6 18.4H23V9.19995Z" fill="#FF7262"/>
<path d="M32.2 23C32.2 25.5405 30.1405 27.6 27.6 27.6C25.0595 27.6 23 25.5405 23 23C23 20.4595 25.0595 18.4 27.6 18.4C30.1405 18.4 32.2 20.4595 32.2 23Z" fill="#1ABCFE"/>
</svg>
