<svg width="46" height="46" viewBox="0 0 46 46" fill="none" xmlns="http://www.w3.org/2000/svg">
<g clip-path="url(#clip0_20_1119)">
<path d="M0 23.0007C0 10.2982 10.2975 0.000732422 23 0.000732422C35.7025 0.000732422 46 10.2982 46 23.0007C46 35.7032 35.7025 46.0007 23 46.0007C10.2975 46.0007 0 35.7032 0 23.0007Z" fill="#023047"/>
<path d="M18.4 36.8006C20.9405 36.8006 23 34.7411 23 32.2006V27.6006H18.4C15.8594 27.6006 13.8 29.6601 13.8 32.2006C13.8 34.7411 15.8594 36.8006 18.4 36.8006Z" fill="#0ACF83"/>
<path d="M13.8 23.0006C13.8 20.4601 15.8594 18.4006 18.4 18.4006H23V27.6006H18.4C15.8594 27.6006 13.8 25.5411 13.8 23.0006Z" fill="#A259FF"/>
<path d="M13.8 13.8007C13.8 11.2602 15.8594 9.20068 18.4 9.20068H23V18.4007H18.4C15.8594 18.4007 13.8 16.3411 13.8 13.8007Z" fill="#F24E1E"/>
<path d="M23 9.20068H27.6C30.1405 9.20068 32.2 11.2602 32.2 13.8007C32.2 16.3411 30.1405 18.4007 27.6 18.4007H23V9.20068Z" fill="#FF7262"/>
<path d="M32.2 23.0006C32.2 25.5411 30.1405 27.6006 27.6 27.6006C25.0595 27.6006 23 25.5411 23 23.0006C23 20.4601 25.0595 18.4006 27.6 18.4006C30.1405 18.4006 32.2 20.4601 32.2 23.0006Z" fill="#1ABCFE"/>
</g>
<defs>
<clipPath id="clip0_20_1119">
<rect width="46" height="46" fill="white" transform="translate(0 0.000732422)"/>
</clipPath>
</defs>
</svg>
