<svg width="44" height="43" viewBox="0 0 44 43" fill="none" xmlns="http://www.w3.org/2000/svg">
<path d="M36.0156 0.819824H7.98438C3.81635 0.819824 0.4375 4.19949 0.4375 8.36851V34.9686C0.4375 39.1377 3.81635 42.5173 7.98438 42.5173H36.0156C40.1836 42.5173 43.5625 39.1377 43.5625 34.9686V8.36851C43.5625 4.19949 40.1836 0.819824 36.0156 0.819824Z" fill="#023047"/>
<path d="M22.6055 12.6172L17.3012 21.7329L23.017 31.4381C23.1338 31.6358 23.0835 31.7328 22.8697 31.7328H19.3047C19.2164 31.7422 19.1274 31.7247 19.0492 31.6827C18.971 31.6407 18.9073 31.5761 18.8663 31.4974L14.8431 24.1161H14.8125L10.8953 31.4974C10.8593 31.5676 10.8048 31.6267 10.7376 31.6682C10.6705 31.7097 10.5933 31.732 10.5144 31.7328H7.08595C6.89009 31.7328 6.85236 31.6358 6.96915 31.4381L12.5898 21.9989L7.23509 12.5579C7.11829 12.4016 7.15782 12.3225 7.35189 12.3225H10.9241C11.0007 12.317 11.0772 12.3335 11.1447 12.3702C11.2122 12.4068 11.2678 12.4619 11.305 12.5292L15.0784 19.8224H15.1072L18.8609 12.5292C18.8979 12.4622 18.9532 12.4073 19.0204 12.3707C19.0875 12.3341 19.1637 12.3173 19.24 12.3225H22.4888C22.7044 12.3225 22.7421 12.4213 22.6055 12.6172ZM31.3204 32.0923C29.236 32.0923 27.6314 31.501 26.3862 30.3202C25.1409 29.1394 24.5156 27.3943 24.5156 25.083C24.5156 22.9826 25.1853 21.2572 26.5245 19.9069C27.2098 19.1974 28.0338 18.6367 28.9451 18.2595C29.8564 17.8822 30.8356 17.6966 31.8217 17.7142C32.2631 17.7064 32.7037 17.7535 33.1334 17.8544V11.7725C33.1302 11.7497 33.1323 11.7265 33.1395 11.7046C33.1467 11.6828 33.1589 11.6629 33.1751 11.6466C33.1912 11.6302 33.211 11.6178 33.2328 11.6103C33.2545 11.6029 33.2777 11.6006 33.3005 11.6036H36.5852C36.6769 11.6036 36.7236 11.6593 36.7236 11.7725V28.8015C36.7236 29.5204 37.0345 30.1333 37.083 30.6581C37.0929 30.71 37.0843 30.7638 37.0587 30.8101C37.0331 30.8564 36.9921 30.8923 36.9428 30.9115C35.331 31.6987 33.2179 32.0923 31.3204 32.0923ZM33.1406 29.3083V20.615C33.0238 20.4101 32.4057 20.2304 31.7732 20.2304C31.2497 20.2168 30.7298 20.3203 30.2514 20.5333C29.773 20.7463 29.3481 21.0634 29.0078 21.4615C28.1791 22.4324 27.732 23.6717 27.75 24.9482C27.75 26.5226 28.2891 27.6009 28.9916 28.3504C29.3237 28.7313 29.7328 29.0375 30.1918 29.2488C30.6508 29.46 31.1493 29.5716 31.6546 29.5761C32.3248 29.5761 32.9807 29.4755 33.1406 29.3083Z" fill="#9C3ABE"/>
</svg>
