<svg width="45" height="42" viewBox="0 0 45 42" fill="none" xmlns="http://www.w3.org/2000/svg">
<path d="M8.00832 0.0288086H36.9916C40.9083 0.0288086 44.0416 3.09615 44.0416 6.9304V34.1533C44.0416 37.9876 40.9083 41.0549 36.9916 41.0549H8.00832C4.09162 41.0549 0.958313 37.9876 0.958313 34.1533V6.9304C0.958313 3.09624 4.09162 0.0288086 8.00832 0.0288086Z" fill="#8ECAE6"/>
<path d="M20.8343 10.7385C20.7582 10.5894 20.7582 10.5894 20.606 10.5894H16.647C16.5709 10.5894 16.4947 10.5894 16.4947 10.7385C16.5163 11.2646 16.4651 11.791 16.3424 12.3037L10.9371 30.8622C10.861 31.0858 10.9371 31.1603 11.0894 31.1603H13.9062C14.1346 31.1603 14.2107 31.0858 14.2107 30.9367L15.7334 25.3468H21.7478L23.3466 30.9367C23.4227 31.0858 23.4988 31.0858 23.651 31.0858H26.7725C26.9248 31.0858 26.9248 31.0113 26.9248 30.8622L20.8343 10.7385ZM16.5709 22.3654C17.3513 19.4587 18.3981 15.7321 18.7787 13.5707C19.2355 15.8067 20.5298 20.2786 21.0627 22.3654H16.5709ZM29.5896 12.0056C29.5894 10.9353 30.4755 10.0676 31.5687 10.0674C32.6619 10.0672 33.5483 10.9347 33.5485 12.0049C33.5485 12.0051 33.5485 12.0054 33.5485 12.0056C33.6307 12.9953 32.8776 13.8629 31.8666 13.9434C31.7675 13.9513 31.668 13.9513 31.569 13.9434C30.427 13.8689 29.5896 13.198 29.5896 12.0056ZM29.818 16.2538C29.8009 16.1471 29.8754 16.047 29.9844 16.0303C30.005 16.0271 30.0258 16.0271 30.0464 16.0303H33.0155C33.1246 16.0135 33.2268 16.0865 33.2439 16.1932C33.2471 16.2133 33.2471 16.2337 33.2439 16.2538V30.9366C33.2439 31.0857 33.2439 31.1602 33.0155 31.1602H30.0464C29.9373 31.1769 29.835 31.104 29.818 30.9973C29.8147 30.9772 29.8147 30.9568 29.818 30.9366V16.2538Z" fill="#BF5E28"/>
<path opacity="0.15" d="M20.8343 10.7385C20.7582 10.5894 20.7582 10.5894 20.606 10.5894H16.647C16.5709 10.5894 16.4947 10.5894 16.4947 10.7385C16.5163 11.2646 16.4651 11.791 16.3424 12.3037L10.9371 30.8622C10.861 31.0858 10.9371 31.1603 11.0894 31.1603H13.9062C14.1346 31.1603 14.2107 31.0858 14.2107 30.9367L15.7334 25.3468H21.7478L23.3466 30.9367C23.4227 31.0858 23.4988 31.0858 23.651 31.0858H26.7725C26.9248 31.0858 26.9248 31.0113 26.9248 30.8622L20.8343 10.7385ZM16.5709 22.3654C17.3513 19.4587 18.3981 15.7321 18.7787 13.5707C19.2355 15.8067 20.5298 20.2785 21.0627 22.3654H16.5709ZM29.5896 12.0055C29.5894 10.9353 30.4755 10.0676 31.5687 10.0674C32.6619 10.0672 33.5483 10.9347 33.5485 12.0049C33.6307 12.9947 32.8776 13.8629 31.8666 13.9434C31.7675 13.9513 31.668 13.9513 31.569 13.9434C30.427 13.8689 29.5896 13.198 29.5896 12.0055ZM29.818 16.2538C29.8009 16.1471 29.8754 16.047 29.9844 16.0303C30.0049 16.0271 30.0258 16.0271 30.0464 16.0303H33.0155C33.1246 16.0135 33.2268 16.0865 33.2439 16.1932C33.2471 16.2133 33.2471 16.2337 33.2439 16.2538V30.9366C33.2439 31.0857 33.2439 31.1602 33.0155 31.1602H30.0464C29.9373 31.1769 29.835 31.104 29.818 30.9973C29.8147 30.9772 29.8147 30.9568 29.818 30.9366V16.2538Z" fill="#BF5E28"/>
</svg>
