<svg width="44" height="43" viewBox="0 0 44 43" fill="none" xmlns="http://www.w3.org/2000/svg">
<path d="M36.0156 0.819092H7.98438C3.81635 0.819092 0.4375 4.19875 0.4375 8.36778V34.9679C0.4375 39.1369 3.81635 42.5166 7.98438 42.5166H36.0156C40.1836 42.5166 43.5625 39.1369 43.5625 34.9679V8.36778C43.5625 4.19875 40.1836 0.819092 36.0156 0.819092Z" fill="#8ECAE6"/>
<path d="M22.6055 12.6165L17.3012 21.7322L23.017 31.4374C23.1338 31.635 23.0835 31.7321 22.8697 31.7321H19.3047C19.2164 31.7414 19.1274 31.7239 19.0492 31.682C18.971 31.64 18.9073 31.5754 18.8663 31.4967L14.8431 24.1153H14.8125L10.8953 31.4967C10.8593 31.5669 10.8048 31.626 10.7376 31.6675C10.6705 31.7089 10.5933 31.7313 10.5144 31.7321H7.08595C6.89009 31.7321 6.85236 31.635 6.96915 31.4374L12.5898 21.9982L7.23509 12.5572C7.11829 12.4008 7.15782 12.3217 7.35189 12.3217H10.9241C11.0007 12.3163 11.0772 12.3328 11.1447 12.3694C11.2122 12.406 11.2678 12.4612 11.305 12.5284L15.0784 19.8217H15.1072L18.8609 12.5284C18.8979 12.4615 18.9532 12.4065 19.0204 12.3699C19.0875 12.3333 19.1637 12.3166 19.24 12.3217H22.4888C22.7044 12.3217 22.7421 12.4206 22.6055 12.6165ZM31.3204 32.0916C29.236 32.0916 27.6314 31.5003 26.3862 30.3195C25.1409 29.1387 24.5156 27.3935 24.5156 25.0823C24.5156 22.9819 25.1853 21.2565 26.5245 19.9062C27.2098 19.1967 28.0338 18.6359 28.9451 18.2587C29.8564 17.8815 30.8356 17.6959 31.8217 17.7135C32.2631 17.7056 32.7037 17.7527 33.1334 17.8537V11.7718C33.1302 11.749 33.1323 11.7258 33.1395 11.7039C33.1467 11.6821 33.1589 11.6622 33.1751 11.6458C33.1912 11.6295 33.211 11.6171 33.2328 11.6096C33.2545 11.6022 33.2777 11.5998 33.3005 11.6028H36.5852C36.6769 11.6028 36.7236 11.6586 36.7236 11.7718V28.8008C36.7236 29.5197 37.0345 30.1325 37.083 30.6573C37.0929 30.7093 37.0843 30.7631 37.0587 30.8094C37.0331 30.8557 36.9921 30.8915 36.9428 30.9108C35.331 31.698 33.2179 32.0916 31.3204 32.0916ZM33.1406 29.3076V20.6143C33.0238 20.4094 32.4057 20.2297 31.7732 20.2297C31.2497 20.2161 30.7298 20.3196 30.2514 20.5326C29.773 20.7455 29.3481 21.0627 29.0078 21.4608C28.1791 22.4316 27.732 23.671 27.75 24.9475C27.75 26.5219 28.2891 27.6002 28.9916 28.3497C29.3237 28.7306 29.7328 29.0367 30.1918 29.248C30.6508 29.4593 31.1493 29.5709 31.6546 29.5754C32.3248 29.5754 32.9807 29.4747 33.1406 29.3076Z" fill="#9C3ABE"/>
</svg>
