<svg width="45" height="42" viewBox="0 0 45 42" fill="none" xmlns="http://www.w3.org/2000/svg">
<path d="M8.00832 0.0297852H36.9916C40.9083 0.0297852 44.0416 3.09713 44.0416 6.93138V34.1543C44.0416 37.9886 40.9083 41.0559 36.9916 41.0559H8.00832C4.09162 41.0559 0.958313 37.9886 0.958313 34.1543V6.93138C0.958313 3.09722 4.09162 0.0297852 8.00832 0.0297852Z" fill="#023047"/>
<path d="M20.8343 10.7395C20.7582 10.5904 20.7582 10.5904 20.606 10.5904H16.647C16.5709 10.5904 16.4947 10.5904 16.4947 10.7395C16.5163 11.2656 16.4651 11.792 16.3424 12.3047L10.9371 30.8632C10.861 31.0868 10.9371 31.1613 11.0894 31.1613H13.9062C14.1346 31.1613 14.2107 31.0868 14.2107 30.9377L15.7334 25.3478H21.7478L23.3466 30.9377C23.4227 31.0868 23.4988 31.0868 23.651 31.0868H26.7725C26.9248 31.0868 26.9248 31.0123 26.9248 30.8632L20.8343 10.7395ZM16.5709 22.3664C17.3513 19.4597 18.3981 15.7331 18.7787 13.5717C19.2355 15.8076 20.5298 20.2795 21.0627 22.3664H16.5709ZM29.5896 12.0065C29.5894 10.9363 30.4755 10.0685 31.5687 10.0684C32.6619 10.0682 33.5483 10.9357 33.5485 12.0059C33.5485 12.0061 33.5485 12.0063 33.5485 12.0065C33.6307 12.9963 32.8776 13.8639 31.8666 13.9443C31.7675 13.9522 31.668 13.9522 31.569 13.9443C30.427 13.8698 29.5896 13.199 29.5896 12.0065ZM29.818 16.2548C29.8009 16.1481 29.8754 16.0479 29.9844 16.0312C30.005 16.0281 30.0258 16.0281 30.0464 16.0312H33.0155C33.1246 16.0145 33.2268 16.0875 33.2439 16.1942C33.2471 16.2143 33.2471 16.2347 33.2439 16.2548V30.9376C33.2439 31.0867 33.2439 31.1612 33.0155 31.1612H30.0464C29.9373 31.1779 29.835 31.1049 29.818 30.9983C29.8147 30.9781 29.8147 30.9577 29.818 30.9376V16.2548Z" fill="#BF5E28"/>
<path opacity="0.15" d="M20.8343 10.7395C20.7582 10.5904 20.7582 10.5904 20.606 10.5904H16.647C16.5709 10.5904 16.4947 10.5904 16.4947 10.7395C16.5163 11.2656 16.4651 11.792 16.3424 12.3047L10.9371 30.8632C10.861 31.0868 10.9371 31.1613 11.0894 31.1613H13.9062C14.1346 31.1613 14.2107 31.0868 14.2107 30.9377L15.7334 25.3478H21.7478L23.3466 30.9377C23.4227 31.0868 23.4988 31.0868 23.651 31.0868H26.7725C26.9248 31.0868 26.9248 31.0123 26.9248 30.8632L20.8343 10.7395ZM16.5709 22.3664C17.3513 19.4597 18.3981 15.7331 18.7787 13.5717C19.2355 15.8076 20.5298 20.2795 21.0627 22.3664H16.5709ZM29.5896 12.0065C29.5894 10.9363 30.4755 10.0685 31.5687 10.0684C32.6619 10.0682 33.5483 10.9357 33.5485 12.0059C33.6307 12.9957 32.8776 13.8639 31.8666 13.9443C31.7675 13.9522 31.668 13.9522 31.569 13.9443C30.427 13.8698 29.5896 13.199 29.5896 12.0065ZM29.818 16.2548C29.8009 16.1481 29.8754 16.0479 29.9844 16.0312C30.0049 16.0281 30.0258 16.0281 30.0464 16.0312H33.0155C33.1246 16.0145 33.2268 16.0875 33.2439 16.1942C33.2471 16.2143 33.2471 16.2347 33.2439 16.2548V30.9376C33.2439 31.0867 33.2439 31.1612 33.0155 31.1612H30.0464C29.9373 31.1779 29.835 31.1049 29.818 30.9983C29.8147 30.9781 29.8147 30.9577 29.818 30.9376V16.2548Z" fill="#BF5E28"/>
</svg>
