<svg width="78" height="39" viewBox="0 0 78 39" fill="none" xmlns="http://www.w3.org/2000/svg">
<path d="M26.019 26.5622C26.0591 28.3334 25.6707 30.088 24.887 31.6769C24.1592 33.1172 23.1118 34.3721 21.825 35.3458C20.467 36.3501 18.9337 37.0925 17.3036 37.5349C15.5019 38.0419 13.6377 38.2921 11.7661 38.2782C10.5248 38.287 9.28527 38.182 8.0631 37.9645C7.0358 37.7922 6.02177 37.5483 5.02839 37.2349C4.27788 36.9889 3.55003 36.6786 2.85295 36.3074C2.41076 36.0679 1.99674 35.7797 1.61861 35.4481C1.33421 35.1526 1.14223 34.7805 1.06622 34.3774C0.957111 33.9137 4.97384 34.8753 4.97384 34.0024C4.97384 33.4091 0.923014 31.2745 0.963931 30.879C0.989828 30.5477 1.0539 30.2204 1.15488 29.9038C1.20507 29.689 1.32206 29.4956 1.48904 29.3514C1.64141 29.2468 1.8225 29.192 2.00733 29.1946C2.43198 29.2491 2.8357 29.411 3.18029 29.6651C3.66448 30.0334 4.34644 30.3539 5.13069 30.7153C6.04756 31.1425 6.99886 31.4916 7.97445 31.7587C9.22186 32.0915 10.5094 32.2498 11.8002 32.2293C12.6638 32.2404 13.5246 32.1302 14.3576 31.9019C15.0473 31.7116 15.6966 31.3973 16.2739 30.9745C16.7894 30.5827 17.2034 30.0729 17.4809 29.4878C17.7649 28.8701 17.9071 28.1967 17.8969 27.517C17.9177 26.737 17.6643 25.9744 17.1809 25.362C16.6644 24.7201 16.036 24.1772 15.3259 23.7594C14.4906 23.2582 13.6199 22.8183 12.7209 22.4432C11.7434 22.0477 10.7409 21.6226 9.71344 21.1679C8.67963 20.7101 7.67523 20.1885 6.70601 19.6063C5.74912 19.0347 4.87493 18.3349 4.10775 17.5263C3.32416 16.6854 2.69404 15.7137 2.24601 14.6553C1.75054 13.3902 1.51848 12.0373 1.56405 10.6794C1.51744 9.06727 1.85891 7.4675 2.55971 6.01486C3.21446 4.7017 4.16165 3.5562 5.32846 2.66645C6.55483 1.75253 7.94321 1.07917 9.4202 0.681959C11.0524 0.228653 12.7386 -0.000765087 14.4326 1.91684e-06C16.2246 0.00343476 18.0076 0.253561 19.7314 0.743335C20.4531 0.943998 21.1577 1.20168 21.8386 1.51395C22.2755 1.68287 22.6864 1.91244 23.0593 2.1959C23.2181 2.33511 23.3539 2.49852 23.4617 2.68009C23.5434 2.84665 23.603 3.02318 23.639 3.2052C23.7088 3.50522 23.7499 3.81121 23.7618 4.11902C23.7618 4.45318 18.6539 3.92125 18.6539 4.41226C18.6539 4.90327 23.7754 6.38312 23.7413 6.7582C23.7235 7.07797 23.6756 7.39535 23.5981 7.70612C23.5489 7.90962 23.4451 8.09587 23.298 8.24486C23.1531 8.36533 22.9679 8.42627 22.7797 8.41535C22.4069 8.36236 22.0506 8.22726 21.7363 8.01982C21.259 7.75385 20.6725 7.46061 19.9769 7.14691C19.197 6.80087 18.3923 6.51365 17.5696 6.28765C16.5942 6.01982 15.5873 5.88449 14.5758 5.88529C13.8179 5.86135 13.061 5.95569 12.3322 6.16489C11.7531 6.33196 11.2129 6.61245 10.7432 6.99006C10.3277 7.33797 10.0044 7.78303 9.80209 8.28578C9.59431 8.78257 9.48767 9.31579 9.48839 9.85428C9.46484 10.6208 9.70563 11.372 10.1703 11.982C10.6902 12.6284 11.3262 13.1719 12.0457 13.5846C12.9004 14.0831 13.7891 14.5206 14.7054 14.8939C15.701 15.3031 16.7126 15.7373 17.7401 16.1965C18.7825 16.6594 19.7979 17.1808 20.7816 17.7582C21.7615 18.323 22.6569 19.0232 23.4412 19.8381C24.2959 20.7319 24.9645 21.7865 25.4082 22.9408C25.8519 24.0952 26.0618 25.3261 26.0259 26.5622H26.019Z" fill="#023047"/>
<path d="M39.2285 10.8909C38.9586 11.5057 38.5032 12.0208 37.926 12.3639C37.4691 12.6708 37.2441 11.1432 36.3166 10.7135C35.3891 10.2839 34.1821 11.075 33.9775 10.6181C33.8864 10.3062 33.86 9.97893 33.8999 9.65646C33.9398 9.33398 34.0451 9.02304 34.2093 8.74269C34.3134 8.42005 34.4819 8.12191 34.7046 7.86636C34.9273 7.6108 35.1997 7.40316 35.5051 7.25602C36.2615 7.13217 37.0375 7.27436 37.701 7.65838C38.4238 7.89942 39.0424 8.38077 39.4536 9.02229C39.5451 9.33269 39.5723 9.65848 39.5336 9.97976C39.4949 10.301 39.3911 10.6111 39.2285 10.8909ZM31.1064 8.49037C31.305 9.0623 31.3217 9.68167 31.1542 10.2635C31.0382 10.7476 29.9676 9.85428 29.0674 10.1543C28.1672 10.4544 27.8671 11.7092 27.458 11.5183C27.2067 11.3713 26.9882 11.1745 26.8158 10.9399C26.6434 10.7054 26.5208 10.438 26.4555 10.1543C26.3271 9.87537 26.2562 9.57345 26.2468 9.26652C26.2374 8.95958 26.2898 8.65389 26.4009 8.36761C26.83 7.8216 27.4348 7.44089 28.1126 7.29012C28.7328 7.00062 29.4343 6.93553 30.0971 7.10599C30.3527 7.25353 30.5745 7.45293 30.7483 7.69136C30.9221 7.92978 31.0441 8.20196 31.1064 8.49037ZM35.43 36.9893C35.4329 37.1344 35.3818 37.2753 35.2868 37.3849C35.1531 37.5242 34.983 37.6234 34.7958 37.6713C34.4953 37.7582 34.1869 37.8153 33.8752 37.8418C33.4933 37.8418 33.0091 35.6868 32.4158 35.6868C31.8225 35.6868 31.3383 37.8759 30.9428 37.8418C30.631 37.8153 30.3227 37.7582 30.0221 37.6713C29.835 37.6234 29.6649 37.5242 29.5311 37.3849C29.4361 37.2753 29.3851 37.1344 29.3879 36.9893V16.742C29.3864 16.5972 29.4372 16.4568 29.5311 16.3465C29.666 16.2071 29.8354 16.1059 30.0221 16.0533C30.3213 15.9554 30.6298 15.8892 30.9428 15.8555C31.9136 15.7646 32.8907 15.7646 33.8615 15.8555C34.1745 15.8892 34.483 15.9554 34.7822 16.0533C34.9689 16.1059 35.1383 16.2071 35.2732 16.3465C35.3671 16.4568 35.418 16.5972 35.4164 16.742L35.43 36.9893Z" fill="#023047"/>
<path d="M59.0531 15.5691C59.0531 15.6509 59.0531 15.7464 59.0531 15.8555C59.046 15.9792 59.03 16.1023 59.0053 16.2238C59.0053 16.3602 58.978 16.517 58.9235 16.6943L58.7803 17.2944L52.9495 36.6075C52.8964 36.8514 52.7968 37.083 52.6563 37.2894C52.4999 37.481 52.2878 37.6192 52.0494 37.6849C51.6751 37.7982 51.2877 37.8624 50.8969 37.8759C50.4059 37.8759 49.7716 37.9236 48.9942 37.9236C48.2168 37.9236 47.6303 37.9236 47.112 37.8623C46.7151 37.8385 46.3231 37.7629 45.9459 37.6372C45.7107 37.5686 45.5015 37.4308 45.3457 37.2417C45.2133 37.0481 45.1141 36.8337 45.0525 36.6075L39.2559 17.2944C39.1672 16.9739 39.099 16.6875 39.0513 16.4283C39.0093 16.2487 38.9797 16.0664 38.9626 15.8828C38.9626 15.7668 38.9626 15.6646 38.9626 15.5691C38.9603 15.419 39.0031 15.2718 39.0854 15.1463C39.1918 15.0063 39.3398 14.9036 39.5082 14.853C39.7787 14.7584 40.0609 14.701 40.347 14.6825C40.7016 14.6825 41.329 18.7334 41.8678 18.7334C42.4065 18.7334 42.7543 14.6416 43.1157 14.6962C43.4067 14.7233 43.6944 14.7781 43.975 14.8598C44.1537 14.9119 44.3098 15.0223 44.4183 15.1735C44.5151 15.3254 44.5886 15.4909 44.6365 15.6646L49.0488 31.3496L49.1647 36.853L49.2943 31.3359L53.6451 15.6509C53.6805 15.4754 53.75 15.3086 53.8497 15.1599C53.9623 15.0128 54.1169 14.9034 54.293 14.8462C54.5598 14.7652 54.8339 14.7104 55.1114 14.6825C55.4523 14.6416 55.9161 17.99 56.4753 17.99C57.0345 17.99 57.43 14.6348 57.771 14.6689C58.0417 14.6861 58.3083 14.7435 58.5621 14.8394C58.7213 14.8934 58.8596 14.996 58.9576 15.1326C59.0273 15.2672 59.0603 15.4177 59.0531 15.5691Z" fill="#023047"/>
<path d="M77.9978 37.0098C78.0032 37.1085 77.9871 37.2072 77.9506 37.299C77.9141 37.3909 77.8581 37.4737 77.7864 37.5417C77.5883 37.6933 77.3524 37.7877 77.1045 37.8145C76.7976 37.8691 76.3543 35.0867 75.7405 35.0867C75.1268 35.0867 74.6426 37.8554 74.3766 37.8145C74.1489 37.7886 73.9347 37.6934 73.7629 37.5417C73.6341 37.3954 73.568 37.2044 73.5787 37.0098V35.3117C72.8477 36.2158 71.9435 36.9647 70.9191 37.5145C69.894 38.0473 68.7532 38.319 67.598 38.3055C66.6567 38.3147 65.7206 38.1648 64.8292 37.8622C64.0167 37.5833 63.2728 37.1346 62.647 36.5461C62.0145 35.9385 61.5253 35.1977 61.2149 34.3775C60.862 33.4243 60.6908 32.4135 60.7102 31.3973C60.6848 30.283 60.9061 29.1768 61.3581 28.158C61.7879 27.241 62.454 26.4549 63.288 25.8803C64.2545 25.225 65.338 24.762 66.4796 24.5164C67.937 24.2114 69.4234 24.0673 70.9123 24.0867H72.7604V22.7978C72.7686 22.2061 72.7068 21.6155 72.5763 21.0384C72.4813 20.5788 72.2778 20.1486 71.983 19.7836C71.6963 19.4351 71.315 19.1769 70.885 19.0402C70.3318 18.8653 69.7532 18.7846 69.1733 18.8016C68.3652 18.789 67.56 18.9017 66.7864 19.1357C66.1499 19.3354 65.5298 19.5839 64.9315 19.879C64.3928 20.145 63.9427 20.3973 63.5676 20.6156C63.3093 20.8043 63.0059 20.9218 62.6879 20.9565C62.5324 20.9558 62.3832 20.8946 62.2719 20.7861C62.1368 20.6519 62.0341 20.4886 61.9718 20.3087C61.8861 20.0587 61.8267 19.8004 61.7945 19.5381C61.7536 19.238 64.2905 18.3174 64.2905 17.9559C64.2905 17.4581 61.7672 17.649 61.8354 17.3626C61.9054 17.075 62.0434 16.8084 62.2378 16.5852C62.5413 16.275 62.8938 16.0169 63.2812 15.8214C63.8434 15.5067 64.4321 15.242 65.0406 15.0303C65.747 14.7784 66.4721 14.5823 67.2093 14.4439C68.0112 14.2868 68.8267 14.2091 69.6438 14.212C70.9296 14.1859 72.2121 14.3514 73.4492 14.703C74.4245 14.9876 75.3161 15.5048 76.0474 16.2101C76.7556 16.9466 77.2669 17.8495 77.5341 18.8357C77.8646 20.0764 78.0206 21.3572 77.9978 22.641V37.0098ZM72.7604 27.8716H70.7145C69.9746 27.8583 69.2356 27.9292 68.5118 28.083C67.9745 28.2052 67.4683 28.4374 67.0251 28.7649C66.6583 29.0326 66.3689 29.3926 66.1863 29.8083C66.0017 30.2509 65.9111 30.7269 65.9204 31.2064C65.899 31.5904 65.9549 31.9748 66.085 32.3368C66.215 32.6988 66.4164 33.031 66.6773 33.3136C66.9538 33.5778 67.2819 33.782 67.641 33.9134C68.0001 34.0449 68.3824 34.1007 68.7641 34.0774C69.5005 34.0689 70.2158 33.8304 70.81 33.3954C71.5436 32.8675 72.1921 32.2304 72.7331 31.5064L72.7604 27.8716Z" fill="#023047"/>
</svg>
