<svg width="50" height="50" viewBox="0 0 50 50" fill="none" xmlns="http://www.w3.org/2000/svg">
<path d="M49.4141 25.0858C49.4141 38.5689 38.483 49.4999 25 49.4999C11.5169 49.4999 0.585938 38.5689 0.585938 25.0858C0.585938 11.6027 11.5169 0.671783 25 0.671783C38.483 0.671783 49.4141 11.6027 49.4141 25.0858Z" fill="#023047"/>
<path d="M39.586 27.0493V37.1153H33.7507V27.725C33.7507 25.3663 32.9092 23.7556 30.7948 23.7556C29.1841 23.7556 28.2256 24.8414 27.8028 25.8912C27.6477 26.2652 27.6094 26.7859 27.6094 27.3129V37.1154H21.7721C21.7721 37.1154 21.8507 21.2099 21.7721 19.5633H27.6094V22.0514C27.5989 22.0705 27.5819 22.0894 27.5711 22.1085H27.6094V22.0514C28.3851 20.8573 29.7684 19.1508 32.8688 19.1508C36.7087 19.1508 39.586 21.6604 39.586 27.0493ZM15.6692 11.1033C13.6716 11.1033 12.3669 12.4145 12.3669 14.1358C12.3669 15.8208 13.6334 17.1679 15.5927 17.1679H15.6289C17.6646 17.1679 18.9311 15.8209 18.9311 14.1358C18.8928 12.4146 17.6646 11.1033 15.6692 11.1033ZM12.7133 37.1154H18.5464V19.5633H12.7133V37.1154Z" fill="#F2F2F2"/>
</svg>
