<svg width="31" height="30" viewBox="0 0 31 30" fill="none" xmlns="http://www.w3.org/2000/svg">
<path d="M0 3.48485C0 2.47473 0.349109 1.64139 1.0473 0.984848C1.74549 0.328273 2.65316 0 3.77027 0C4.86745 0 5.75514 0.323212 6.4334 0.969697C7.13159 1.63636 7.48069 2.50503 7.48069 3.57576C7.48069 4.54545 7.14158 5.35352 6.46332 6C5.76513 6.66667 4.84749 7 3.71042 7H3.6805C2.58332 7 1.69563 6.66667 1.01737 6C0.339115 5.33333 0 4.49494 0 3.48485ZM0.388996 30V9.75758H7.03185V30H0.388996ZM10.7124 30H17.3552V18.697C17.3552 17.9899 17.435 17.4444 17.5946 17.0606C17.8739 16.3737 18.2978 15.7929 18.8663 15.3182C19.4348 14.8434 20.148 14.6061 21.0058 14.6061C23.24 14.6061 24.3571 16.1313 24.3571 19.1818V30H31V18.3939C31 15.404 30.3018 13.1364 28.9054 11.5909C27.509 10.0455 25.6638 9.27273 23.3697 9.27273C20.7963 9.27273 18.7915 10.3939 17.3552 12.6364V12.697H17.3253L17.3552 12.6364V9.75758H10.7124C10.7522 10.404 10.7722 12.4141 10.7722 15.7879C10.7722 19.1616 10.7522 23.899 10.7124 30Z" fill="#023047"/>
</svg>
