<svg width="30" height="30" viewBox="0 0 30 30" fill="none" xmlns="http://www.w3.org/2000/svg">
<path d="M23.2605 8.22C23.1645 7.8597 22.9692 7.476 22.8249 7.14C21.0972 2.988 17.3223 1.5 14.2743 1.5C10.194 1.5 5.70001 4.236 5.10001 9.8757V11.028C5.10001 11.076 5.11651 11.508 5.14021 11.724C5.47651 14.4117 7.59721 17.268 9.18121 19.9557C10.8852 22.8354 12.6534 25.668 14.4057 28.4994C15.4857 26.6517 16.5621 24.7797 17.6178 22.9797C17.9055 22.4514 18.2391 21.9234 18.5271 21.4194C18.7191 21.0837 19.0857 20.748 19.2534 20.4357C20.9571 17.3166 23.7 14.172 23.7 11.076V9.804C23.7 9.4683 23.2839 8.2923 23.2605 8.22ZM14.349 14.004C13.1496 14.004 11.8368 13.4043 11.1888 11.748C11.0922 11.4843 11.1 10.956 11.1 10.9077V10.1637C11.1 8.0523 12.8928 7.092 14.4525 7.092C16.3725 7.092 17.8578 8.6283 17.8578 10.5483C17.8578 12.4683 16.269 14.004 14.349 14.004Z" fill="#023047"/>
</svg>
