<svg width="28" height="28" viewBox="0 0 28 28" fill="none" xmlns="http://www.w3.org/2000/svg">
<path d="M18.08 0.5C20.78 0.5 22.13 0.5 23.6 0.95C25.19 1.52 26.45 2.78 27.02 4.37C27.5 5.87 27.5 7.22 27.5 9.92V18.08C27.5 20.78 27.5 22.13 27.05 23.6C26.48 25.19 25.22 26.45 23.63 27.02C22.16 27.5 20.81 27.5 18.08 27.5H9.92C7.22 27.5 5.87 27.5 4.4 27.05C2.81 26.45 1.55 25.22 0.98 23.6C0.5 22.16 0.5 20.81 0.5 18.08V9.92C0.5 7.22 0.5 5.87 0.95 4.4C1.55 2.81 2.81 1.55 4.4 0.98C5.87 0.5 7.22 0.5 9.92 0.5H18.08Z" fill="white"/>
<path d="M6.71002 12.2898C5.72002 10.4898 5.33002 9.01977 5.33002 8.02977C5.33002 7.03977 5.57002 6.76977 5.81002 6.52977C6.05002 6.28977 7.16002 5.62977 7.37002 5.47977C7.55002 5.35977 8.27002 5.08977 8.72002 5.74977C9.17002 6.40977 10.01 7.69977 10.61 8.56977C11.54 9.79977 10.79 10.3398 10.55 10.6698C10.1 11.2698 9.86002 11.4198 9.86002 12.1398C9.86002 12.8598 11.9 14.9598 12.38 15.4698C12.86 15.9798 14.9 17.7498 15.53 17.8698C16.16 17.9598 17.03 17.2998 17.21 17.1198C18.14 16.3998 18.65 16.9398 19.07 17.1798C19.49 17.4198 21.41 18.6198 22.01 19.0098C22.58 19.3998 22.52 20.0298 22.52 20.0298C22.52 20.0298 22.13 21.1998 21.23 22.0698C21.02 22.2798 20.63 22.5498 19.7 22.5498C18.77 22.5498 17.75 22.3698 15.35 21.0498C13.4 19.9698 11.54 18.2898 10.55 17.2998C9.56002 16.3398 7.85002 14.3598 6.71002 12.2898Z" fill="#023047"/>
</svg>
