<svg width="50" height="50" viewBox="0 0 50 50" fill="none" xmlns="http://www.w3.org/2000/svg">
<path d="M0.771484 25C0.771484 11.6211 11.6211 0.771484 25 0.771484C38.3789 0.771484 49.2285 11.6211 49.2285 25C49.2285 38.3789 38.3789 49.2285 25 49.2285C11.6211 49.2285 0.771484 38.3789 0.771484 25Z" fill="#023047"/>
<path d="M37.7832 27.4023C37.8906 26.748 37.9394 26.084 37.9394 25.4102C37.9394 18.3496 32.2168 12.627 25.1562 12.627C24.4824 12.627 23.8086 12.6855 23.1641 12.7832C21.9824 12.0605 20.5957 11.6309 19.1113 11.6309C14.8437 11.6309 11.3867 15.0879 11.3867 19.3555C11.3867 20.8398 11.8066 22.2363 12.5391 23.4082C12.4414 24.0625 12.3828 24.7168 12.3828 25.4004C12.3828 32.4609 18.1055 38.1738 25.1562 38.1738C25.8301 38.1738 26.5039 38.125 27.1484 38.0176C28.3301 38.7402 29.7168 39.1699 31.2012 39.1699C35.4687 39.1699 38.9258 35.7129 38.9258 31.4453C38.9355 29.9609 38.5156 28.5742 37.7832 27.4023ZM31.2305 31.2109C30.6934 31.9922 29.8926 32.5977 28.8574 33.0371C27.8223 33.4766 26.5918 33.6914 25.166 33.6914C23.4668 33.6914 22.0605 33.3984 20.9473 32.793C20.1562 32.3633 19.5215 31.7871 19.0234 31.0644C18.5254 30.3418 18.2812 29.6387 18.2812 28.9551C18.2812 28.5449 18.4375 28.1934 18.7402 27.9102C19.043 27.6172 19.4336 27.4707 19.9023 27.4707C20.2832 27.4707 20.6055 27.5879 20.8691 27.8125C21.1328 28.0371 21.3574 28.3691 21.5332 28.7988C21.748 29.2969 21.9824 29.7266 22.2363 30.0586C22.4805 30.3906 22.832 30.6641 23.291 30.8789C23.7402 31.0937 24.3359 31.2012 25.0781 31.2012C26.1035 31.2012 26.9238 30.9766 27.5586 30.5469C28.1934 30.1074 28.4961 29.5703 28.4961 28.9258C28.4961 28.4082 28.3301 27.998 27.998 27.6855C27.6562 27.3633 27.2168 27.1191 26.6699 26.9434C26.123 26.7676 25.3906 26.582 24.4629 26.3965C23.2227 26.123 22.1973 25.8105 21.3574 25.4492C20.5176 25.0879 19.8535 24.5898 19.3555 23.9648C18.8574 23.3301 18.6133 22.5488 18.6133 21.6211C18.6133 20.7324 18.877 19.9414 19.3945 19.248C19.9121 18.5547 20.6738 18.0273 21.6602 17.6562C22.6465 17.2852 23.7988 17.0996 25.1269 17.0996C26.1816 17.0996 27.0996 17.2266 27.8809 17.4707C28.6523 17.7148 29.2969 18.0371 29.8144 18.4473C30.3223 18.8477 30.7031 19.2773 30.9473 19.7266C31.1816 20.1758 31.3086 20.6152 31.3086 21.0449C31.3086 21.4453 31.1523 21.8066 30.8496 22.1289C30.5469 22.4512 30.166 22.6074 29.7168 22.6074C29.3066 22.6074 28.9941 22.5098 28.7695 22.3145C28.5547 22.1191 28.3301 21.8164 28.0859 21.3965C27.7734 20.8008 27.4023 20.3418 26.9727 20.0098C26.5527 19.6875 25.8594 19.5117 24.9023 19.5215C24.0137 19.5215 23.3008 19.707 22.7637 20.0586C22.2266 20.4199 21.9629 20.8398 21.9629 21.3281C21.9629 21.6406 22.0508 21.8945 22.2266 22.1191C22.4121 22.3437 22.6562 22.5391 22.9785 22.7051C23.3008 22.8711 23.6328 22.998 23.9648 23.0957C24.2969 23.1934 24.8535 23.3301 25.625 23.5059C26.5918 23.7109 27.4707 23.9453 28.2617 24.1992C29.0527 24.4531 29.7168 24.7656 30.2734 25.1269C30.8301 25.4883 31.2695 25.957 31.582 26.5234C31.8945 27.0898 32.0508 27.7734 32.0508 28.584C32.041 29.5605 31.7676 30.4394 31.2305 31.2109Z" fill="white"/>
</svg>
