<svg width="30" height="30" viewBox="0 0 30 30" fill="none" xmlns="http://www.w3.org/2000/svg">
<path d="M29.1525 18.2324C29.3659 17.2334 29.4723 16.2146 29.4698 15.1931C29.4592 13.3252 29.0805 11.4777 28.3554 9.7563C27.6303 8.03486 26.5729 6.47321 25.2438 5.16063C23.9147 3.84805 22.3398 2.81029 20.6093 2.10666C18.8789 1.40304 17.0266 1.04736 15.1586 1.05996C14.3413 1.05786 13.5256 1.12903 12.721 1.27262C11.472 0.487903 10.0365 0.0500315 8.56211 0.00403856C7.08772 -0.0419543 5.62769 0.305592 4.33219 1.01093C3.03668 1.71627 1.95247 2.75394 1.19106 4.01722C0.429657 5.28049 0.0185409 6.72377 0 8.1986C0.000944698 9.65264 0.391251 11.0799 1.13037 12.3321C0.94699 13.2633 0.852232 14.2097 0.847367 15.1587C0.863027 17.0137 1.24701 18.8471 1.97703 20.5524C2.70705 22.2578 3.76856 23.8012 5.09996 25.0931C6.43135 26.3849 8.00611 27.3995 9.73282 28.0779C11.4595 28.7563 13.3038 29.085 15.1586 29.0449C16.0362 29.0514 16.9121 28.9681 17.7727 28.7961C18.9604 29.5162 20.3086 29.9294 21.6958 29.9985C23.0954 30.025 24.4782 29.6906 25.711 29.0275C26.9438 28.3645 27.985 27.3951 28.7342 26.2128C29.4835 25.0305 29.9156 23.6751 29.9888 22.2774C30.0621 20.8796 29.774 19.4865 29.1525 18.2324ZM21.6597 20.9886C21.0389 21.8207 20.1933 22.4581 19.2223 22.8256C18.0208 23.3039 16.7343 23.5321 15.4416 23.4962C13.9399 23.5449 12.4487 23.2302 11.0949 22.5786C10.303 22.1568 9.62411 21.551 9.11532 20.812C8.66367 20.1944 8.40575 19.4565 8.37428 18.6921C8.37072 18.4978 8.41008 18.3052 8.48954 18.1279C8.56901 17.9506 8.68662 17.793 8.83399 17.6664C9.15159 17.3778 9.5699 17.2256 9.9987 17.2427C10.3456 17.2283 10.6856 17.3419 10.9543 17.5617C11.249 17.8366 11.4782 18.1742 11.6249 18.5496C11.8064 19.0202 12.0567 19.4613 12.3677 19.8584C12.6522 20.2316 13.0295 20.5237 13.4621 20.7057C14.0543 20.9552 14.6929 21.0756 15.3353 21.0589C16.244 21.1087 17.1457 20.8743 17.9152 20.3884C18.2123 20.2147 18.4595 19.9674 18.6329 19.6702C18.8063 19.373 18.9 19.0361 18.905 18.6921C18.9151 18.449 18.8731 18.2066 18.7817 17.9811C18.6902 17.7557 18.5515 17.5524 18.3749 17.3851C17.9858 17.0167 17.5122 16.7493 16.9957 16.6063C16.4314 16.4297 15.6525 16.253 14.6989 16.0421C13.6036 15.8104 12.5287 15.4915 11.4843 15.0884C10.6815 14.7668 9.97546 14.2434 9.4344 13.5688C8.92262 12.8884 8.66039 12.0527 8.69168 11.2018C8.69067 10.3332 8.9765 9.48848 9.5048 8.79889C10.1034 8.05295 10.8991 7.48968 11.8016 7.17297C12.9472 6.76918 14.157 6.57794 15.3713 6.60865C16.3276 6.59641 17.2805 6.72706 18.1982 6.99628C18.9122 7.20309 19.5824 7.53846 20.176 7.98591C20.649 8.33844 21.0458 8.78301 21.3425 9.29286C21.5692 9.69153 21.6908 10.1413 21.6958 10.5999C21.6964 10.7987 21.6558 10.9955 21.5767 11.1779C21.4976 11.3603 21.3816 11.5244 21.2361 11.6598C21.0909 11.8121 20.9151 11.9317 20.7202 12.011C20.5253 12.0902 20.3159 12.1272 20.1056 12.1195C19.7644 12.1397 19.4269 12.0395 19.152 11.8365C18.8681 11.5711 18.6293 11.2612 18.4452 10.9189C18.164 10.3583 17.7664 9.86414 17.2788 9.46954C16.6252 9.06064 15.8566 8.87468 15.0883 8.93957C14.2949 8.90259 13.5082 9.09942 12.8257 9.50561C12.5806 9.6374 12.3738 9.83033 12.2253 10.0657C12.0768 10.301 11.9918 10.5707 11.9783 10.8486C11.9802 11.154 12.0794 11.4507 12.2613 11.6959C12.4802 11.9584 12.7591 12.1643 13.0745 12.2962C13.3965 12.4719 13.741 12.6029 14.0984 12.6855C14.4518 12.7919 15.018 12.9325 15.8293 13.1092C16.819 13.3219 17.7385 13.5689 18.5515 13.8158C19.2878 14.0339 19.9894 14.3549 20.6358 14.7695C21.1861 15.1311 21.6457 15.6147 21.9788 16.1828C22.3193 16.8242 22.4894 17.5424 22.4729 18.2684C22.5149 19.2407 22.2285 20.1989 21.6597 20.9886Z" fill="#023047"/>
</svg>
